SplineFontDB: 3.2
FontName: Sebastian
FullName: Sebastian
FamilyName: Sebastian
Weight: Standard

StartChar: numbersign
Encoding: 35 35 0
GlifName: numbersign
Width: 253
VWidth: 0
GlyphClass: 2
Flags: W
HStem: 295 20G<52 82 171 201> 295 20G<52 82 171 201 216 253>
VStem: 52 30<-340 -190.866 -84.1735 50.0872 154.915 315> 171 30<-315 -156.867 -49.0894 83.1718 189.914 340>
LayerCount: 2
Fore
SplineSet
0 39 m 257xb0
 0 127 l 257
 52 142 l 257
 52 315 l 257
 82 315 l 257
 82 168 l 258
 82 163 89 153 96 155 c 258
 171 177 l 257
 171 340 l 257
 201 340 l 257
 201 203 l 258
 201 197 209 188 216 190 c 258
 253 201 l 257
 253 113 l 257
 201 98 l 257
 201 -37 l 258
 201 -47 213 -51 220 -49 c 258
 253 -39 l 257
 253 -127 l 257
 201 -142 l 257
 201 -315 l 257
 171 -315 l 257
 171 -168 l 258
 171 -161 160 -154 152 -157 c 258
 82 -177 l 257
 82 -340 l 257
 52 -340 l 257
 52 -203 l 258
 52 -194 43 -188 35 -191 c 258
 0 -201 l 257
 0 -113 l 257
 52 -98 l 257
 52 40 l 258
 52 45 45 52 37 50 c 258
 0 39 l 257xb0
82 63 m 257
 82 -69 l 258
 82 -76 93 -86 100 -84 c 258
 171 -63 l 257
 171 70 l 258
 171 78 158 85 152 83 c 258
 82 63 l 257
EndSplineSet
Validated: 1
PickledDataWithLists: "(dp0
Vcom.fontlab.hintData
p1
(dp2
Vvhints
p3
(lp4
(dp5
Vposition
p6
I52
sVwidth
p7
I30
sa(dp8
g6
I171
sg7
I30
sass."
EndChar

StartChar: percent
Encoding: 37 37 1
GlifName: percent
Width: 591
VWidth: 0
GlyphClass: 2
Flags: W
HStem: -13 58<398 492.381> 176 95<15.0156 93.248> 269 103<246 348> 373 95<498.752 576.984> 598 58<98.3716 193> 628 20G<512 517.5>
VStem: 0 48<463.053 557.731> 7 94<183.642 263.358> 175 103<525.142 577.615> 312 104<63.0351 116.556> 491 94<380.642 460.358> 542 49<85.2695 183.232>
LayerCount: 2
Fore
SplineSet
469 45 m 256xb6d0
 511 45 542 90 542 125 c 256
 542 147 534 168 518 186 c 256
 483 224 420 248 348 266 c 256
 339 268 330 269 322 269 c 256
 288 269 266 250 249 227 c 258
 90 8 l 258
 84 0 80 -4 76 -4 c 256
 68 -4 52 10 52 15 c 256
 52 18 54 22 59 28 c 258
 212 237 l 258
 219 247 224 258 224 268 c 256
 224 284 212 299 177 310 c 256
 92 337 0 383 0 482 c 256
 0 568 85 656 178 656 c 256
 208 656 236 646 257 623 c 256
 271 606 278 589 278 572 c 256
 278 540 251 510 219 510 c 256
 202 510 187 519 175 532 c 256
 156 552 161 598 122 598 c 256xbad0
 79 598 48 553 48 518 c 256
 48 496 57 475 73 458 c 256
 108 419 172 395 246 375 c 256
 256 373 265 372 272 372 c 256
 304 372 322 390 339 413 c 258
 501 636 l 258
 507 644 510 648 514 648 c 256
 521 648 538 634 538 629 c 256
 538 626 536 622 532 616 c 258
 375 401 l 258
 368 390 362 380 362 370 c 256
 362 357 372 346 399 338 c 256
 460 319 518 294 552 256 c 256
 578 227 591 195 591 161 c 256
 591 75 506 -13 413 -13 c 256
 383 -13 354 -3 334 21 c 256
 319 37 312 54 312 71 c 256
 312 103 340 132 372 132 c 256
 388 132 404 125 416 111 c 256
 434 91 429 45 469 45 c 256xb6d0
538 373 m 256
 512 373 491 394 491 421 c 256
 491 446 511 468 538 468 c 256
 564 468 585 447 585 420 c 256x90e0
 585 395 564 373 538 373 c 256
54 271 m 256xd1c0
 80 271 101 250 101 223 c 256
 101 198 81 176 54 176 c 256
 28 176 7 197 7 224 c 256
 7 249 28 271 54 271 c 256xd1c0
EndSplineSet
Validated: 1
PickledDataWithLists: "(dp0
Vcom.fontlab.hintData
p1
(dp2
Vhhints
p3
(lp4
(dp5
Vposition
p6
I-13
sVwidth
p7
I58
sa(dp8
g6
I176
sg7
I95
sa(dp9
g6
I269
sg7
I103
sa(dp10
g6
I373
sg7
I95
sa(dp11
g6
I598
sg7
I58
sa(dp12
g6
I628
sg7
I20
sasVvhints
p13
(lp14
(dp15
g6
I0
sg7
I48
sa(dp16
g6
I7
sg7
I94
sa(dp17
g6
I175
sg7
I103
sa(dp18
g6
I312
sg7
I104
sa(dp19
g6
I491
sg7
I94
sa(dp20
g6
I542
sg7
I49
sass."
EndChar

StartChar: ampersand
Encoding: 38 38 2
GlifName: ampersand
Width: 709
VWidth: 0
GlyphClass: 2
Flags: W
HStem: -690 34<262.287 410.186> -270 31<262.31 449.806> 149 130<420.5 537.78>
VStem: 0 69<-44.5643 151.385> 113 141<-629.5 -476.5> 189 68<-41.2767 80.3496> 249 47<689.84 914.197> 510 34<-554.285 -344.303> 551 37<881.456 1049.93> 634 75<-92.6484 67.5143>
LayerCount: 2
Fore
SplineSet
634 -26 m 260xf1c0
 634 75 580 145 453 149 c 260
 441.947 149 426.651 136.273 426.651 124.106 c 260
 426.651 123.064 426.763 122.026 427 121 c 262
 495 -197 l 262
 496.703 -202.961 507.835 -209.648 514.807 -209.648 c 260
 516.021 -209.648 517.11 -209.445 518 -209 c 260
 585 -178 634 -120 634 -26 c 260xf1c0
304 416 m 260
 205 321 69 214 69 36 c 260
 69 -138 200 -239 367 -239 c 260
 393 -239 419 -237 444 -232 c 260
 454.87 -230.188 463.279 -216.068 463.279 -207.478 c 260
 463.279 -206.586 463.188 -205.753 463 -205 c 262
 392 126 l 262
 390.339 132.646 380.396 139.982 370.198 139.982 c 260
 368.12 139.982 366.031 139.677 364 139 c 260
 279 115 257 52 257 13 c 260
 257 -39 281 -78 310 -121 c 260
 312 -124 313 -126 313 -127 c 260
 313 -129 312 -130 310 -130 c 260
 308 -130 306 -129 303 -128 c 260
 237 -102 189 -32 189 51 c 260xf5c0
 189 152 263 242 361 270 c 261
 331 408 l 262
 329.641 414.794 320.896 418.819 313.233 418.819 c 260
 309.618 418.819 306.244 417.923 304 416 c 260
353 464 m 261
 394 277 l 261
 404 278 415 279 426 279 c 260
 583 279 709 164 709 10 c 260
 709 -108 634 -198 525 -241 c 260
 518.875 -243.625 510.453 -253.141 510.453 -264.857 c 260
 510.453 -266.531 510.625 -268.25 511 -270 c 262
 517 -298 l 262
 531 -362 544 -412 544 -471 c 260
 544 -603 455 -690 340 -690 c 260
 229 -690 113 -620 113 -509 c 260
 113 -444 163 -385 231 -385 c 260
 296 -385 350 -436 350 -503 c 260
 350 -558 312 -607 259 -619 c 260
 256 -620 254 -623 254 -627 c 260xf9c0
 254 -632 257 -639 261 -641 c 260
 280 -650 294 -656 328 -656 c 260
 434 -656 510 -588 510 -469 c 260
 510 -412 495 -351 485 -306 c 262
 479 -276 l 262
 477.211 -268.845 466.622 -261.689 457.251 -261.689 c 260
 456.145 -261.689 455.056 -261.789 454 -262 c 260
 427 -267 398 -270 369 -270 c 260
 170 -270 0 -132 0 75 c 260
 0 289 150 444 286 576 c 261
 294 584 l 261
 285 624 l 262
 278 657 249 776 249 857 c 260xf3c0
 249 1065 391 1231 441 1264 c 260
 444 1266 446 1267 447 1267 c 260
 449 1267 450 1266 453 1264 c 260
 484 1236 588 1096 588 929 c 260
 588 724 487 594 364 474 c 261
 353 464 l 261
347 636 m 260
 430 718 551 832 551 978 c 260
 551 1012 536 1089 507 1115 c 261
 396 1087 296 941 296 791 c 260xf3c0
 296 746 301 708 312 657 c 261
 315 641 l 262
 316.252 635.368 324.945 631.693 333.481 631.693 c 260
 338.585 631.693 343.632 633.007 347 636 c 260
EndSplineSet
Validated: 1
PickledDataWithLists: "(dp0
Vcom.fontlab.hintData
p1
(dp2
Vhhints
p3
(lp4
(dp5
Vposition
p6
I-690
sVwidth
p7
I34
sa(dp8
g6
I-270
sg7
I31
sa(dp9
g6
I149
sg7
I130
sasVvhints
p10
(lp11
(dp12
g6
I0
sg7
I69
sa(dp13
g6
I113
sg7
I141
sa(dp14
g6
I189
sg7
I68
sa(dp15
g6
I249
sg7
I47
sa(dp16
g6
I510
sg7
I34
sa(dp17
g6
I551
sg7
I37
sa(dp18
g6
I634
sg7
I75
sass."
EndChar

StartChar: parenleft
Encoding: 40 40 3
GlifName: parenleft
Width: 114
VWidth: 0
GlyphClass: 2
Flags: W
HStem: 240 20G<100.5 106>
VStem: 0 32<-107.427 107.871>
LayerCount: 2
Fore
SplineSet
32 0 m 256
 32 -113 78 -184 107 -229 c 256
 112 -236 114 -242 114 -247 c 256
 114 -255 109 -260 103 -260 c 256
 98 -260 92 -256 86 -248 c 256
 53 -208 0 -123 0 0 c 256
 0 124 53 208 86 248 c 256
 92 256 98 260 103 260 c 256
 109 260 114 255 114 247 c 256
 114 242 112 236 107 229 c 256
 78 184 32 114 32 0 c 256
EndSplineSet
Validated: 1
PickledDataWithLists: "(dp0
Vcom.fontlab.hintData
p1
(dp2
Vvhints
p3
(lp4
(dp5
Vposition
p6
I0
sVwidth
p7
I32
sass."
EndChar

StartChar: parenright
Encoding: 41 41 4
GlifName: parenright
Width: 114
VWidth: 0
GlyphClass: 2
Flags: W
HStem: 240 20G<8 13.5>
VStem: 82 32<-107.871 107.427>
LayerCount: 2
Fore
SplineSet
82 0 m 256
 82 113 36 184 7 229 c 256
 2 236 0 242 0 247 c 256
 0 255 5 260 11 260 c 256
 16 260 22 256 28 248 c 256
 61 208 114 123 114 0 c 256
 114 -124 61 -208 28 -248 c 256
 22 -256 16 -260 11 -260 c 256
 5 -260 0 -255 0 -247 c 256
 0 -242 2 -236 7 -229 c 256
 36 -184 82 -114 82 0 c 256
EndSplineSet
Validated: 1
PickledDataWithLists: "(dp0
Vcom.fontlab.hintData
p1
(dp2
Vvhints
p3
(lp4
(dp5
Vposition
p6
I82
sVwidth
p7
I32
sass."
EndChar

StartChar: plus
Encoding: 43 43 5
GlifName: plus
Width: 398
VWidth: 0
GlyphClass: 2
Flags: W
HStem: 124.333 35.727<60.0132 180.031 217.955 337.973> 262 20G<188.643 204.286> 262 20G<188.643 204.286>
VStem: 181.827 34.84<4.01193 123.969 162.001 281.978>
LayerCount: 2
Fore
SplineSet
302 160 m 258xd0
 306.421 160 310.576 160.089 314.381 160.089 c 256
 328.651 160.089 338 158.842 338 147 c 256
 338 126.429 338 124.959 314.07 124.959 c 256
 310.082 124.959 305.429 125 300 125 c 258
 241 125 l 258
 223 125 216 119 216 106 c 258
 216 54 l 258
 216 40.3333 216.667 30.2222 216.667 22.8148 c 256
 216.667 8 214 4 198 4 c 256
 183.56 4 181.827 6.888 181.827 27.1502 c 256
 181.827 33.5488 182 41.68 182 52 c 258
 182 104 l 258
 182 120 166 125 157 125 c 258
 111 125 l 258
 97.3333 125 87.1111 124.333 79.5556 124.333 c 256
 64.4444 124.333 60 127 60 143 c 256
 60 158.696 63.4121 160.06 88.8396 160.06 c 256
 94.1928 160.06 100.522 160 108 160 c 258
 155 160 l 258
 171 160 182 173 182 188 c 258
 182 246 l 258
 182 252 181.755 257.51 181.755 262.321 c 256
 181.755 274.347 183.286 282 194 282 c 256
 214.571 282 216.041 282 216.041 258.07 c 256
 216.041 254.082 216 249.429 216 244 c 258
 216 190 l 258
 216 170.5 228 160 246 160 c 258
 302 160 l 258xd0
EndSplineSet
Validated: 1
PickledDataWithLists: "(dp0
Vcom.fontlab.hintData
p1
(dp2
Vhhints
p3
(lp4
(dp5
Vposition
p6
I125
sVwidth
p7
I35
sasVvhints
p8
(lp9
(dp10
g6
I182
sg7
I34
sass."
EndChar

StartChar: comma
Encoding: 44 44 6
GlifName: comma
Width: 214
VWidth: 0
GlyphClass: 2
Flags: W
HStem: 77 175<32.375 158.638>
VStem: 160 54<-1.32758 147>
LayerCount: 2
Fore
SplineSet
6 -137 m 257
 104 -80 160 -12 160 56 c 256
 160 69 154 77 140 77 c 256
 124 77 119 72 88 72 c 256
 57 72 0 93 0 162 c 256
 0 213 42 252 93 252 c 256
 172 252 214 187 214 107 c 256
 214 -40 114 -118 20 -166 c 257
 6 -137 l 257
EndSplineSet
Validated: 1
PickledDataWithLists: "(dp0
Vcom.fontlab.hintData
p1
(dp2
Vhhints
p3
(lp4
(dp5
Vposition
p6
I-4
sVwidth
p7
I159
sasVvhints
p8
(lp9
(dp10
g6
I124
sg7
I68
sass."
EndChar

StartChar: period
Encoding: 46 46 7
GlifName: period
Width: 124
VWidth: 0
GlyphClass: 2
Flags: W
HStem: -61 122<15.2003 108.463>
VStem: 0 124<-46.5665 46.2296>
LayerCount: 2
Fore
SplineSet
0 0 m 256
 0 34 28 61 62 61 c 256
 95 61 124 34 124 0 c 256
 124 -35 95 -61 62 -61 c 256
 28 -61 0 -35 0 0 c 256
EndSplineSet
Validated: 1
PickledDataWithLists: "(dp0
Vcom.fontlab.hintData
p1
(dp2
Vhhints
p3
(lp4
(dp5
Vposition
p6
I-61
sVwidth
p7
I122
sasVvhints
p8
(lp9
(dp10
g6
I0
sg7
I124
sass."
EndChar

StartChar: slash
Encoding: 47 47 8
GlifName: slash
Width: 167
VWidth: 0
GlyphClass: 2
Flags: W
HStem: 650 20G<0 30 137 167>
VStem: 0 30<-162 670> 137 30<-162 670>
LayerCount: 2
Fore
SplineSet
137 670 m 257
 167 670 l 257
 167 -162 l 257
 137 -162 l 257
 137 670 l 257
0 670 m 257
 30 670 l 257
 30 -162 l 257
 0 -162 l 257
 0 670 l 257
EndSplineSet
Validated: 1
PickledDataWithLists: "(dp0
Vcom.fontlab.hintData
p1
(dp2
Vhhints
p3
(lp4
(dp5
Vposition
p6
I650
sVwidth
p7
I20
sasVvhints
p8
(lp9
(dp10
g6
I0
sg7
I30
sa(dp11
g6
I137
sg7
I30
sass."
EndChar

StartChar: zero
Encoding: 48 48 9
GlifName: zero
Width: 420
VWidth: 0
GlyphClass: 2
Flags: W
HStem: -5 28<175.213 244.787> 477 28<175.213 244.787>
VStem: 25 103<127.935 369.619> 292 103<127.935 369.619>
LayerCount: 2
Fore
SplineSet
25 250 m 256
 25 392 105 505 210 505 c 256
 315 505 395 392 395 250 c 256
 395 108 315 -5 210 -5 c 256
 105 -5 25 108 25 250 c 256
210 477 m 256
 145 477 128 378 128 268 c 258
 128 228 l 258
 128 118 145 23 210 23 c 256
 275 23 292 118 292 228 c 258
 292 268 l 258
 292 378 275 477 210 477 c 256
EndSplineSet
Validated: 1
PickledDataWithLists: "(dp0
Vcom.fontlab.hintData
p1
(dp2
Vhhints
p3
(lp4
(dp5
Vposition
p6
I-5
sVwidth
p7
I28
sa(dp8
g6
I477
sg7
I28
sasVvhints
p9
(lp10
(dp11
g6
I25
sg7
I103
sa(dp12
g6
I292
sg7
I103
sass."
EndChar

StartChar: one
Encoding: 49 49 10
GlifName: one
Width: 335
VWidth: 0
GlyphClass: 2
Flags: W
HStem: 0 30<72 134.222 247.778 310> 470 20G<139.538 155.492 230.213 238> 470 20G<139.538 155.492 230.213 238>
VStem: 144 94<35.61 344.412>
LayerCount: 2
Fore
SplineSet
238 75 m 258xd0
 238 44 258 30 286 30 c 258
 310 30 l 257
 310 0 l 257
 72 0 l 257
 72 30 l 257
 96 30 l 258
 124 30 144 44 144 76 c 258
 144 341 l 258
 144 348 132 353 127 344 c 258
 54 213 l 258
 52 211 52 210 49 212 c 258
 27 225 l 258
 24 227 25 227 26 230 c 258
 149 490 l 257
 161.983 483.268 176.122 480.236 190.639 480.236 c 256
 206.312 480.236 222.426 483.77 238 490 c 257
 238 75 l 258xd0
EndSplineSet
Validated: 1
PickledDataWithLists: "(dp0
Vcom.fontlab.hintData
p1
(dp2
Vhhints
p3
(lp4
(dp5
Vposition
p6
I0
sVwidth
p7
I30
sa(dp8
g6
I470
sg7
I20
sasVvhints
p9
(lp10
(dp11
g6
I144
sg7
I94
sass."
EndChar

StartChar: two
Encoding: 50 50 11
GlifName: two
Width: 411
VWidth: 0
GlyphClass: 2
Flags: W
HStem: -5 94<228.487 337.799> 59 75<96.9264 178.2> 140 20G<358 386> 296 123.63<81.4699 153.996> 476 29<138.155 242.387>
VStem: 25 26<0 25.0235> 40 129<313.875 404.774> 284 101<301.763 435.201> 360 26<115.625 160>
LayerCount: 2
Fore
SplineSet
216 505 m 256x7b
 306 505 385 448 385 366 c 256
 385 284 316 237 250 208 c 256
 209 189 165 167 127 132 c 257
 135 133 142 134 150 134 c 256x7b
 200 134 252 89 300 89 c 256
 331 89 356 106 360 160 c 257
 386 160 l 257
 386 108 369 -5 282 -5 c 256xb880
 211 -5 173 59 120 59 c 256
 94 59 64 41 51 0 c 257
 25 0 l 257x7c80
 30 76 102 156 159 196 c 256
 254 262 284 327 284 381 c 256
 284 446 240 476 191 476 c 256
 147 476 98 449 81 414 c 257
 91.0363 417.903 100.382 419.63 108.946 419.63 c 256
 146.464 419.63 169 386.495 169 358 c 256
 169 323 142 296 107 296 c 256
 72 296 40 322 40 368 c 256
 40 435 108 505 216 505 c 256x7b
EndSplineSet
Validated: 1
PickledDataWithLists: "(dp0
Vcom.fontlab.hintData
p1
(dp2
Vhhints
p3
(lp4
(dp5
Vposition
p6
I-5
sVwidth
p7
I94
sa(dp8
g6
I59
sg7
I75
sa(dp9
g6
I140
sg7
I20
sa(dp10
g6
I296
sg7
I118
sa(dp11
g6
I476
sg7
I29
sasVvhints
p12
(lp13
(dp14
g6
I25
sg7
I26
sa(dp15
g6
I40
sg7
I129
sa(dp16
g6
I284
sg7
I101
sa(dp17
g6
I360
sg7
I26
sass."
EndChar

StartChar: three
Encoding: 51 51 12
GlifName: three
Width: 417
VWidth: 0
GlyphClass: 2
Flags: W
HStem: -5 29<126.377 244.592> 73.4027 123.597<75.2653 138.137> 256 30<156 238.321> 324 111.565<101.136 153.078> 478 27<142.057 249.763>
VStem: 25 128<87.5604 178.813> 52 113<336.37 423.594> 285 107<69.624 204.837> 285 86<325.424 445.689>
LayerCount: 2
Fore
SplineSet
264 272 m 257xfa80
 341 249 392 202 392 138 c 256
 392 67 327 -5 200 -5 c 256
 110 -5 25 56 25 120 c 256
 25 171 56 197 91 197 c 256
 126 197 153 170 153 135 c 256
 153 107.377 132.357 73.4027 91.0695 73.4027 c 256
 86.0216 73.4027 80.6651 73.9106 75 75 c 257
 85 58 136 24 188 24 c 256
 260 24 285 70 285 144 c 256xfd
 285 207 268 256 156 256 c 257
 156 286 l 257
 262 286 285 327 285 381 c 256
 285 438 264 478 194 478 c 256
 162 478 121 460 101 435 c 257
 103.898 435.381 106.726 435.565 109.479 435.565 c 256
 142.815 435.565 165 408.636 165 380 c 256
 165 349 140 324 109 324 c 256
 78 324 52 347 52 383 c 256
 52 447 128 505 207 505 c 256
 291 505 371 458 371 386 c 256
 371 328 324 291 264 272 c 257xfa80
EndSplineSet
Validated: 1
PickledDataWithLists: "(dp0
Vcom.fontlab.hintData
p1
(dp2
Vhhints
p3
(lp4
(dp5
Vposition
p6
I-5
sVwidth
p7
I29
sa(dp8
g6
I75
sg7
I122
sa(dp9
g6
I256
sg7
I30
sa(dp10
g6
I324
sg7
I111
sa(dp11
g6
I478
sg7
I27
sasVvhints
p12
(lp13
(dp14
g6
I25
sg7
I128
sa(dp15
g6
I52
sg7
I113
sa(dp16
g6
I285
sg7
I107
sa(dp17
g6
I285
sg7
I86
sass."
EndChar

StartChar: four
Encoding: 52 52 13
GlifName: four
Width: 435
VWidth: 0
GlyphClass: 2
Flags: W
HStem: 0 30<147 209.222 322.778 385> 122 30<58 219 313 410> 363 20G<295.43 313> 480 20G<150 172.669 285 313>
VStem: 219 94<35.61 122 152 276>
LayerCount: 2
Fore
SplineSet
313 122 m 257
 313 75 l 258
 313 44 333 30 361 30 c 258
 385 30 l 257
 385 0 l 257
 147 0 l 257
 147 30 l 257
 171 30 l 258
 199 30 219 44 219 76 c 258
 219 122 l 257
 154.333333333 122 89.6666666667 122 25 122 c 257
 25 152 l 257
 105 270 138 382 162 500 c 257
 183.338 492.379 208.291 488.372 234.627 488.372 c 256
 260.128 488.372 286.927 492.129 313 500 c 257
 257 376 151 291 58 152 c 257
 219 152 l 257
 219 276 l 257
 313 383 l 257
 313 152 l 257
 410 152 l 257
 410 122 l 257
 313 122 l 257
EndSplineSet
Validated: 1
PickledDataWithLists: "(dp0
Vcom.fontlab.hintData
p1
(dp2
Vhhints
p3
(lp4
(dp5
Vposition
p6
I0
sVwidth
p7
I30
sa(dp8
g6
I122
sg7
I30
sa(dp9
g6
I480
sg7
I20
sasVvhints
p10
(lp11
(dp12
g6
I219
sg7
I94
sass."
EndChar

StartChar: five
Encoding: 53 53 14
GlifName: five
Width: 402
VWidth: 0
GlyphClass: 2
Flags: W
HStem: -5 28<114.93 230.6> 62.1377 123.862<82.176 138.137> 243 21G<65 87> 283 30<115.662 235.449> 391.697 81.595<93.8354 279.782> 470 20G<65 96.3885 326.97 334.404> 470 20G<65 96.3885 326.97 334.404>
VStem: 25 128<77.7771 167.813> 65 28<290 398> 276 101<77.108 235.475>
LayerCount: 2
Fore
SplineSet
93 398 m 257xf8c0
 93 290 l 257xf8c0
 120 300 148 313 204 313 c 256
 287 313 377 263 377 155 c 256
 377 56 296 -5 186 -5 c 256
 97 -5 25 46 25 109 c 256
 25 160 56 186 91 186 c 256
 126 186 153 159 153 124 c 256xf940
 153 95.5887 131.161 62.1377 92.872 62.1377 c 256
 89.3832 62.1377 85.7578 62.4154 82 63 c 257
 92 45 128 23 180 23 c 256
 235 23 276 60 276 155 c 256
 276 239 250 283 181 283 c 256
 142 283 109 268 65 243 c 257
 65 490 l 257xf4c0
 127.777 477.979 177.273 473.292 218.606 473.292 c 256xf8c0
 270.11 473.292 308.94 480.569 345 490 c 257xf2c0
 323.808 415.071 250.489 391.697 170.564 391.697 c 256
 144.888 391.697 118.53 394.11 93 398 c 257xf8c0
EndSplineSet
Validated: 1
PickledDataWithLists: "(dp0
Vcom.fontlab.hintData
p1
(dp2
Vhhints
p3
(lp4
(dp5
Vposition
p6
I-5
sVwidth
p7
I28
sa(dp8
g6
I62
sg7
I124
sa(dp9
g6
I283
sg7
I30
sa(dp10
g6
I392
sg7
I82
sa(dp11
g6
I470
sg7
I20
sasVvhints
p12
(lp13
(dp14
g6
I25
sg7
I128
sa(dp15
g6
I65
sg7
I28
sa(dp16
g6
I276
sg7
I101
sass."
EndChar

StartChar: six
Encoding: 54 54 15
GlifName: six
Width: 412
VWidth: 0
GlyphClass: 2
Flags: W
HStem: -5 26<168.897 250.06> 284 29<174.241 259.479> 361 21G<278.5 311.5> 361 21G<278.5 311.5> 479 26<186.027 264.65>
VStem: 25 94<118.815 243.191 259 365.265> 236 118<374.339 465.396> 293 94<77.4586 245.983>
LayerCount: 2
Fore
SplineSet
236 420 m 256xee
 236 449 256 467 266 472 c 257
 259 476 248 479 233 479 c 256
 151 479 119 383 119 296 c 258
 119 259 l 257
 136 281 180 313 236 313 c 256xee
 319 313 387 260 387 160 c 256xed
 387 61 312 -5 213 -5 c 256
 91 -5 25 103 25 245 c 256
 25 385 100 505 233 505 c 256
 301 505 354 466 354 420 c 256
 354 387 328 361 295 361 c 256
 262 361 236 387 236 420 c 256xee
221 284 m 256
 187 284 119 250 119 186 c 258
 119 150 l 258
 119 89 148 21 211 21 c 256
 267 21 293 73 293 157 c 256xcd
 293 241 268 284 221 284 c 256
EndSplineSet
Validated: 1
PickledDataWithLists: "(dp0
Vcom.fontlab.hintData
p1
(dp2
Vhhints
p3
(lp4
(dp5
Vposition
p6
I-5
sVwidth
p7
I26
sa(dp8
g6
I284
sg7
I29
sa(dp9
g6
I479
sg7
I26
sasVvhints
p10
(lp11
(dp12
g6
I25
sg7
I94
sa(dp13
g6
I236
sg7
I118
sa(dp14
g6
I293
sg7
I94
sass."
EndChar

StartChar: seven
Encoding: 55 55 16
GlifName: seven
Width: 377
VWidth: 0
GlyphClass: 2
Flags: W
HStem: 330 21G<30 58> 330 21G<30 58> 352 94<211.772 315.926> 404 89<80.0795 178.44> 485 20G<30 56 342.5 372> 485 20G<30 56 342.5 372>
VStem: 30 26<330 381.395 434 505> 346 26<471.661 505>
LayerCount: 2
Fore
SplineSet
326 386 m 257x2b
 309 361 289 352 265 352 c 256x2b
 219 352 159 404 109 404 c 256x13
 73 404 60 375 56 330 c 257
 30 330 l 257
 30 505 l 257
 56 505 l 257x8b
 56 434 l 257
 72 471 96 493 131 493 c 256x13
 189 493 228 446 282 446 c 256
 325 446 339 470 346 505 c 257
 372 505 l 257
 372 259 223 209 223 -6 c 257
 200.95 0.710822 179.59 3.51554 159.8 3.51554 c 256
 138.304 3.51554 118.661 0.206556 102 -5 c 257
 102 180 267 228 326 386 c 257x2b
EndSplineSet
Validated: 1
PickledDataWithLists: "(dp0
Vcom.fontlab.hintData
p1
(dp2
Vhhints
p3
(lp4
(dp5
Vposition
p6
I352
sVwidth
p7
I94
sa(dp8
g6
I404
sg7
I89
sa(dp9
g6
I485
sg7
I20
sasVvhints
p10
(lp11
(dp12
g6
I30
sg7
I26
sa(dp13
g6
I346
sg7
I26
sass."
EndChar

StartChar: eight
Encoding: 56 56 17
GlifName: eight
Width: 418
VWidth: 0
GlyphClass: 2
Flags: W
HStem: -5 30<134.758 277.307> 475 30<150.469 272.117>
VStem: 25 58<62.9275 182.221> 46 76<336.5 433.589> 314 55<330.244 443.727> 316 77<74.959 152.894>
LayerCount: 2
Fore
SplineSet
122 407 m 256xd8
 122 367 194 337 263 298 c 257
 297 321 314 350 314 389 c 256
 314 437 278 475 207 475 c 256
 147 475 122 440 122 407 c 256xd8
316 101 m 256xe4
 316 168 233 193 159 229 c 257
 110 203 83 171 83 123 c 256
 83 75 115 25 207 25 c 256
 295 25 316 67 316 101 c 256xe4
133 243 m 257
 85 270 46 306 46 367 c 256
 46 443 124 505 207 505 c 256
 293 505 369 457 369 389 c 256xd8
 369 342 335 309 288 284 c 257
 344 250 393 208 393 147 c 256
 393 57 303 -5 207 -5 c 256
 103 -5 25 56 25 120 c 256
 25 179 73 216 133 243 c 257
EndSplineSet
Validated: 1
PickledDataWithLists: "(dp0
Vcom.fontlab.hintData
p1
(dp2
Vhhints
p3
(lp4
(dp5
Vposition
p6
I-5
sVwidth
p7
I30
sa(dp8
g6
I475
sg7
I30
sasVvhints
p9
(lp10
(dp11
g6
I25
sg7
I58
sa(dp12
g6
I46
sg7
I76
sa(dp13
g6
I314
sg7
I55
sa(dp14
g6
I316
sg7
I77
sass."
EndChar

StartChar: nine
Encoding: 57 57 18
GlifName: nine
Width: 408
VWidth: 0
GlyphClass: 2
Flags: W
HStem: -5 26<135.238 207.629> 116 20G<88.5 121.5> 187 29<158.567 250.731> 479 26<158.876 242.098>
VStem: 25 94<256.208 420.308> 46 118<31.4044 122.661> 293 94<158.973 232 246.891 397.471>
LayerCount: 2
Fore
SplineSet
134 26 m 257xf6
 142 23 151 21 159 21 c 256
 241 21 293 108 293 218 c 258
 293 232 l 257
 276 210 237 187 191 187 c 256
 104 187 25 236 25 334 c 256xfa
 25 438 100 505 199 505 c 256
 314 505 387 420 387 290 c 256
 387 119 292 -5 159 -5 c 256
 105 -5 46 24 46 77 c 256
 46 110 72 136 105 136 c 256
 138 136 164 110 164 77 c 256
 164 48 146 32 134 26 c 257xf6
206 216 m 256
 240 216 293 246 293 302 c 258
 293 350 l 258
 293 411 264 479 201 479 c 256
 145 479 119 432 119 337 c 256
 119 250 156 216 206 216 c 256
EndSplineSet
Validated: 1
PickledDataWithLists: "(dp0
Vcom.fontlab.hintData
p1
(dp2
Vhhints
p3
(lp4
(dp5
Vposition
p6
I-5
sVwidth
p7
I26
sa(dp8
g6
I116
sg7
I20
sa(dp9
g6
I187
sg7
I29
sa(dp10
g6
I479
sg7
I26
sasVvhints
p11
(lp12
(dp13
g6
I25
sg7
I94
sa(dp14
g6
I46
sg7
I118
sa(dp15
g6
I293
sg7
I94
sass."
EndChar

StartChar: colon
Encoding: 58 58 19
GlifName: colon
Width: 202
VWidth: 0
GlyphClass: 2
Flags: W
HStem: -95 190<58.0566 143.887>
VStem: 0 24<-575 -523.761 -396.996 -90.7285> 174 30<-287.017 -105.653>
LayerCount: 2
Fore
SplineSet
35 -397 m 256
 57 -397 73 -390 93 -376 c 256
 134 -347 174 -286 174 -205 c 256
 174 -154 162 -107 147 -71 c 257
 125 -86 100 -95 73 -95 c 256
 62 -95 51 -93 41 -89 c 256
 36 -86 24 -91 24 -96 c 258
 24 -388 l 258
 24 -392 29 -397 35 -397 c 256
0 -575 m 257
 0 -27 l 258
 0 37 61 95 128 95 c 256
 167 95 202 68 202 26 c 256
 202 -3 189 -30 169 -52 c 257
 183 -81 204 -141 204 -204 c 256
 204 -354 101 -432 51 -496 c 256
 36 -515 25 -549 25 -575 c 257
 0 -575 l 257
EndSplineSet
Validated: 1
PickledDataWithLists: "(dp0
Vcom.fontlab.hintData
p1
(dp2
Vhhints
p3
(lp4
(dp5
Vposition
p6
I-95
sVwidth
p7
I190
sasVvhints
p8
(lp9
(dp10
g6
I0
sg7
I24
sa(dp11
g6
I174
sg7
I30
sass."
EndChar

StartChar: semicolon
Encoding: 59 59 20
GlifName: semicolon
Width: 202
VWidth: 0
GlyphClass: 2
Flags: W
HStem: -95 190<59.623 143.943> 555 20G<178 203>
VStem: 178 24<90.7285 396.996 523.761 575> 352 30<107.571 287.017>
LayerCount: 2
Fore
SplineSet
0 -26 m 256
 0 37 62 95 129 95 c 256
 140 95 151 93 161 89 c 256
 166 86 178 91 178 96 c 258
 178 575 l 257
 203 575 l 257
 203 549 214 515 229 496 c 256
 279 432 382 354 382 204 c 256
 382 133 355 66 342 42 c 257
 317 54 l 257
 335 91 352 146 352 205 c 256
 352 286 312 347 271 376 c 256
 251 390 235 397 213 397 c 256
 207 397 202 392 202 388 c 258
 202 27 l 258
 202 -37 141 -95 74 -95 c 256
 35 -95 0 -68 0 -26 c 256
EndSplineSet
Validated: 1
PickledDataWithLists: "(dp0
Vcom.fontlab.hintData
p1
(dp2
Vhhints
p3
(lp4
(dp5
Vposition
p6
I-95
sVwidth
p7
I190
sa(dp8
g6
I555
sg7
I20
sasVvhints
p9
(lp10
(dp11
g6
I178
sg7
I24
sa(dp12
g6
I352
sg7
I30
sass."
EndChar

StartChar: greater
Encoding: 62 62 21
GlifName: greater
Width: 373
VWidth: 0
GlyphClass: 2
Flags: W
HStem: -148 296
LayerCount: 2
Fore
SplineSet
362 -8 m 258
 14 -148 l 257
 0 -113 l 257
 252 -11 l 258
 258 -8 259 -4 259 0 c 256
 259 4 257 9 250 11 c 258
 0 113 l 257
 14 148 l 257
 362 8 l 258
 370 5 373 3 373 0 c 256
 373 -2 369 -5 362 -8 c 258
EndSplineSet
Validated: 1
PickledDataWithLists: "(dp0
Vcom.fontlab.hintData
p1
(dp2
Vhhints
p3
(lp4
(dp5
Vposition
p6
I128
sVwidth
p7
I20
sass."
EndChar

StartChar: question
Encoding: 63 63 22
GlifName: question
Width: 789
VWidth: 0
GlyphClass: 2
Flags: W
HStem: -650 36<-7.16667 43.8171> -174 108<691.676 777.736> 74 108<691.676 777.736> 235 35<188.65 354>
VStem: 14 65.5509<-12 125.429> 477 123<-180.423 75.9453> 681 108<-162.537 -77.4629 85.4629 170.537>
LayerCount: 2
Fore
SplineSet
136 114 m 256
 199 114 249 64 249 1 c 256
 249 -62 199 -112 136 -112 c 256
 71 -112 14 -59 14 35 c 256
 14 154 126 270 292 270 c 256
 488 270 600 134 600 -52 c 256
 600 -357 255 -618 -6 -650 c 257
 -12 -614 l 257
 279 -550 477 -344 477 -32 c 256
 477 123 417 235 271 235 c 256
 180 235 112 188 81 131 c 256
 79.9947 129.157 79.5509 127.146 79.5509 125.093 c 256
 79.5509 116.142 87.9893 106.403 95.119 106.403 c 256
 96.1136 106.403 97.0828 106.592 98 107 c 256
 106 110 121 114 136 114 c 256
681 -120 m 256
 681 -90 705 -66 735 -66 c 256
 763 -66 789 -90 789 -120 c 256
 789 -150 763 -174 735 -174 c 256
 705 -174 681 -150 681 -120 c 256
681 128 m 256
 681 158 705 182 735 182 c 256
 763 182 789 158 789 128 c 256
 789 98 763 74 735 74 c 256
 705 74 681 98 681 128 c 256
EndSplineSet
Validated: 1
PickledDataWithLists: "(dp0
Vcom.fontlab.hintData
p1
(dp2
Vhhints
p3
(lp4
(dp5
Vposition
p6
I-650
sVwidth
p7
I36
sa(dp8
g6
I-174
sg7
I108
sa(dp9
g6
I-112
sg7
I226
sa(dp10
g6
I74
sg7
I108
sa(dp11
g6
I235
sg7
I35
sasVvhints
p12
(lp13
(dp14
g6
I14
sg7
I235
sa(dp15
g6
I477
sg7
I123
sa(dp16
g6
I681
sg7
I108
sass."
EndChar

StartChar: bracketleft
Encoding: 91 91 23
GlifName: bracketleft
Width: 446
VWidth: 0
GlyphClass: 2
Flags: W
HStem: -264 21G<167.012 195.012> 244 11G<83.1873 121.012 167.012 195.012 251.012 279.012 296.012 321.012 325.012 363.012> 255 9G<251.012 279.012 325.012 363.012>
VStem: -0.00024208 32.9996<-113.7 106.765> 167.012 28<-264 -146.668 -68.0879 45.0872 122.912 244> 251.012 28<-244 -122.912 -45.0872 68.0879 146.668 264> 413.024 33<-104.765 115.7>
LayerCount: 2
Fore
SplineSet
325.012 260 m 257x9e
 341.012 275 l 257
 385.012 230 446.012 143 446.012 8 c 256
 446.02 6.92305 446.024 5.84915 446.024 4.77831 c 256
 446.024 -128.385 384.661 -214.359 341.012 -259 c 257
 325.012 -244 l 257
 353.773 -201.355 413.024 -121.334 413.024 4.84235 c 256
 413.024 134.478 354.603 216.124 325.012 260 c 257x9e
121.012 -258 m 257
 105.012 -273 l 257
 61.0117 -228 0.0117035 -141 0.0117035 -6 c 256
 0.00372607 -4.92305 -0.00024208 -3.84915 -0.00024208 -2.7783 c 256
 -0.00024208 130.385 61.3627 216.359 105.012 261 c 257
 121.012 246 l 257
 92.2509 203.355 32.9994 123.334 32.9994 -2.84235 c 256
 32.9994 -132.478 91.4209 -214.124 121.012 -258 c 257
194.012 -56 m 258
 194.012 -64 204.012 -70 212.012 -68 c 258
 241.012 -60 l 258
 247.012 -58 252.012 -52 252.012 -44 c 258
 252.012 56 l 258
 252.012 64 242.012 70 234.012 68 c 258
 205.012 60 l 258
 199.012 58 194.012 52 194.012 44 c 258
 194.012 -56 l 258
168.012 32 m 258
 168.012 40 160.012 47 153.012 45 c 258
 125.012 37 l 257
 125.012 98 l 257
 149.012 104 l 258
 162.012 108 167.012 116 167.012 128 c 258
 167.012 244 l 257
 195.012 244 l 257xde
 195.012 135 l 258
 195.012 127 205.012 121 212.012 123 c 258
 238.012 130 l 258
 248.012 133 251.012 138 251.012 146 c 258
 251.012 264 l 257
 279.012 264 l 257xbe
 279.012 160 l 258
 279.012 152 289.012 145 296.012 147 c 258
 321.012 154 l 257
 321.012 93 l 257
 290.012 84 l 258
 283.012 83 278.012 78 278.012 70 c 258
 278.012 -32 l 258
 278.012 -40 286.012 -47 293.012 -45 c 258
 321.012 -37 l 257
 321.012 -98 l 257
 297.012 -104 l 258
 284.012 -108 279.012 -116 279.012 -128 c 258
 279.012 -244 l 257
 251.012 -244 l 257
 251.012 -135 l 258
 251.012 -127 241.012 -121 234.012 -123 c 258
 208.012 -130 l 258
 198.012 -133 195.012 -138 195.012 -146 c 258
 195.012 -264 l 257
 167.012 -264 l 257
 167.012 -160 l 258
 167.012 -152 157.012 -145 150.012 -147 c 258
 125.012 -154 l 257
 125.012 -93 l 257
 156.012 -84 l 258
 163.012 -83 168.012 -78 168.012 -70 c 258
 168.012 32 l 258
EndSplineSet
Validated: 1
PickledDataWithLists: "(dp0
Vcom.fontlab.hintData
p1
(dp2
Vhhints
p3
(lp4
(dp5
Vposition
p6
I134
sVwidth
p7
I20
sasVvhints
p8
(lp9
(dp10
g6
I0
sg7
I33
sa(dp11
g6
I167
sg7
I28
sa(dp12
g6
I251
sg7
I28
sa(dp13
g6
I413
sg7
I33
sass."
EndChar

StartChar: bracketright
Encoding: 93 93 24
GlifName: bracketright
Width: 414
VWidth: 0
GlyphClass: 2
Flags: W
HStem: -102 73<110 177.781 236.219 304> -25 50<182.043 231.957> 29 73<110 177.781 236.219 304> 116 20G<43 74 340 371>
VStem: 0 29<-68.8292 68.8292> 105 73<-97 -29.2188 29.2188 97> 182 50<-24.9565 24.9565> 236 73<-97 -29.2188 29.2188 97> 385 29<-68.8292 68.8292>
LayerCount: 2
Fore
SplineSet
385 0 m 256
 385 42 369 85 340 123 c 257
 354 136 l 257
 388 102 414 59 414 0 c 256
 414 -59 388 -102 354 -136 c 257
 340 -123 l 257
 369 -85 385 -42 385 0 c 256
29 0 m 256
 29 -42 45 -85 74 -123 c 257
 60 -136 l 257
 26 -102 0 -59 0 0 c 256
 0 59 26 102 60 136 c 257
 74 123 l 257
 45 85 29 42 29 0 c 256
232 0 m 256
 232 -24 254 -29 304 -29 c 257
 305 -59 307 -90 309 -102 c 257
 297 -100 266 -98 236 -97 c 257
 236 -47 231 -25 207 -25 c 256
 183 -25 178 -47 178 -97 c 257
 148 -98 117 -100 105 -102 c 257
 107 -90 109 -59 110 -29 c 257
 160 -29 182 -24 182 0 c 256
 182 24 160 29 110 29 c 257
 109 59 107 90 105 102 c 257
 117 100 148 98 178 97 c 257
 178 47 183 25 207 25 c 256
 231 25 236 47 236 97 c 257
 266 98 297 100 309 102 c 257
 307 90 305 59 304 29 c 257
 254 29 232 24 232 0 c 256
EndSplineSet
Validated: 1
PickledDataWithLists: "(dp0
Vcom.fontlab.hintData
p1
(dp2
Vhhints
p3
(lp4
(dp5
Vposition
p6
I-102
sVwidth
p7
I73
sa(dp8
g6
I-25
sg7
I50
sa(dp9
g6
I29
sg7
I73
sa(dp10
g6
I116
sg7
I20
sasVvhints
p11
(lp12
(dp13
g6
I0
sg7
I29
sa(dp14
g6
I105
sg7
I73
sa(dp15
g6
I182
sg7
I50
sa(dp16
g6
I236
sg7
I73
sa(dp17
g6
I385
sg7
I29
sass."
EndChar

StartChar: underscore
Encoding: 95 95 25
GlifName: underscore
Width: 422
VWidth: 0
GlyphClass: 2
Flags: W
HStem: 0 19<0 423>
LayerCount: 2
Fore
SplineSet
423 19 m 257
 423 0 l 257
 0 0 l 257
 0 19 l 257
 423 19 l 257
EndSplineSet
Validated: 1
PickledDataWithLists: "(dp0
Vcom.fontlab.hintData
p1
(dp2
Vhhints
p3
(lp4
(dp5
Vposition
p6
I0
sVwidth
p7
I19
sass."
EndChar

StartChar: braceleft
Encoding: 123 123 26
GlifName: braceleft
Width: 423
VWidth: 0
GlyphClass: 2
Flags: W
HStem: 85.3405 21.6595<194.446 242.039> 340 9G<83.1873 121.012 150.012 193.012 302.012 340.012> 340 9G<83.1873 121.012 150.012 193.012 302.012 340.012>
VStem: -0.00024208 32.9996<-5.69996 214.765> 150.012 43<107.006 340> 150.012 26<-65.1817 75.1597> 255.257 62.755<-9.30889 81.0238> 390.024 33<-10.7644 209.7>
LayerCount: 2
Fore
SplineSet
302.012 354 m 257x93
 318.012 369 l 257
 362.012 324 423.012 237 423.012 102 c 256
 423.02 100.923 423.024 99.8492 423.024 98.7783 c 256
 423.024 -34.3854 361.661 -120.359 318.012 -165 c 257
 302.012 -150 l 257
 330.773 -107.355 390.024 -27.3336 390.024 98.8423 c 256
 390.024 228.478 331.603 310.124 302.012 354 c 257x93
121.012 -150 m 257
 105.012 -165 l 257
 61.0117 -120 0.0117035 -33 0.0117035 102 c 256
 0.00372607 103.077 -0.00024208 104.151 -0.00024208 105.222 c 256
 -0.00024208 238.385 61.3627 324.359 105.012 369 c 257
 121.012 354 l 257
 92.2509 311.355 32.9994 231.334 32.9994 105.158 c 256
 32.9994 -24.4783 91.4209 -106.124 121.012 -150 c 257
218.624 85.3405 m 256
 202.138002128 85.3405 176.012 73.3091741573 176.012 53 c 258
 176.012 -57 l 258x97
 176.012 -65 188.012 -69 194.012 -65 c 256
 238.064 -33.0405 255.257 -5.55756 255.257 29.6935 c 256
 255.257 63.9633134283 240.74261705 85.3405 218.624 85.3405 c 256
160.012 -123 m 258
 151.012 -130 150.012 -129 150.012 -116 c 258xd7
 150.012 340 l 257
 193.012 340 l 257
 193.012 121 l 258xdb
 193.012 115 204.012 107 210.012 107 c 256
 219.012 107 232.012 114 253.012 114 c 256
 288.012 114 318.012 91 318.012 47 c 256
 318.012 -17 244.012 -54 194.012 -95 c 258
 160.012 -123 l 258
EndSplineSet
Validated: 1
PickledDataWithLists: "(dp0
Vcom.fontlab.hintData
p1
(dp2
Vhhints
p3
(lp4
(dp5
Vposition
p6
I94
sVwidth
p7
I20
sasVvhints
p8
(lp9
(dp10
g6
I0
sg7
I33
sa(dp11
g6
I150
sg7
I43
sa(dp12
g6
I150
sg7
I26
sa(dp13
g6
I390
sg7
I33
sass."
EndChar

StartChar: bar
Encoding: 124 124 27
GlifName: bar
Width: 484
VWidth: 0
GlyphClass: 2
Flags: W
HStem: -3 71<225.081 274.77> 412 69<210.261 260.873>
VStem: 0 70<223.924 271.687> 417 67<206.396 255.668>
LayerCount: 2
Fore
SplineSet
24 274 m 258
 202 451 l 258
 223 472 234 481 245 481 c 256
 256 481 266 472 283 455 c 258
 448 290 l 258
 473 265 484 252 484 240 c 256
 484 227 472 216 452 196 c 258
 271 14 l 258
 260 3 253 -3 245 -3 c 256
 236 -3 226 4 210 20 c 258
 20 211 l 258
 7 223 0 230 0 239 c 256
 0 248 7 257 24 274 c 258
188 390 m 258
 87 288 l 258
 76 277 70 268 70 258 c 256
 70 249 75 240 86 229 c 258
 225 90 l 258
 240.001 74.999 251 68 262 68 c 256
 274 68 286 76 302 92 c 258
 394 184 l 258
 409 200 417 211 417 221 c 256
 417 233 407.44 243.427 390 261 c 258
 260 392 l 258
 246.543 405.561 236 412 225 412 c 256
 214 412 203 404 188 390 c 258
EndSplineSet
Validated: 1
PickledDataWithLists: "(dp0
Vcom.fontlab.hintData
p1
(dp2
Vhhints
p3
(lp4
(dp5
Vposition
p6
I-3
sVwidth
p7
I71
sa(dp8
g6
I412
sg7
I69
sasVvhints
p9
(lp10
(dp11
g6
I0
sg7
I70
sa(dp12
g6
I417
sg7
I67
sass."
EndChar

StartChar: braceright
Encoding: 125 125 28
GlifName: braceright
Width: 697
VWidth: 0
GlyphClass: 2
Flags: W
HStem: -264 21G<184.5 206> -195 21G<80 84.5 612.5 617> -149 62<140 182.993> -95 190<434.623 518.334> 42 61<140 171.859> 87 62<293.007 336> 195 29G<80 84.5 185 207 270 291.5 612.5 617> 244 20G<270 291.5>
VStem: 0 30<-92.2826 92.2826> 183 27<-263.924 -148.201 -66.3594 43.9364 124.094 243.98> 266 27<-243.98 -124.094 -43.9364 66.3594 148.201 263.978> 375 202<-37.2618 37.5247> 667 30<-92.2826 92.2826>
LayerCount: 2
Fore
SplineSet
304 -44 m 256xc7f8
 314.4 -44 324.8 -38.5075 330.806 -38.5075 c 0
 334.04 -38.5075 336 -40.1 336 -45 c 258
 336 -85 l 258
 336 -96 336 -97 317 -103 c 256
 297 -109 294 -116 294 -125 c 256
 294 -176 295 -220 295 -238 c 256
 295 -243 294 -244 288 -244 c 258
 273 -244 l 258
 265 -244 265 -243 265 -237 c 256
 265 -220 266 -176 266 -137 c 256
 266 -122 259 -120 248 -123 c 258
 224 -130 l 258
 213 -133 210 -137 210 -155 c 256
 210 -203 211 -234 211 -255 c 256
 211 -263 210 -264 202 -264 c 258
 187 -264 l 258
 182 -264 181 -262 181 -256 c 256
 181 -227 183 -183 183 -160 c 256
 183 -150 174 -145 159 -149 c 256
 140 -154 140 -152 140 -141 c 258
 140 -104 l 258
 140 -92 140 -93 161 -87 c 256
 180 -82 183 -75 183 -66 c 258
 183 28 l 258
 183 38 180 44 172 44 c 256
 169 44 165 43 161 42 c 256
 140 36 140 37 140 45 c 258
 140 85 l 258
 140 97 140 97 159 103 c 256xebf8
 177 108 182 116 182 125 c 256
 182 176 181 220 181 238 c 256
 181 243 182 244 188 244 c 258
 203 244 l 258
 211 244 211 243 211 237 c 256
 211 220 210 176 210 137 c 256
 210 122 217 120 228 123 c 258
 252 130 l 258
 263 133 266 137 266 155 c 256
 266 203 265 235 265 256 c 256
 265 264 266 264 274 264 c 258
 289 264 l 258
 294 264 295 262 295 256 c 256
 295 227 293 183 293 160 c 256
 293 150 302 145 317 149 c 256
 335 154 336 153 336 145 c 258
 336 106 l 258
 336 94 335 93 315 87 c 256
 296 82 293 75 293 66 c 258
 293 -28 l 258
 293 -38 296 -44 304 -44 c 256xc7f8
266 55 m 258
 266 64 265 72 250 68 c 258
 225 61 l 258
 210 57 210 48 210 38 c 258
 210 -55 l 258
 210 -64 211 -72 226 -68 c 258
 251 -61 l 258
 266 -57 266 -48 266 -38 c 258
 266 55 l 258
667 0 m 256
 667 83 638 127 612 168 c 256
 608 174 606 180 606 184 c 256
 606 191 610 195 615 195 c 256
 619 195 625 192 631 185 c 256
 665 145 697 87 697 0 c 256
 697 -87 665 -145 631 -185 c 256
 625 -192 619 -195 615 -195 c 256
 610 -195 606 -191 606 -184 c 256
 606 -180 608 -174 612 -168 c 256
 638 -127 667 -83 667 0 c 256
30 0 m 256
 30 -83 59 -127 85 -168 c 256
 89 -174 91 -180 91 -184 c 256
 91 -191 87 -195 82 -195 c 256
 78 -195 72 -192 66 -185 c 256
 32 -145 0 -87 0 0 c 256
 0 87 32 145 66 185 c 256
 72 192 78 195 82 195 c 256
 87 195 91 191 91 184 c 256
 91 180 89 174 85 168 c 256
 59 127 30 83 30 0 c 256
375 -26 m 256
 375 37 437 95 504 95 c 256
 543 95 577 69 577 27 c 256
 577 -37 516 -95 449 -95 c 256xd3f8
 410 -95 375 -68 375 -26 c 256
EndSplineSet
Validated: 1
PickledDataWithLists: "(dp0
Vcom.fontlab.hintData
p1
(dp2
Vhhints
p3
(lp4
(dp5
Vposition
p6
I-195
sVwidth
p7
I21
sa(dp8
g6
I-149
sg7
I62
sa(dp9
g6
I-103
sg7
I61
sa(dp10
g6
I-95
sg7
I190
sa(dp11
g6
I42
sg7
I61
sa(dp12
g6
I87
sg7
I62
sa(dp13
g6
I175
sg7
I20
sasVvhints
p14
(lp15
(dp16
g6
I0
sg7
I30
sa(dp17
g6
I183
sg7
I27
sa(dp18
g6
I266
sg7
I27
sa(dp19
g6
I375
sg7
I202
sa(dp20
g6
I667
sg7
I30
sass."
EndChar

StartChar: uni007F
Encoding: 127 127 29
GlifName: uni007F_
Width: 720
VWidth: 0
GlyphClass: 2
Flags: W
HStem: -195 21G<80 84.5 635.5 640> -101 72<132.681 201.558 260.442 329.219> -25 50<206.296 255.704> 29 72<132.781 201.558 260.442 329.319> 175 20G<80 84.5 635.5 640>
VStem: 0 30<-92.2826 92.2826> 130 72<-98.2191 -29.442 29.442 98.3194> 206 50<-24.7038 24.7038> 260 72<-98.3194 -29.442 29.442 98.2191> 398 202<-37.2618 37.5247> 690 30<-92.2826 92.2826>
LayerCount: 2
Fore
SplineSet
256 0 m 256
 256 -21 275 -29 310 -29 c 258
 314 -29 l 258
 324 -29 329 -30 329 -40 c 256
 329 -54 332 -88 332 -93 c 256
 332 -99 332 -101 324 -101 c 256
 319 -101 285 -98 271 -98 c 256
 262 -98 260 -93 260 -83 c 258
 260 -79 l 258
 260 -44 252 -25 231 -25 c 256
 210 -25 202 -44 202 -79 c 258
 202 -83 l 258
 202 -93 201 -98 191 -98 c 256
 177 -98 143 -101 138 -101 c 256
 132 -101 130 -101 130 -93 c 256
 130 -88 133 -54 133 -40 c 256
 133 -31 138 -29 148 -29 c 258
 152 -29 l 258
 187 -29 206 -21 206 0 c 256
 206 21 187 29 152 29 c 258
 148 29 l 258
 138 29 133 30 133 40 c 256
 133 54 130 88 130 93 c 256
 130 99 130 101 138 101 c 256
 143 101 177 98 191 98 c 256
 200 98 202 93 202 83 c 258
 202 79 l 258
 202 44 210 25 231 25 c 256
 252 25 260 44 260 79 c 258
 260 83 l 258
 260 93 261 98 271 98 c 256
 285 98 319 101 324 101 c 256
 330 101 332 101 332 93 c 256
 332 88 329 54 329 40 c 256
 329 31 324 29 314 29 c 258
 310 29 l 258
 275 29 256 21 256 0 c 256
690 0 m 256
 690 83 661 127 635 168 c 256
 631 174 629 180 629 184 c 256
 629 191 633 195 638 195 c 256
 642 195 648 192 654 185 c 256
 688 145 720 87 720 0 c 256
 720 -87 688 -145 654 -185 c 256
 648 -192 642 -195 638 -195 c 256
 633 -195 629 -191 629 -184 c 256
 629 -180 631 -174 635 -168 c 256
 661 -127 690 -83 690 0 c 256
30 0 m 256
 30 -83 59 -127 85 -168 c 256
 89 -174 91 -180 91 -184 c 256
 91 -191 87 -195 82 -195 c 256
 78 -195 72 -192 66 -185 c 256
 32 -145 0 -87 0 0 c 256
 0 87 32 145 66 185 c 256
 72 192 78 195 82 195 c 256
 87 195 91 191 91 184 c 256
 91 180 89 174 85 168 c 256
 59 127 30 83 30 0 c 256
398 -26 m 256
 398 37 460 95 527 95 c 256
 566 95 600 69 600 27 c 256
 600 -37 539 -95 472 -95 c 256
 433 -95 398 -68 398 -26 c 256
EndSplineSet
Validated: 1
PickledDataWithLists: "(dp0
Vcom.fontlab.hintData
p1
(dp2
Vhhints
p3
(lp4
(dp5
Vposition
p6
I-195
sVwidth
p7
I21
sa(dp8
g6
I-101
sg7
I72
sa(dp9
g6
I-25
sg7
I50
sa(dp10
g6
I29
sg7
I72
sa(dp11
g6
I175
sg7
I20
sasVvhints
p12
(lp13
(dp14
g6
I0
sg7
I30
sa(dp15
g6
I130
sg7
I72
sa(dp16
g6
I206
sg7
I50
sa(dp17
g6
I260
sg7
I72
sa(dp18
g6
I398
sg7
I202
sa(dp19
g6
I690
sg7
I30
sass."
EndChar

StartChar: uni0081
Encoding: 129 129 30
GlifName: uni0081
Width: 555
VWidth: 0
GlyphClass: 2
Flags: W
HStem: -143 100<146.559 233.258 322.742 409.441> -30 60<248.467 307.118> 43 100<146.559 233.258 322.742 409.441> 180 20G<61.2514 96 459 494.466>
VStem: -0.0179269 30.9957<-87.9431 90.9948> 135 100<-131.441 -44.7423 44.7423 131.441> 248 59.982<-29.1177 28.9882> 321 100<-131.441 -44.7423 44.7423 131.441> 524.022 30.996<-90.9948 87.9431>
LayerCount: 2
Fore
SplineSet
555.018 -3.1168 m 256
 555.018 -88.6016 514.497 -154.551 473 -200 c 257
 459 -186 l 257
 491.511 -144.622 524.022 -84.8033 524.022 -3.67462 c 256
 524.022 -2.45457 524.015 -1.2297 524 0 c 256
 524 83 492 144 459 186 c 257
 473 200 l 257
 515.932 152.979 555.018 86.0635 555.018 -3.1168 c 256
-0.0179269 3.1168 m 256
 -0.0179269 88.6016 40.5029 154.551 82 200 c 257
 96 186 l 257
 63.4889 144.622 30.9778 84.8033 30.9778 3.67462 c 256
 30.9778 2.45457 30.9852 1.2297 31 0 c 256
 31 -83 63 -144 96 -186 c 257
 82 -200 l 257
 39.0681 -152.979 -0.0179269 -86.0635 -0.0179269 3.1168 c 256
307.982 -1.02146 m 256
 307.982 -28.3646 347.758 -43 409 -43 c 257
 412 -80 418 -128 421 -143 c 257
 406 -140 358 -134 321 -131 c 257
 321 -69 306 -30 278 -30 c 256
 249 -30 235 -69 235 -131 c 257
 198 -134 150 -140 135 -143 c 257
 138 -128 144 -80 147 -43 c 257
 209 -43 248 -28 248 0 c 256
 248 28 209 43 147 43 c 257
 144 80 138 128 135 143 c 257
 150 140 198 134 235 131 c 257
 235 69 249 30 278 30 c 256
 306 30 321 69 321 131 c 257
 358 134 406 140 421 143 c 257
 418 128 412 80 409 43 c 257
 346.153 43 307.982 28.1261 307.982 -1.02146 c 256
EndSplineSet
Validated: 1
PickledDataWithLists: "(dp0
Vcom.fontlab.hintData
p1
(dp2
Vhhints
p3
(lp4
(dp5
Vposition
p6
I-143
sVwidth
p7
I100
sa(dp8
g6
I-30
sg7
I60
sa(dp9
g6
I43
sg7
I100
sasVvhints
p10
(lp11
(dp12
g6
I0
sg7
I31
sa(dp13
g6
I135
sg7
I100
sa(dp14
g6
I248
sg7
I60
sa(dp15
g6
I321
sg7
I100
sa(dp16
g6
I524
sg7
I31
sass."
EndChar

StartChar: uni0082
Encoding: 130 130 31
GlifName: uni0082
Width: 953
VWidth: 0
GlyphClass: 2
Flags: W
HStem: -194 31<153.658 203.16 419.381 515.546 608.004 688.664> -37 38<725.832 799.762> -8 25<52.8296 138.284> 82 20G<30 51> 97 60G<182.5 198.5 512.5 518 568 592.5> 207 31<260.144 343.289 451.699 533.683> 224 49<608.674 690.5 815.348 871.835> 235 24<97.5729 175.336> 305 21G<568 592.5> 399 27<516.223 567.084>
VStem: 0 51<18.8619 83.2128> 43 37<170.459 223.391> 90 63<-160.699 -93.7197> 156 42<28.1294 97.8661> 177 48<172.793 233.831> 568 60<335.403 398.6> 667 46<57 201> 875 77<95.3708 223.708>
LayerCount: 2
Fore
SplineSet
689 -174 m 256xc2c9c0
 689 -187 682 -194 669 -194 c 258
 429 -194 l 258
 421 -194 419 -190 419 -184 c 256
 419 -171 424 -163 437 -163 c 258
 479 -163 l 258
 508 -163 513 -155 523 -133 c 258
 646 135 l 258
 658 161 667 185 667 201 c 256
 667 215 661 224 644 224 c 256
 606 224 566 158 535 93 c 256
 529 81 521 76 515 76 c 256
 510 76 505 80 505 88 c 256
 505 92 506 97 509 103 c 256
 545 186 588 273 678 273 c 256
 703 273 723 260 736 242 c 256
 746 228 752 221 761 221 c 256
 768 221 776 225 788 234 c 256
 815 254 843 269 869 269 c 256
 911 269 952 247 952 178 c 256
 952 75 875 -37 776 -37 c 256
 743 -37 725.667 -25.333 711 -11 c 256
 701.378 -1.59668 693 2 686 2 c 256
 676 2 670 -8 664 -21 c 258
 615 -129 l 258
 611 -138 608 -145 608 -151 c 256
 608 -159 614 -163 628 -163 c 258
 677 -163 l 258
 686 -163 689 -168 689 -174 c 256xc2c9c0
845 225 m 256
 792 225 713 133 713 57 c 256
 713 29 734 1 758 1 c 256
 816 1 875 112 875 184 c 256
 875 213 862 225 845 225 c 256
546 426 m 256
 590.333 426 628 398 628 357 c 256
 628 328 607 305 578 305 c 256
 558 305 541 319 541 339 c 256
 541 374 568 377 568 389 c 256
 568 396 559 399 550 399 c 256
 511 399 485 359 455 274 c 256
 452.737 266.646 451.594 260.572 451.594 255.642 c 256
 451.594 243.143 458.94 238 474 238 c 258
 524 238 l 258
 532 238 538 236 534 223 c 256
 530 211 525 207 514 207 c 258
 468 207 l 258
 446 207 434 204 427 177 c 258
 417 141 l 258
 365 -49 271.5 -189 171 -189 c 256
 125 -189 90 -158 90 -116 c 256
 90 -87 111 -62 140 -62 c 256
 161 -62 181 -75 181 -98 c 256
 181 -137 153 -137 153 -151 c 256
 153 -157 157 -161 168 -161 c 256
 240 -161 282 -16 328 136 c 257
 342 180 l 258
 343.158 184.632 344.065 188.845 344.065 192.493 c 256
 344.065 201.447 338.604 207 318 207 c 258
 270 207 l 258
 262 207 256 211 260 225 c 256
 263 237 270 238 282 238 c 258
 330 238 l 258x84c9c0
 355 238 363 245 373 268 c 256
 413 364 466 426 546 426 c 256
142 235 m 256xa9dbc0
 107 235 80 219 80 195 c 256xa9dbc0
 80 176 109 163 130 153 c 256
 166 136 198 114 198 74 c 256
 198 18 148 -8 90 -8 c 256
 41 -8 0 11 0 54 c 256
 0 81 18 102 42 102 c 256
 60 102 71 88 71 71 c 256
 71 52 51 48 51 35 c 256
 51 19 76 17 94 17 c 256
 129 17 156 35 156 61 c 256xb1edc0
 156 89 135 101 101 116 c 256
 69 130 43 149 43 183 c 256
 43 233 93 259 145 259 c 256
 190 259 225 236 225 196 c 256
 225 170 207 157 190 157 c 256
 175 157 159 168 159 185 c 256
 159 203 177 207 177 218 c 256
 177 230 163 235 142 235 c 256xa9dbc0
EndSplineSet
Validated: 1
PickledDataWithLists: "(dp0
Vcom.fontlab.hintData
p1
(dp2
Vhhints
p3
(lp4
(dp5
Vposition
p6
I-194
sVwidth
p7
I31
sa(dp8
g6
I-37
sg7
I38
sa(dp9
g6
I-8
sg7
I25
sa(dp10
g6
I82
sg7
I20
sa(dp11
g6
I157
sg7
I21
sa(dp12
g6
I207
sg7
I31
sa(dp13
g6
I224
sg7
I49
sa(dp14
g6
I235
sg7
I24
sa(dp15
g6
I399
sg7
I27
sasVvhints
p16
(lp17
(dp18
g6
I0
sg7
I51
sa(dp19
g6
I43
sg7
I37
sa(dp20
g6
I90
sg7
I63
sa(dp21
g6
I156
sg7
I42
sa(dp22
g6
I177
sg7
I48
sa(dp23
g6
I568
sg7
I60
sa(dp24
g6
I667
sg7
I46
sa(dp25
g6
I875
sg7
I77
sass."
EndChar

StartChar: uni0083
Encoding: 131 131 32
GlifName: uni0083
Width: 425
VWidth: 0
GlyphClass: 2
Flags: W
HStem: -388 25<121.539 227.043> 88 21<223.094 321.325>
VStem: 0 66<-317.527 -198.748> 82 93<-36.0294 44.382> 281 87<-311.229 -206.403> 370 55<-53.7559 55.6208>
LayerCount: 2
Fore
SplineSet
317 -135 m 256
 352 -171 368 -209 368 -244 c 256
 368 -324 289 -388 166 -388 c 256
 66 -388 0 -320 0 -251 c 256
 0 -202 32 -154 107 -128 c 256
 122 -123 127 -119 127 -113 c 256
 127 -108 124 -102 118 -96 c 256
 93 -69 82 -42 82 -15 c 256
 82 53 156 109 276 109 c 256
 363 109 425 57 425 0 c 256
 425 -39 394 -81 321 -108 c 256
 313 -112 309 -116 309 -120 c 256
 309 -124 312 -129 317 -135 c 256
298 -89 m 256
 349 -67 370 -33 370 0 c 256
 370 49 332 88 276 88 c 256
 214 88 175 54 175 16 c 256
 175 -14 199 -50 252 -83 c 256
 263 -90 271 -95 278 -95 c 256
 284 -95 290 -93 298 -89 c 256
148 -153 m 256
 90 -178 66 -221 66 -262 c 256
 66 -314 108 -363 172 -363 c 256
 243 -363 281 -316 281 -266 c 256
 281 -216 243 -183 198 -156 c 256
 187 -150 180 -147 172 -147 c 256
 164 -147 158 -149 148 -153 c 256
EndSplineSet
Validated: 1
PickledDataWithLists: "(dp0
Vcom.fontlab.hintData
p1
(dp2
Vhhints
p3
(lp4
(dp5
Vposition
p6
I-388
sVwidth
p7
I25
sa(dp8
g6
I88
sg7
I21
sasVvhints
p9
(lp10
(dp11
g6
I0
sg7
I66
sa(dp12
g6
I82
sg7
I93
sa(dp13
g6
I281
sg7
I87
sa(dp14
g6
I370
sg7
I55
sass."
EndChar

StartChar: uni0084
Encoding: 132 132 33
GlifName: uni0084
Width: 619
VWidth: 0
GlyphClass: 2
Flags: W
HStem: -189 28<216.658 266.16> 207 31<323.144 406.289 514.699 596.683> 224 30<180.812 241.999> 305 21G<631 655.5> 305 21G<631 655.5> 399 27<579.223 630.084>
VStem: 25 53<3.28714 19> 153 63<-160.699 -93.7197> 222 64<170.513 223.808> 631 60<335.403 398.6>
LayerCount: 2
Fore
SplineSet
609 426 m 256xd7c0
 653.333 426 691 398 691 357 c 256
 691 328 670 305 641 305 c 256
 621 305 604 319 604 339 c 256
 604 374 631 377 631 389 c 256
 631 396 622 399 613 399 c 256
 574 399 548 359 518 274 c 256
 515.737 266.646 514.594 260.572 514.594 255.642 c 256
 514.594 243.143 521.94 238 537 238 c 258
 587 238 l 258
 595 238 601 236 597 223 c 256
 593 211 588 207 577 207 c 258
 531 207 l 258
 509 207 497 204 490 177 c 258
 480 141 l 258
 428 -49 334.5 -189 234 -189 c 256
 188 -189 153 -158 153 -116 c 256
 153 -87 174 -62 203 -62 c 256
 224 -62 244 -75 244 -98 c 256
 244 -137 216 -137 216 -151 c 256
 216 -157 220 -161 231 -161 c 256
 303 -161 345 -16 391 136 c 257
 405 180 l 258
 406.158 184.632 407.065 188.845 407.065 192.493 c 256
 407.065 201.447 401.604 207 381 207 c 258
 333 207 l 258
 325 207 319 211 323 225 c 256
 326 237 333 238 345 238 c 258
 393 238 l 258
 418 238 426 245 436 268 c 256
 476 364 529 426 609 426 c 256xd7c0
229 254 m 256xa7c0
 262 254 286 232 286 198 c 256
 286 168 267 152 243 152 c 256
 223 152 208 164 208 183 c 256
 208 203 222 210 222 219 c 256
 222 222 219 224 216 224 c 256
 164 224 118 124 101 80 c 258
 78 19 l 258
 71 3 72 -1 65 -1 c 256
 58 -1 57 3 49 3 c 256
 39 3 38 -1 30 -1 c 256
 27 -1 25 1 25 4 c 256
 25 6 26 10 28 14 c 258
 91 184 l 258
 94 192 95 198 95 203 c 256
 95 213 90 217 83 217 c 256
 62 217 45 192 22 147 c 256
 18 140 13 136 8 136 c 256
 3 136 0 140 0 148 c 256
 0 151 0 155 2 159 c 256
 21 212 57 254 97 254 c 256
 118 254 129 245 136 233 c 256
 140 227 144 223 149 223 c 256
 153 223 157 225 163 230 c 256
 182 243 205 254 229 254 c 256xa7c0
EndSplineSet
Validated: 1
PickledDataWithLists: "(dp0
Vcom.fontlab.hintData
p1
(dp2
Vhhints
p3
(lp4
(dp5
Vposition
p6
I-189
sVwidth
p7
I28
sa(dp8
g6
I207
sg7
I31
sa(dp9
g6
I224
sg7
I30
sa(dp10
g6
I399
sg7
I27
sasVvhints
p11
(lp12
(dp13
g6
I25
sg7
I53
sa(dp14
g6
I153
sg7
I63
sa(dp15
g6
I222
sg7
I64
sa(dp16
g6
I631
sg7
I60
sass."
EndChar

StartChar: uni0085
Encoding: 133 133 34
GlifName: uni0085
Width: 268
VWidth: 0
GlyphClass: 2
Flags: W
HStem: 317 176G<9.5 21.5 245 258.5> 317 20G<9.5 21.5>
VStem: 0 35<233.458 336.902>
LayerCount: 2
Fore
SplineSet
24 16 m 258xa0
 0 323 l 257
 0 326 l 258
 0 336 5 337 14 337 c 256x60
 29 337 33 334 35 305 c 258
 48 137 l 258
 49 128 51 111 57 111 c 256
 61 111 67 117 75 135 c 258
 228 468 l 258
 239 492 241 493 249 493 c 258
 253 493 l 258
 264 493 268 490 268 485 c 256
 268 481 266 475 263 468 c 258
 53 16 l 258
 48 4 40 -11 34 -11 c 256
 29 -11 26 -4 24 16 c 258xa0
EndSplineSet
Validated: 1
PickledDataWithLists: "(dp0
Vcom.fontlab.hintData
p1
(dp2
Vhhints
p3
(lp4
(dp5
Vposition
p6
I473
sVwidth
p7
I20
sasVvhints
p8
(lp9
(dp10
g6
I0
sg7
I35
sass."
EndChar

StartChar: uni0086
Encoding: 134 134 35
GlifName: uni0086
Width: 548
VWidth: 0
GlyphClass: 2
Flags: W
HStem: -309 32<5.58261 74.2723 148.66 206.275 316.643 401.953> -82 32<352.771 429.603> 25 60<372.655 508.738> 27 71<358.146 434.451>
VStem: 241.967 74<-277.982 -198.449> 446.967 69<-230.26 -93.6427>
LayerCount: 2
Fore
SplineSet
515.967 -162 m 256xdc
 515.967 -262 437.967 -313 357.967 -313 c 256
 291.967 -313 241.967 -276 241.967 -227 c 256
 241.967 -195 262.967 -170 293.967 -170 c 256
 321.967 -170 335.967 -192 335.967 -216 c 256
 335.967 -244 315.967 -255 315.967 -266 c 256
 315.967 -276 332.967 -281 357.967 -281 c 256
 409.967 -281 446.967 -208 446.967 -146 c 256
 446.967 -107 427.967 -82 387.967 -82 c 256
 366.967 -82 337.967 -87 317.967 -94 c 256
 310.967 -96 298.967 -92 301.967 -85 c 256
 323.967 -22 334.967 18 347.967 89 c 256
 348.967 96 352.967 98 356.967 98 c 256xdc
 365.967 98 395.967 85 448.967 85 c 256xec
 487.967 85 533.967 98 542.967 98 c 256xdc
 549.967 98 551.967 92 540.967 76 c 256
 518.967 43 471.967 25 422.967 25 c 256xec
 410.967 25 394.967 27 381.967 27 c 256
 371.967 27 368.967 25 364.967 11 c 256
 359.967 -6 354.967 -20 348.967 -41 c 256
 346.967 -47 346.967 -54 357.967 -54 c 256
 372.967 -54 383.967 -50 412.967 -50 c 256
 473.967 -50 515.967 -99 515.967 -162 c 256xdc
189.967 -309 m 258
 10.9668 -309 l 258
 0.966797 -309 -4.0332 -306 3.9668 -291 c 256
 9.9668 -277 12.9668 -277 21.9668 -277 c 258
 39.9668 -277 l 258
 80.9668 -277 83.9668 -241 95.9668 -206 c 258
 151.967 -36 l 258
 153.669 -30.1634 154.485 -25.5688 154.485 -22.2306 c 256
 154.485 -17.8288 153.067 -15.6115 150.397 -15.6115 c 256
 146.766 -15.6115 140.818 -19.7133 132.967 -28 c 258
 56.9668 -105 l 258
 48.9668 -113 44.9668 -113 35.9668 -104 c 256
 25.9668 -95 29.9668 -91 36.9668 -82 c 258
 182.967 89 l 258
 191.967 99 193.967 101 197.967 101 c 256
 203.967 101 213.967 93 224.967 93 c 256
 237.967 93 244.967 101 252.967 101 c 256
 256.967 101 258.967 99 254.967 87 c 258
 150.967 -244 l 258
 149.324 -248.928 148.431 -253.631 148.431 -257.863 c 256
 148.431 -269.089 154.716 -277 169.967 -277 c 258
 197.967 -277 l 258
 209.967 -277 212.967 -277 206.967 -292 c 256
 199.967 -306 198.967 -309 189.967 -309 c 258
EndSplineSet
Validated: 1
PickledDataWithLists: "(dp0
Vcom.fontlab.hintData
p1
(dp2
Vhhints
p3
(lp4
(dp5
Vposition
p6
I-309
sVwidth
p7
I32
sa(dp8
g6
I-82
sg7
I32
sa(dp9
g6
I25
sg7
I60
sa(dp10
g6
I27
sg7
I71
sasVvhints
p11
(lp12
(dp13
g6
I242
sg7
I74
sa(dp14
g6
I447
sg7
I69
sass."
EndChar

StartChar: uni0087
Encoding: 135 135 36
GlifName: uni0087
Width: 488
VWidth: 0
GlyphClass: 2
Flags: W
HStem: -140 31<197.714 333.643> 108 31<155.312 290.18> 205 20G<8.5 22 466 480>
VStem: 0 127<-26.0781 77.5913> 0 31<-224.999 -83.0059 78.0037 224.999> 361 127<-83.5971 23.7344> 457 31<-224.999 -84.0044 89.0059 224.999>
LayerCount: 2
Fore
SplineSet
323 58 m 258xf4
 307 92 273 108 228 108 c 256
 218 108 207 108 196 106 c 256
 144 98 127 73 127 44 c 256
 127 26 133 7 141 -10 c 258
 165 -59 l 258
 182 -93 215 -109 262 -109 c 256
 271 -109 281 -108 292 -107 c 256
 344 -100 361 -75 361 -45 c 256
 361 -28 355 -9 347 7 c 258
 323 58 l 258xf4
15 225 m 256
 29 225 31 224 31 211 c 258
 31 97 l 258
 31 83 34 78 40 78 c 256
 46 78 53 84 61 90 c 256
 111 128 191 139 249 139 c 256
 300 139 366 130 414 101 c 256
 426 94 436 89 443 89 c 256
 453 89 457 97 457 114 c 258
 457 211 l 258
 457 224 459 225 473 225 c 256
 487 225 488 225 488 210 c 258
 488 -212 l 258
 488 -224 486 -225 473 -225 c 256
 459 -225 457 -224 457 -211 c 258
 457 -106 l 258
 457 -90 453 -84 446 -84 c 256
 440 -84 430 -89 418 -97 c 256
 368 -130 294 -140 239 -140 c 256
 184 -140 109 -129 62 -94 c 256
 53 -87 46 -83 41 -83 c 256
 34 -83 31 -91 31 -110 c 258
 31 -211 l 258
 31 -224 29 -225 15 -225 c 256
 1 -225 0 -225 0 -210 c 258
 0 212 l 258xea
 0 224 2 225 15 225 c 256
EndSplineSet
Validated: 1
PickledDataWithLists: "(dp0
Vcom.fontlab.hintData
p1
(dp2
Vhhints
p3
(lp4
(dp5
Vposition
p6
I-140
sVwidth
p7
I31
sa(dp8
g6
I108
sg7
I31
sasVvhints
p9
(lp10
(dp11
g6
I0
sg7
I127
sa(dp12
g6
I0
sg7
I31
sa(dp13
g6
I361
sg7
I127
sa(dp14
g6
I457
sg7
I31
sass."
EndChar

StartChar: uni0088
Encoding: 136 136 37
GlifName: uni0088
Width: 499
VWidth: 0
GlyphClass: 2
Flags: W
HStem: -132 83<31.3448 467.307> 49 83<32.2573 467.008> 231 20G<8 23 477.5 491>
VStem: 0 31<-249.986 -134.247 -46.6688 46.2636 134.937 250.999> 468 31<-249.998 -134.666 -47.4191 46.3816 134.804 251>
LayerCount: 2
Fore
SplineSet
428 -49 m 258
 465 -49 468 -45 468 -17 c 258
 468 16 l 258
 468 41 461 49 432 49 c 258
 68 49 l 258
 34 49 31 37 31 18 c 258
 31 -23 l 258
 31 -47 50 -49 64 -49 c 258
 428 -49 l 258
70 -132 m 258
 33 -132 31 -141 31 -164 c 258
 31 -234 l 258
 31 -248 29 -250 14 -250 c 256
 0 -250 0 -250 0 -236 c 258
 0 234 l 258
 0 250 1 251 15 251 c 256
 31 251 31 250 31 237 c 258
 31 167 l 258
 31 133 49 132 69 132 c 258
 432 132 l 258
 452 132 468 135 468 165 c 258
 468 238 l 258
 468 251 472 251 483 251 c 256
 499 251 499 251 499 236 c 258
 499 -232 l 258
 499 -250 497 -250 484 -250 c 256
 470 -250 468 -248 468 -234 c 258
 468 -163 l 258
 468 -134 453 -132 428 -132 c 258
 70 -132 l 258
EndSplineSet
Validated: 1
PickledDataWithLists: "(dp0
Vcom.fontlab.hintData
p1
(dp2
Vhhints
p3
(lp4
(dp5
Vposition
p6
I-132
sVwidth
p7
I83
sa(dp8
g6
I49
sg7
I83
sasVvhints
p9
(lp10
(dp11
g6
I0
sg7
I31
sa(dp12
g6
I468
sg7
I31
sass."
EndChar

StartChar: uni0089
Encoding: 137 137 38
GlifName: uni0089
Width: 401
VWidth: 0
GlyphClass: 2
Flags: W
HStem: -33 66<46 346> 83 21G<5.25 63.6732> 385 20G<5.25 63.6732> 385 20G<5.25 63.6732>
LayerCount: 2
Fore
SplineSet
394 236 m 258xe0
 14 83 l 257
 0 115 l 257
 289 232 l 258
 293.146 233.678 295 239 295 244 c 256
 295 250 291.993 254.982 287 257 c 258
 0 373 l 257
 14 405 l 257
 394 252 l 258
 401.926 248.809 405 247 405 244 c 256
 405 242 401.064 238.845 394 236 c 258xe0
46 33 m 257
 346 33 l 257
 346 -33 l 257
 46 -33 l 257
 46 33 l 257
EndSplineSet
Validated: 1
PickledDataWithLists: "(dp0
Vcom.fontlab.hintData
p1
(dp2
Vhhints
p3
(lp4
(dp5
Vposition
p6
I-33
sVwidth
p7
I66
sass."
EndChar

StartChar: uni008A
Encoding: 138 138 39
GlifName: uni008A_
Width: 382
VWidth: 0
GlyphClass: 2
Flags: W
HStem: -30 60<9 369>
LayerCount: 2
Fore
SplineSet
383 -211 m 258
 392.985 -215.036 399 -218 399 -221 c 256
 399 -224 391 -228 381 -232 c 258
 7 -382 l 257
 -7 -346 l 257
 277 -232 l 258
 282 -230 283 -226 283 -221 c 256
 283 -216 281.146 -211.679 277 -210 c 258
 -7 -95 l 257
 7 -59 l 257
 383 -211 l 258
9 -30 m 257
 9 30 l 257
 369 30 l 257
 369 -30 l 257
 9 -30 l 257
EndSplineSet
Validated: 1
PickledDataWithLists: "(dp0
Vcom.fontlab.hintData
p1
(dp2
Vhhints
p3
(lp4
(dp5
Vposition
p6
I-30
sVwidth
p7
I60
sass."
EndChar

StartChar: uni008B
Encoding: 139 139 40
GlifName: uni008B_
Width: 296
VWidth: 0
GlyphClass: 2
Flags: W
HStem: 485 20G<0 100 196 296> 485 20G<0 100 196 296>
VStem: 0 100<-5 505> 196 100<-5 505>
LayerCount: 2
Fore
SplineSet
196 505 m 257xb0
 296 505 l 257
 296 -5 l 257
 196 -5 l 257
 196 505 l 257xb0
0 505 m 257
 100 505 l 257
 100 -5 l 257
 0 -5 l 257
 0 505 l 257
EndSplineSet
Validated: 1
PickledDataWithLists: "(dp0
Vcom.fontlab.hintData
p1
(dp2
Vhhints
p3
(lp4
(dp5
Vposition
p6
I485
sVwidth
p7
I20
sasVvhints
p8
(lp9
(dp10
g6
I0
sg7
I100
sa(dp11
g6
I196
sg7
I100
sass."
EndChar

StartChar: uni008C
Encoding: 140 140 41
GlifName: uni008C_
Width: 745
VWidth: 0
GlyphClass: 2
Flags: W
HStem: 111.515 27.485<236.058 300.032 448.058 512.032> 433 57G<92.1628 132 179 236 391 448 613 653> 433 57G<92.1628 132 179 236 391 448 613 653>
VStem: -0.0105968 34.9967<-11.6136 260.496> 179 57<139.004 490> 179 30<-103.182 95.664> 322.528 98.472<-28.7888 97.6224> 391 57<139.059 490> 391 30<-103.182 -29.1833> 534.528 86.472<-5.93602 97.4355> 710.014 34.997<-10.496 261.614>
LayerCount: 2
Fore
SplineSet
613 437 m 257x9060
 630 453 l 257
 676 398 745 288 745 125 c 256
 745.007 123.847 745.011 122.696 745.011 121.548 c 256
 745.011 -39.5539 675.675 -148.389 630 -203 c 257
 613 -187 l 257
 657.581 -119.633 710.014 -20.859 710.014 120.99 c 256
 710.014 267.183 658.765 367.843 613 437 c 257x9060
132 -187 m 257
 115 -203 l 257
 69 -148 0 -38 0 125 c 256
 -0.00707575 126.153 -0.0105968 127.304 -0.0105968 128.452 c 256
 -0.0105968 289.554 69.3255 398.389 115 453 c 257
 132 437 l 257
 87.4189 369.633 34.9861 270.859 34.9861 129.01 c 256
 34.9861 -17.1828 86.2345 -117.843 132 -187 c 257
427 88 m 256
 423 84 421 79 421 73 c 258x9260
 421 -96 l 258x90e0
 421 -104 434 -107 440 -103 c 256
 492.655 -66.1412 534.528 -33.9035 534.528 28.1835 c 256
 534.528 36.8438 533.714 46.0847 532 56 c 256
 525.65 95.2545 502.971 111.515 478.391 111.515 c 256
 460.392 111.515 441.373 102.795 427 88 c 256
215 88 m 256
 211 84 209 79 209 73 c 258
 209 -96 l 258x9660
 209 -104 222 -107 228 -103 c 256
 280.655 -66.1412 322.528 -33.9035 322.528 28.1835 c 256
 322.528 36.8438 321.714 46.0847 320 56 c 256
 313.65 95.2545 290.971 111.515 266.391 111.515 c 256
 248.392 111.515 229.373 102.795 215 88 c 256
179 490 m 257xd860
 236 490 l 257
 236 152 l 258
 236 144 247 139 254 139 c 256
 260 139 290 153 319 153 c 256
 336 153 352 150 365 142 c 256
 368.917 139.863 373.342 138.614 377.415 138.614 c 256
 384.781 138.614 391 142.698 391 153 c 258
 391 490 l 257
 448 490 l 257
 448 152 l 258xd960
 448 144 459 139 466 139 c 256
 472 139 502 153 531 153 c 256
 581 153 621 119 621 60 c 256
 621 -27 525 -77 454 -135 c 258
 401 -178 l 258
 392 -185 391 -184 391 -171 c 258
 391 -40 l 258
 391 -34.3959 385.572 -29.1795 378.337 -29.1795 c 256
 373.953 -29.1795 368.905 -31.0949 364 -36 c 256
 330 -72 282 -102 242 -135 c 258
 189 -178 l 258
 180 -185 179 -184 179 -171 c 258xd4e0
 179 490 l 257xd860
EndSplineSet
Validated: 1
PickledDataWithLists: "(dp0
Vcom.fontlab.hintData
p1
(dp2
Vhhints
p3
(lp4
(dp5
Vposition
p6
I133
sVwidth
p7
I20
sa(dp8
g6
I433
sg7
I57
sasVvhints
p9
(lp10
(dp11
g6
I0
sg7
I35
sa(dp12
g6
I179
sg7
I57
sa(dp13
g6
I179
sg7
I30
sa(dp14
g6
I391
sg7
I57
sa(dp15
g6
I391
sg7
I30
sa(dp16
g6
I421
sg7
I200
sa(dp17
g6
I710
sg7
I35
sass."
EndChar

StartChar: uni008D
Encoding: 141 141 42
GlifName: uni008D_
Width: 354
VWidth: 0
GlyphClass: 2
Flags: W
HStem: -146 39<35.0989 122.27> 107 26<247.751 325.897> 830 20G<328 354>
VStem: 0 23<-100.079 -50.348> 328 26<45.052 102.834 133.829 850>
LayerCount: 2
Fore
SplineSet
331 78 m 256
 331 97 315 107 297 107 c 256
 264 107 211 80 151 42 c 256
 77 -3 23 -46 23 -78 c 256
 23 -97 39 -107 57 -107 c 256
 90 -107 143 -80 203 -42 c 256
 277 3 331 46 331 78 c 256
328 850 m 257
 354 850 l 257
 354 62 l 258
 354 1 302 -79 247 -113 c 256
 214 -134 164 -146 118 -146 c 256
 56 -146 0 -125 0 -62 c 256
 0 -1 52 79 107 113 c 256
 140 134 190 146 236 146 c 256
 263 146 288 142 308 133 c 256
 316 129 328 135 328 143 c 258
 328 850 l 257
EndSplineSet
Validated: 1
PickledDataWithLists: "(dp0
Vcom.fontlab.hintData
p1
(dp2
Vhhints
p3
(lp4
(dp5
Vposition
p6
I-146
sVwidth
p7
I39
sa(dp8
g6
I107
sg7
I26
sa(dp9
g6
I830
sg7
I20
sasVvhints
p10
(lp11
(dp12
g6
I0
sg7
I23
sa(dp13
g6
I328
sg7
I26
sass."
EndChar

StartChar: uni008E
Encoding: 142 142 43
GlifName: uni008E_
Width: 354
VWidth: 0
GlyphClass: 2
Flags: W
HStem: -133 26<-325.897 -247.751> 107 39<-122.27 -35.0989>
VStem: -354 26<-850 -133.829 -102.834 -45.052> -23 23<50.348 100.079>
LayerCount: 2
Fore
SplineSet
-331 -78 m 256
 -331 -97 -315 -107 -297 -107 c 256
 -264 -107 -211 -80 -151 -42 c 256
 -77 3 -23 46 -23 78 c 256
 -23 97 -39 107 -57 107 c 256
 -90 107 -143 80 -203 42 c 256
 -277 -3 -331 -46 -331 -78 c 256
-328 -850 m 257
 -354 -850 l 257
 -354 -62 l 258
 -354 -1 -302 79 -247 113 c 256
 -214 134 -164 146 -118 146 c 256
 -56 146 0 125 0 62 c 256
 0 1 -52 -79 -107 -113 c 256
 -140 -134 -190 -146 -236 -146 c 256
 -263 -146 -288 -142 -308 -133 c 256
 -316 -129 -328 -135 -328 -143 c 258
 -328 -850 l 257
EndSplineSet
Validated: 1
PickledDataWithLists: "(dp0
Vcom.fontlab.hintData
p1
(dp2
Vhhints
p3
(lp4
(dp5
Vposition
p6
I-133
sVwidth
p7
I26
sa(dp8
g6
I107
sg7
I39
sasVvhints
p9
(lp10
(dp11
g6
I-354
sg7
I26
sa(dp12
g6
I-23
sg7
I23
sass."
EndChar

StartChar: uni008F
Encoding: 143 143 44
GlifName: uni008F_
Width: 326
VWidth: 0
GlyphClass: 2
Flags: W
HStem: 121 729G<199.5 233.5 300 326>
VStem: 300 26<123.911 850>
LayerCount: 2
Fore
SplineSet
95 101 m 256
 130 125 178 141 221 141 c 256
 246 141 269 136 287 124 c 256
 291 122 300 126 300 129 c 258
 300 850 l 257
 326 850 l 257
 326 583 326 316 326 49 c 256
 325 -7 280 -68 231 -101 c 256
 196 -125 148 -141 105 -141 c 256
 68 -141 34 -130 15 -100 c 256
 4 -85 0 -68 0 -50 c 256
 0 6 46 68 95 101 c 256
EndSplineSet
Validated: 1
PickledDataWithLists: "(dp0
Vcom.fontlab.hintData
p1
(dp2
Vhhints
p3
(lp4
(dp5
Vposition
p6
I121
sVwidth
p7
I20
sa(dp8
g6
I830
sg7
I20
sasVvhints
p9
(lp10
(dp11
g6
I300
sg7
I26
sass."
EndChar

StartChar: uni0090
Encoding: 144 144 45
GlifName: uni0090
Width: 326
VWidth: 0
GlyphClass: 2
Flags: W
HStem: 121 20G<-126.5 -86.5>
VStem: -326 26<-850 -123.911>
LayerCount: 2
Fore
SplineSet
-95 -101 m 256
 -130 -125 -178 -141 -221 -141 c 256
 -246 -141 -269 -136 -287 -124 c 256
 -291 -122 -300 -126 -300 -129 c 258
 -300 -850 l 257
 -326 -850 l 257
 -326 -583 -326 -316 -326 -49 c 256
 -325 7 -280 68 -231 101 c 256
 -196 125 -148 141 -105 141 c 256
 -68 141 -34 130 -15 100 c 256
 -4 85 0 68 0 50 c 256
 0 -6 -46 -68 -95 -101 c 256
EndSplineSet
Validated: 1
PickledDataWithLists: "(dp0
Vcom.fontlab.hintData
p1
(dp2
Vhhints
p3
(lp4
(dp5
Vposition
p6
I121
sVwidth
p7
I20
sasVvhints
p8
(lp9
(dp10
g6
I-326
sg7
I26
sass."
EndChar

StartChar: uni0091
Encoding: 145 145 46
GlifName: uni0091
Width: 202
VWidth: 0
GlyphClass: 2
Flags: W
HStem: -95 190<59.623 143.943> 582 20G<180 193>
VStem: 172 30<93.5603 601.996>
LayerCount: 2
Fore
SplineSet
0 -26 m 256
 0 37 62 95 129 95 c 256
 140 95 145 93 151 93 c 256
 162 93 172 98 172 113 c 258
 172 573 l 258
 172 597 173 602 187 602 c 256
 199 602 202 599 202 572 c 258
 202 27 l 258
 202 -37 141 -95 74 -95 c 256
 35 -95 0 -68 0 -26 c 256
EndSplineSet
Validated: 1
PickledDataWithLists: "(dp0
Vcom.fontlab.hintData
p1
(dp2
Vhhints
p3
(lp4
(dp5
Vposition
p6
I-95
sVwidth
p7
I190
sa(dp8
g6
I582
sg7
I20
sasVvhints
p9
(lp10
(dp11
g6
I172
sg7
I30
sass."
EndChar

StartChar: uni0092
Encoding: 146 146 47
GlifName: uni0092
Width: 202
VWidth: 0
GlyphClass: 2
Flags: W
HStem: -95 190<58.0566 142.377>
VStem: 0 30<-601.996 -93.5603>
LayerCount: 2
Fore
SplineSet
202 26 m 256
 202 -37 140 -95 73 -95 c 256
 62 -95 57 -93 51 -93 c 256
 40 -93 30 -98 30 -113 c 258
 30 -573 l 258
 30 -597 29 -602 15 -602 c 256
 3 -602 0 -599 0 -572 c 258
 0 -27 l 258
 0 37 61 95 128 95 c 256
 167 95 202 68 202 26 c 256
EndSplineSet
Validated: 1
PickledDataWithLists: "(dp0
Vcom.fontlab.hintData
p1
(dp2
Vhhints
p3
(lp4
(dp5
Vposition
p6
I-95
sVwidth
p7
I190
sasVvhints
p8
(lp9
(dp10
g6
I0
sg7
I30
sass."
EndChar

StartChar: uni0093
Encoding: 147 147 48
GlifName: uni0093
Width: 326
VWidth: 0
GlyphClass: 2
Flags: W
HStem: 88 21G<489 526.5> 121 729G<199.5 233.5 300 327>
VStem: 300 26<123.911 594.688 790.368 850> 541 34<197.466 431.585>
LayerCount: 2
Fore
SplineSet
95 101 m 256
 130 125 178 141 221 141 c 256
 246 141 269 136 287 124 c 256
 291 122 300 126 300 129 c 258
 300 850 l 257
 327 850 l 257
 327 818 340 769 373 728 c 256
 445 637 575 535 575 320 c 256
 575 214 536 123 517 88 c 257
 489 102 l 257
 515 155 541 232 541 321 c 256
 541 437 498 521 425 569 c 256
 395 588 369 595 342 595 c 256
 333 595 326 588 326 582 c 258
 326 49 l 257
 325 -7 280 -68 231 -101 c 256
 196 -125 148 -141 105 -141 c 256
 68 -141 34 -130 15 -100 c 256
 4 -85 0 -68 0 -50 c 256
 0 6 46 68 95 101 c 256
EndSplineSet
Validated: 1
PickledDataWithLists: "(dp0
Vcom.fontlab.hintData
p1
(dp2
Vhhints
p3
(lp4
(dp5
Vposition
p6
I121
sVwidth
p7
I20
sa(dp8
g6
I830
sg7
I20
sasVvhints
p9
(lp10
(dp11
g6
I300
sg7
I26
sa(dp12
g6
I541
sg7
I34
sass."
EndChar

StartChar: uni0094
Encoding: 148 148 49
GlifName: uni0094
Width: 326
VWidth: 0
GlyphClass: 2
Flags: W
HStem: 121 20G<199.5 239.5>
VStem: 0 26<-850 -790.368 -594.688 -123.911> 241 34<-431.585 -197.373>
LayerCount: 2
Fore
SplineSet
42 -595 m 256
 69 -595 95 -588 125 -569 c 256
 198 -521 241 -437 241 -321 c 256
 241 -241 220 -172 197 -120 c 257
 168 -133 135 -141 105 -141 c 256
 80 -141 57 -136 39 -124 c 256
 35 -122 26 -126 26 -129 c 258
 26 -582 l 258
 26 -588 33 -595 42 -595 c 256
326 50 m 256
 326 -9 276 -71 225 -105 c 257
 246 -147 275 -228 275 -320 c 256
 275 -535 145 -637 73 -728 c 256
 40 -769 27 -818 27 -850 c 257
 0 -850 l 257
 0 -49 l 257
 1 7 46 68 95 101 c 256
 130 125 178 141 221 141 c 256
 258 141 292 130 311 100 c 256
 322 85 326 68 326 50 c 256
EndSplineSet
Validated: 1
PickledDataWithLists: "(dp0
Vcom.fontlab.hintData
p1
(dp2
Vhhints
p3
(lp4
(dp5
Vposition
p6
I121
sVwidth
p7
I20
sasVvhints
p8
(lp9
(dp10
g6
I0
sg7
I26
sa(dp11
g6
I241
sg7
I34
sass."
EndChar

StartChar: uni0095
Encoding: 149 149 50
GlifName: uni0095
Width: 202
VWidth: 0
GlyphClass: 2
Flags: W
HStem: -95 190<59.623 143.943> 555 20G<178 203>
VStem: 178 24<90.7285 396.996 523.761 575> 352 30<107.571 287.017>
LayerCount: 2
Fore
SplineSet
0 -26 m 256
 0 37 62 95 129 95 c 256
 140 95 151 93 161 89 c 256
 166 86 178 91 178 96 c 258
 178 575 l 257
 203 575 l 257
 203 549 214 515 229 496 c 256
 279 432 382 354 382 204 c 256
 382 133 355 66 342 42 c 257
 317 54 l 257
 335 91 352 146 352 205 c 256
 352 286 312 347 271 376 c 256
 251 390 235 397 213 397 c 256
 207 397 202 392 202 388 c 258
 202 27 l 258
 202 -37 141 -95 74 -95 c 256
 35 -95 0 -68 0 -26 c 256
EndSplineSet
Validated: 1
PickledDataWithLists: "(dp0
Vcom.fontlab.hintData
p1
(dp2
Vhhints
p3
(lp4
(dp5
Vposition
p6
I-95
sVwidth
p7
I190
sa(dp8
g6
I555
sg7
I20
sasVvhints
p9
(lp10
(dp11
g6
I178
sg7
I24
sa(dp12
g6
I352
sg7
I30
sass."
EndChar

StartChar: uni0096
Encoding: 150 150 51
GlifName: uni0096
Width: 202
VWidth: 0
GlyphClass: 2
Flags: W
HStem: -95 190<58.0566 143.887>
VStem: 0 24<-575 -523.761 -396.996 -90.7285> 174 30<-287.017 -105.653>
LayerCount: 2
Fore
SplineSet
35 -397 m 256
 57 -397 73 -390 93 -376 c 256
 134 -347 174 -286 174 -205 c 256
 174 -154 162 -107 147 -71 c 257
 125 -86 100 -95 73 -95 c 256
 62 -95 51 -93 41 -89 c 256
 36 -86 24 -91 24 -96 c 258
 24 -388 l 258
 24 -392 29 -397 35 -397 c 256
0 -575 m 257
 0 -27 l 258
 0 37 61 95 128 95 c 256
 167 95 202 68 202 26 c 256
 202 -3 189 -30 169 -52 c 257
 183 -81 204 -141 204 -204 c 256
 204 -354 101 -432 51 -496 c 256
 36 -515 25 -549 25 -575 c 257
 0 -575 l 257
EndSplineSet
Validated: 1
PickledDataWithLists: "(dp0
Vcom.fontlab.hintData
p1
(dp2
Vhhints
p3
(lp4
(dp5
Vposition
p6
I-95
sVwidth
p7
I190
sasVvhints
p8
(lp9
(dp10
g6
I0
sg7
I24
sa(dp11
g6
I174
sg7
I30
sass."
EndChar

StartChar: uni0097
Encoding: 151 151 52
GlifName: uni0097
Width: 202
VWidth: 0
GlyphClass: 2
Flags: W
HStem: -95 190<59.623 143.943> 201 21G<60.0435 122.5> 349 20G<402.789 463.957> 555 20G<178 203 402.789 463.957>
VStem: 178 24<90.7285 241 276 396.996 523.761 575> 352 30<107.571 287.941>
LayerCount: 2
Fore
SplineSet
0 -26 m 256
 0 37 62 95 129 95 c 256
 140 95 151 93 161 89 c 256
 166 86 178 91 178 96 c 258
 178 241 l 257
 67 201 l 257
 59 224 l 257
 178 267 l 257
 178 575 l 257
 203 575 l 257
 203 549 214 515 229 496 c 256
 262 453 320 404 354 331 c 257
 457 369 l 257
 465 346 l 257
 363 309 l 257
 375 278 382 244 382 204 c 256
 382 133 355 66 342 42 c 257
 317 54 l 257
 335 91 352 146 352 205 c 256
 352 240 345 271 333 298 c 257
 202 250 l 257
 202 27 l 258
 202 -37 141 -95 74 -95 c 256
 35 -95 0 -68 0 -26 c 256
202 276 m 257
 322 320 l 257
 307 344 289 363 271 376 c 256
 251 390 235 397 213 397 c 256
 207 397 202 392 202 388 c 258
 202 276 l 257
EndSplineSet
Validated: 1
PickledDataWithLists: "(dp0
Vcom.fontlab.hintData
p1
(dp2
Vhhints
p3
(lp4
(dp5
Vposition
p6
I-95
sVwidth
p7
I190
sa(dp8
g6
I555
sg7
I20
sasVvhints
p9
(lp10
(dp11
g6
I178
sg7
I24
sa(dp12
g6
I352
sg7
I30
sass."
EndChar

StartChar: uni0098
Encoding: 152 152 53
GlifName: uni0098
Width: 326
VWidth: 0
GlyphClass: 2
Flags: W
HStem: 121 729G<199.5 233.5 300 327>
VStem: 300 26<123.911 444.688 602.26 653.583 804.95 850> 542 33<78.4353 293.641 385.735 528.197>
LayerCount: 2
Fore
SplineSet
95 101 m 256
 130 125 178 141 221 141 c 256
 246 141 269 136 287 124 c 256
 291 122 300 126 300 129 c 258
 300 850 l 257
 327 850 l 257
 327 802 363 763 426 713 c 256
 505 650 575 564 575 446 c 256
 575 401 564 365 552 341 c 257
 567 299 575 251 575 195 c 256
 575 108 544 19 527 -11 c 257
 498 0 l 257
 514 37 542 109 542 196 c 256
 542 318 471 445 342 445 c 256
 333 445 326 438 326 432 c 258
 326 49 l 257
 325 -7 280 -68 231 -101 c 256
 196 -125 148 -141 105 -141 c 256
 68 -141 34 -130 15 -100 c 256
 4 -85 0 -68 0 -50 c 256
 0 6 46 68 95 101 c 256
327 642 m 256
 327 602 368 553 426 508 c 256
 472 472 508 432 533 385 c 257
 538 403 542 424 542 447 c 256
 542 520 507 594 421 635 c 256
 398 646 368 654 343 654 c 256
 334 654 327 648 327 642 c 256
EndSplineSet
Validated: 1
PickledDataWithLists: "(dp0
Vcom.fontlab.hintData
p1
(dp2
Vhhints
p3
(lp4
(dp5
Vposition
p6
I121
sVwidth
p7
I20
sa(dp8
g6
I830
sg7
I20
sasVvhints
p9
(lp10
(dp11
g6
I300
sg7
I26
sa(dp12
g6
I542
sg7
I33
sass."
EndChar

StartChar: uni0099
Encoding: 153 153 54
GlifName: uni0099
Width: 326
VWidth: 0
GlyphClass: 2
Flags: W
HStem: 121 20G<199.5 239.5>
VStem: 0 27<-850 -802.878 -653.793 -600.177 -444.92 -123.911> 242 33<-528.197 -385.735 -293.641 -102.041>
LayerCount: 2
Fore
SplineSet
231 -101 m 257
 196 -125 148 -141 105 -141 c 256
 80 -141 57 -136 39 -124 c 256
 35 -122 26 -126 26 -129 c 258
 26 -432 l 258
 26 -438 33 -445 42 -445 c 256
 171 -445 242 -318 242 -196 c 256
 242 -161 238 -129 231 -101 c 257
27 -642 m 256
 27 -648 34 -654 43 -654 c 256
 68 -654 98 -646 121 -635 c 256
 207 -594 242 -520 242 -447 c 256
 242 -424 238 -403 233 -385 c 257
 208 -432 172 -472 126 -508 c 256
 68 -553 27 -602 27 -642 c 256
0 -850 m 257
 0 -49 l 257
 1 7 46 68 95 101 c 256
 130 125 178 141 221 141 c 256
 258 141 292 130 311 100 c 256
 322 85 326 68 326 50 c 256
 326 5 296 -44 259 -78 c 257
 268 -113 275 -154 275 -195 c 256
 275 -251 267 -299 252 -341 c 257
 264 -365 275 -401 275 -446 c 256
 275 -564 205 -650 126 -713 c 256
 63 -763 27 -802 27 -850 c 257
 0 -850 l 257
EndSplineSet
Validated: 1
PickledDataWithLists: "(dp0
Vcom.fontlab.hintData
p1
(dp2
Vhhints
p3
(lp4
(dp5
Vposition
p6
I121
sVwidth
p7
I20
sasVvhints
p8
(lp9
(dp10
g6
I0
sg7
I27
sa(dp11
g6
I242
sg7
I33
sass."
EndChar

StartChar: uni009A
Encoding: 154 154 55
GlifName: uni009A_
Width: 202
VWidth: 0
GlyphClass: 2
Flags: W
HStem: -95 190<59.623 143.943> 580 20G<178 203>
VStem: 178 24<90.7285 275.996 394.137 445.918 557.345 600> 352 30<2.97531 173.314 243.593 363.788>
LayerCount: 2
Fore
SplineSet
0 -26 m 256
 0 37 62 95 129 95 c 256
 140 95 151 93 161 89 c 256
 166 86 178 91 178 96 c 258
 178 600 l 257
 203 600 l 257
 203 566 223 529 268 493 c 256
 322 450 382 385 382 302 c 256
 382 265 370 232 358 211 c 257
 373 178 382 141 382 98 c 256
 382 37 361 -25 349 -46 c 257
 323 -36 l 257
 334 -10 352 38 352 99 c 256
 352 163 321 222 277 251 c 256
 254 266 233 276 213 276 c 256
 207 276 202 271 202 267 c 258
 202 27 l 258
 202 -37 141 -95 74 -95 c 256
 35 -95 0 -68 0 -26 c 256
203 434 m 256
 203 400 226 367 268 327 c 256
 296 300 321 273 340 243 c 257
 346 260 352 282 352 303 c 256
 352 354 324 404 264 433 c 256
 248 441 233 446 216 446 c 256
 208 446 203 443 203 434 c 256
EndSplineSet
Validated: 1
PickledDataWithLists: "(dp0
Vcom.fontlab.hintData
p1
(dp2
Vhhints
p3
(lp4
(dp5
Vposition
p6
I-95
sVwidth
p7
I190
sa(dp8
g6
I580
sg7
I20
sasVvhints
p9
(lp10
(dp11
g6
I178
sg7
I24
sa(dp12
g6
I352
sg7
I30
sass."
EndChar

StartChar: uni009B
Encoding: 155 155 56
GlifName: uni009B_
Width: 202
VWidth: 0
GlyphClass: 2
Flags: W
HStem: -95 190<58.0566 142.377>
VStem: 0 25<-625 -578.987 -470.991 -415.902 -300.996 -91.0391> 174 30<-388.788 -268.593 -198.314 -55.6425>
LayerCount: 2
Fore
SplineSet
25 -459 m 256
 25 -468 30 -471 38 -471 c 256
 55 -471 70 -466 86 -458 c 256
 146 -429 174 -379 174 -328 c 256
 174 -307 168 -285 162 -268 c 257
 143 -298 118 -325 90 -352 c 256
 48 -392 25 -425 25 -459 c 256
166 -55 m 257
 142 -79 108 -95 73 -95 c 256
 62 -95 51 -93 41 -89 c 256
 36 -86 24 -91 24 -96 c 258
 24 -292 l 258
 24 -296 29 -301 35 -301 c 256
 55 -301 76 -291 99 -276 c 256
 143 -247 174 -188 174 -124 c 256
 174 -98 171 -75 166 -55 c 257
0 -625 m 257
 0 -27 l 258
 0 37 61 95 128 95 c 256
 167 95 202 68 202 26 c 256
 202 8 197 -9 189 -24 c 257
 197 -52 204 -88 204 -123 c 256
 204 -166 195 -203 180 -236 c 257
 192 -257 204 -290 204 -327 c 256
 204 -410 144 -475 90 -518 c 256
 45 -554 25 -591 25 -625 c 257
 0 -625 l 257
EndSplineSet
Validated: 1
PickledDataWithLists: "(dp0
Vcom.fontlab.hintData
p1
(dp2
Vhhints
p3
(lp4
(dp5
Vposition
p6
I-95
sVwidth
p7
I190
sasVvhints
p8
(lp9
(dp10
g6
I0
sg7
I25
sa(dp11
g6
I174
sg7
I30
sass."
EndChar

StartChar: uni009C
Encoding: 156 156 57
GlifName: uni009C_
Width: 202
VWidth: 0
GlyphClass: 2
Flags: W
HStem: -95 190<59.623 143.943> 208 21G<73.5 77.5> 221 102<209.833 254.316> 324 52<304.944 327.176> 395 214G<180.5 194 415 418.5> 395 20G<415 418.5>
VStem: 0 202<-37.2618 37.5247> 172 30<94.7656 220.223 332.283 399.977 513.737 608.862> 282 66<334.109 361.172> 340 31<223.448 307.537> 348 29<-42.7648 132.852>
LayerCount: 2
Fore
SplineSet
416 415 m 256x95
 421 415 428 405 428 398 c 256
 428 393 424 390 415 385 c 258
 367 360 l 258
 355 354 348 349 348 339 c 256x9580
 348 335 349 330 352 324 c 256
 364 299 371 271 371 241 c 256x9440
 371 218 360 188 360 168 c 256
 360 159 361 150 365 137 c 256
 373 114 377 87 377 56 c 256
 377 16 367 -34 357 -60 c 256
 354 -67 348 -71 343 -71 c 256
 337 -71 332 -67 332 -57 c 256
 332 -55 332 -52 333 -49 c 256
 343 -1 348 14 348 52 c 256
 348 98 337 133 321 158 c 256
 299 192 257 221 222 221 c 256
 204 221 202 209 202 188 c 258xb520
 202 27 l 258
 202 -37 141 -95 74 -95 c 256
 35 -95 0 -68 0 -26 c 256xb6
 0 37 62 95 129 95 c 256
 135 95 142 94 148 94 c 256
 161 94 172 97 172 116 c 258
 172 218 l 258
 172 234 169 246 157 246 c 256
 153 246 148 244 142 241 c 258
 86 212 l 258
 82 210 79 208 76 208 c 256
 71 208 64 217 64 225 c 256
 64 230 68 233 75 236 c 258
 139 270 l 258
 164 283 172 292 172 324 c 258
 172 590 l 258
 172 608 178 609 183 609 c 258
 185 609 l 258xd9
 203 609 196 588 203 552 c 256
 214 496 266 448 309 392 c 256
 317 382 323 376 333 376 c 256
 338 376 345 379 354 383 c 258
 406 411 l 258
 410 413 414 415 416 415 c 256x95
202 383 m 256
 202 360 212 323 234 323 c 256xb180
 238 323 242 325 247 327 c 258
 271 340 l 258
 278 343 282 349 282 355 c 256
 282 368 264 379 254 386 c 256
 244 393 230 400 218 400 c 256
 206 400 202 392 202 383 c 256
290 319 m 258
 270 308 l 258
 260 303 255 298 255 291 c 256
 255 287 257 282 263 277 c 256
 276 264 290 251 303 237 c 256
 309 231 320 223 328 223 c 256
 335 223 340 227 340 242 c 256x9040
 340 266 335 289 323 311 c 256
 318 321 312 324 306 324 c 256
 301 324 296 322 290 319 c 258
EndSplineSet
Validated: 1
PickledDataWithLists: "(dp0
Vcom.fontlab.hintData
p1
(dp2
Vhhints
p3
(lp4
(dp5
Vposition
p6
I-95
sVwidth
p7
I190
sa(dp8
g6
I221
sg7
I102
sa(dp9
g6
I324
sg7
I52
sa(dp10
g6
I395
sg7
I214
sasVvhints
p11
(lp12
(dp13
g6
I0
sg7
I202
sa(dp14
g6
I172
sg7
I30
sa(dp15
g6
I282
sg7
I66
sa(dp16
g6
I340
sg7
I31
sa(dp17
g6
I348
sg7
I29
sass."
EndChar

StartChar: uni009D
Encoding: 157 157 58
GlifName: uni009D_
Width: 326
VWidth: 0
GlyphClass: 2
Flags: W
HStem: 121 20G<199.5 233.5>
VStem: 300 27<123.911 369.92 525.177 578.793 727.878 786.793 935.878 983> 542 33<3.43535 218.641 310.735 453.804 521.087 661.197>
LayerCount: 2
Fore
SplineSet
327 567 m 256
 327 527 368 478 426 433 c 256
 472 397 508 357 533 310 c 257
 538 328 542 349 542 372 c 256
 542 445 507 519 421 560 c 256
 398 571 368 579 343 579 c 256
 334 579 327 573 327 567 c 256
95 101 m 256
 130 125 178 141 221 141 c 256
 246 141 269 136 287 124 c 256
 291 122 300 126 300 129 c 258
 300 983 l 257
 327 983 l 257
 327 935 363 896 426 846 c 256
 505 783 575 697 575 579 c 256
 575 536 565 502 554 478 c 257
 567 446 575 410 575 371 c 256
 575 326 564 290 552 266 c 257
 567 224 575 176 575 120 c 256
 575 33 544 -56 527 -86 c 257
 498 -75 l 257
 514 -38 542 34 542 121 c 256
 542 243 471 370 342 370 c 256
 333 370 326 363 326 357 c 258
 326 49 l 257
 325 -7 280 -68 231 -101 c 256
 196 -125 148 -141 105 -141 c 256
 68 -141 34 -130 15 -100 c 256
 4 -85 0 -68 0 -50 c 256
 0 6 46 68 95 101 c 256
327 775 m 256
 327 727 363 688 426 638 c 256
 467 605 506 566 533 520 c 257
 538 537 542 558 542 580 c 256
 542 653 507 727 421 768 c 256
 398 779 368 787 343 787 c 256
 334 787 327 781 327 775 c 256
EndSplineSet
Validated: 1
PickledDataWithLists: "(dp0
Vcom.fontlab.hintData
p1
(dp2
Vhhints
p3
(lp4
(dp5
Vposition
p6
I121
sVwidth
p7
I20
sasVvhints
p8
(lp9
(dp10
g6
I300
sg7
I27
sa(dp11
g6
I542
sg7
I33
sass."
EndChar

StartChar: uni009E
Encoding: 158 158 59
GlifName: uni009E_
Width: 326
VWidth: 0
GlyphClass: 2
Flags: W
HStem: 121 20G<199.5 239.5>
VStem: 0 27<-1008 -960.878 -811.793 -752.878 -603.793 -550.177 -394.92 -123.911> 242 33<-686.197 -546.087 -478.804 -335.735 -243.641 -95.5666>
LayerCount: 2
Fore
SplineSet
239 -95 m 257
 203 -121 152 -141 105 -141 c 256
 80 -141 57 -136 39 -124 c 256
 35 -122 26 -126 26 -129 c 258
 26 -382 l 258
 26 -388 33 -395 42 -395 c 256
 171 -395 242 -268 242 -146 c 256
 242 -128 241 -112 239 -95 c 257
27 -592 m 256
 27 -598 34 -604 43 -604 c 256
 68 -604 98 -596 121 -585 c 256
 207 -544 242 -470 242 -397 c 256
 242 -374 238 -353 233 -335 c 257
 208 -382 172 -422 126 -458 c 256
 68 -503 27 -552 27 -592 c 256
0 -1008 m 257
 0 -49 l 257
 1 7 46 68 95 101 c 256
 130 125 178 141 221 141 c 256
 258 141 292 130 311 100 c 256
 322 85 326 68 326 50 c 256
 326 9 301 -36 268 -70 c 257
 272 -94 275 -120 275 -145 c 256
 275 -201 267 -249 252 -291 c 257
 264 -315 275 -351 275 -396 c 256
 275 -435 267 -471 254 -503 c 257
 265 -527 275 -561 275 -604 c 256
 275 -722 205 -808 126 -871 c 256
 63 -921 27 -960 27 -1008 c 257
 0 -1008 l 257
233 -545 m 257
 206 -591 167 -630 126 -663 c 256
 63 -713 27 -752 27 -800 c 256
 27 -806 34 -812 43 -812 c 256
 68 -812 98 -804 121 -793 c 256
 207 -752 242 -678 242 -605 c 256
 242 -583 238 -562 233 -545 c 257
EndSplineSet
Validated: 1
PickledDataWithLists: "(dp0
Vcom.fontlab.hintData
p1
(dp2
Vhhints
p3
(lp4
(dp5
Vposition
p6
I121
sVwidth
p7
I20
sasVvhints
p8
(lp9
(dp10
g6
I0
sg7
I27
sa(dp11
g6
I242
sg7
I33
sass."
EndChar

StartChar: uni009F
Encoding: 159 159 60
GlifName: uni009F_
Width: 202
VWidth: 0
GlyphClass: 2
Flags: W
HStem: -95 190<59.623 143.943> 812 20G<183.5 196>
VStem: 172 32<93.3853 289.434 414.6 477.992 576.27 639.993 739.686 831.73> 363 29<282.661 371.512 448.527 533.044> 373 31<-10.9876 164.35>
LayerCount: 2
Fore
SplineSet
349 282 m 256xf0
 359 282 363 292 363 310 c 256
 363 393 279 478 219 478 c 256
 207 478 204 467 204 456 c 256
 204 427 236 390 267 360 c 256
 317 311 334 282 349 282 c 256xf0
0 -26 m 256
 0 37 62 95 129 95 c 256
 140 95 145 93 151 93 c 256
 162 93 172 98 172 113 c 258
 172 790 l 258
 172 818 176 832 191 832 c 256
 201 832 204 822 204 794 c 256
 204 760 220 728 257 696 c 256
 346 616 392 558 392 472 c 256
 392 425 382 415 382 391 c 256
 382 369 392 351 392 310 c 256xf0
 392 260 378 243 378 223 c 256
 378 198 404 168 404 79 c 256
 404 14 378 -50 356 -82 c 256
 349.305 -91.4516 342.765 -95.475 337.969 -95.475 c 256
 333.374 -95.475 330.378 -91.783 330.378 -85.634 c 256
 330.378 -81.9023 331.482 -77.2656 334 -72 c 256
 344 -49 373 11 373 80 c 256xe8
 373 170 329 226 288 262 c 256
 271 276 251 290 228 290 c 256
 208 290 202 283 202 255 c 258
 202 27 l 258
 202 -37 141 -95 74 -95 c 256
 35 -95 0 -68 0 -26 c 256
362.938 471.165 m 256
 362.938 557.711712387 277.705741282 640 219 640 c 256
 209 640 204 630 204 618 c 256
 204 596 223 564 257 534 c 256
 284 510 306 488 325 467 c 256
 333.991 456.117 344.101 447.92 351.622 447.92 c 256
 358.301 447.92 362.938 454.383 362.938 471.165 c 256
EndSplineSet
Validated: 1
PickledDataWithLists: "(dp0
Vcom.fontlab.hintData
p1
(dp2
Vhhints
p3
(lp4
(dp5
Vposition
p6
I-95
sVwidth
p7
I190
sa(dp8
g6
I812
sg7
I20
sasVvhints
p9
(lp10
(dp11
g6
I172
sg7
I32
sa(dp12
g6
I363
sg7
I29
sa(dp13
g6
I373
sg7
I31
sass."
EndChar

StartChar: divide
Encoding: 247 247 61
GlifName: divide
Width: 1320
VWidth: 0
GlyphClass: 2
Flags: W
HStem: 96 20G<1255.77 1320>
LayerCount: 2
Fore
SplineSet
1320 -96 m 257
 0 -507 l 257
 0 -295 l 257
 1320 116 l 257
 1320 -96 l 257
0 96 m 257
 1320 507 l 257
 1320 295 l 257
 0 -116 l 257
 0 96 l 257
EndSplineSet
Validated: 1
PickledDataWithLists: "(dp0
Vcom.fontlab.hintData
p1
(dp2
Vhhints
p3
(lp4
(dp5
Vposition
p6
I96
sVwidth
p7
I20
sa(dp8
g6
I487
sg7
I20
sass."
EndChar

StartChar: registered
Encoding: 174 174 62
GlifName: registered
Width: 560
VWidth: 0
GlyphClass: 2
Flags: W
HStem: -134 54<60.222 158.54 426.5 510.004> 76 58<49.9959 133.5 396.709 499.778>
VStem: 0 32<-45.9837 59.4597> 528 32<-59.4597 45.9837>
LayerCount: 2
Fore
SplineSet
0 3 m 256
 0 74 46 134 114 134 c 256
 153 134 177 112 177 84 c 256
 177 60 162 44 137 44 c 256
 105 44 103 76 79 76 c 256
 44 76 32 33 32 4 c 256
 32 -48 71 -80 108 -80 c 256
 136 -80 163 -55 183 -39 c 257
 325 85 l 257
 362 119 392 134 432 134 c 256
 506 134 560 67 560 -3 c 256
 560 -74 514 -134 446 -134 c 256
 407 -134 383 -112 383 -84 c 256
 383 -60 398 -44 423 -44 c 256
 455 -44 457 -76 481 -76 c 256
 516 -76 528 -33 528 -4 c 256
 528 48 489 80 452 80 c 256
 424 80 397 55 377 39 c 257
 235 -85 l 257
 198 -119 168 -134 128 -134 c 256
 54 -134 0 -67 0 3 c 256
EndSplineSet
Validated: 1
PickledDataWithLists: "(dp0
Vcom.fontlab.hintData
p1
(dp2
Vhhints
p3
(lp4
(dp5
Vposition
p6
I-134
sVwidth
p7
I54
sa(dp8
g6
I76
sg7
I58
sasVvhints
p9
(lp10
(dp11
g6
I0
sg7
I32
sa(dp12
g6
I528
sg7
I32
sass."
EndChar

StartChar: copyright
Encoding: 169 169 63
GlifName: copyright
Width: 709
VWidth: 0
GlyphClass: 2
Flags: W
HStem: -690 34<262.287 410.186> -270 31<262.31 459.765> 149 130<425 536.453> 1112 162<436 499> 1498 16<413.809 467.882>
VStem: 0 69<-44.5643 155.107> 113 141<-629.5 -476.5> 189 68<-41.2563 83.8953> 349 31<1290.65 1360.3> 360 39<1432.99 1491.07> 485 41<1286.29 1349.95> 486 28<1421.71 1486.85> 510 34<-554.285 -349.033> 551 37<884.057 1052.29> 634 75<-90.0675 66.891>
LayerCount: 2
Fore
SplineSet
634 -26 m 256xfc06
 634 78 572 149 458 149 c 258
 448 149 l 258
 435 149 425 146 425 135 c 258
 425 131 l 257
 497 -203 l 258
 498 -209 503 -213 508 -213 c 256
 509 -213 511 -213 512 -212 c 256
 585 -175 634 -131 634 -26 c 256xfc06
367 -239 m 256
 395 -239 464 -239 464 -216 c 258
 464 -213 l 257
 392 127 l 258
 391 132 383 139 375 139 c 258
 373 139 l 257
 289 121 257 70 257 13 c 256
 257 -39 281.23 -77.8455 310 -121 c 256
 312 -124 313 -126 313 -127 c 256
 313 -129 312 -130 310 -130 c 256
 308 -130 306 -129 303 -128 c 256
 237 -102 189 -32 189 51 c 256
 189 152 261 237 350 266 c 256
 357 268 360 271 360 277 c 256xfd46
 360 278 359 280 359 282 c 258
 330 415 l 258
 329 422 322 425 316 425 c 256
 311 425 307 423 303 420 c 256
 195 323 69 214 69 36 c 256
 69 -138 200 -239 367 -239 c 256
347 636 m 256
 433 714 551 838 551 978 c 256
 551 1024 539 1061 520 1100 c 256
 517 1108 508 1112 499 1112 c 256
 496 1112 494 1112 491 1111 c 256
 408 1079 296 960 296 791 c 256
 296 746 302 707 314 656 c 258
 318 640 l 258
 319 632 325 630 330 630 c 256
 336 630 343 632 347 636 c 256
231 -385 m 256
 296 -385 350 -436 350 -503 c 256
 350 -558 312 -607 259 -619 c 256
 256 -620 254 -623 254 -627 c 256
 254 -632 257 -639 261 -641 c 256
 280 -650 294 -656 328 -656 c 256
 434 -656 510 -588 510 -469 c 256
 510 -412 493 -350 476 -271 c 256
 475 -263 469 -261 460 -261 c 256
 429 -267 402 -270 369 -270 c 256
 170 -270 0 -132 0 75 c 256
 0 289 149 449 286 577 c 256
 291 582 292 586 292 592 c 258
 292 597 l 257
 287 622 l 258
 280 654 249 776 249 857 c 256
 249 1041.33 360.575 1192.58 420.718 1247.67 c 256
 424.676 1251.29 419.826 1258.93 415.667 1259.61 c 256
 375.082 1266.26 349 1292.51 349 1321 c 256xfe8e
 349 1347 364 1366 390 1380 c 256
 397 1384 394 1394 389 1398 c 256
 372 1411 360 1427 360 1450 c 256
 360 1486 398 1514 442 1514 c 256
 487 1514 514 1489 514 1457 c 256xfc56
 514 1436 503 1420 488 1408 c 256
 480 1402 484 1394 487 1391 c 256
 509 1376 526 1358 526 1331 c 256xfc26
 526 1302.84 504.194 1278.15 475.234 1266 c 256
 468.205 1263.05 464.792 1251.85 468.054 1248 c 256
 508.834 1199.85 588 1074.7 588 929 c 256
 588 741 493 585 365 470 c 256
 359 465 357 459 357 452 c 256
 357 450 357 449 358 447 c 258
 391 290 l 258
 394 280 400 279 409 279 c 256
 414.666666667 279 420.333333333 279 426 279 c 256
 583 279 709 164 709 10.0004 c 256
 709 -113 627.727 -199.309 521 -242 c 256
 516 -244 509 -252 509 -260 c 258
 509 -261 l 257
 526 -343 544 -412 544 -471 c 256
 544 -603 455 -690 340 -690 c 256
 229 -690 113 -620 113 -509 c 256xfe0e
 113 -444 163 -385 231 -385 c 256
485 1312 m 256xfca6
 485 1344 452 1360 420 1378 c 257
 395 1367 380 1351 380 1325 c 256
 380 1301 402 1274 436 1274 c 256
 464 1274 485 1292 485 1312 c 256xfca6
399 1466 m 256xfc56
 399 1440 427 1425 457 1409 c 257
 475 1420 486 1437 486 1455 c 256
 486 1479 469 1498 442 1498 c 256
 415 1498 399 1482 399 1466 c 256xfc56
EndSplineSet
Validated: 1
PickledDataWithLists: "(dp0
Vcom.fontlab.hintData
p1
(dp2
Vhhints
p3
(lp4
(dp5
Vposition
p6
I-690
sVwidth
p7
I34
sa(dp8
g6
I-270
sg7
I31
sa(dp9
g6
I149
sg7
I130
sa(dp10
g6
I1112
sg7
I162
sa(dp11
g6
I1498
sg7
I16
sasVvhints
p12
(lp13
(dp14
g6
I0
sg7
I69
sa(dp15
g6
I113
sg7
I141
sa(dp16
g6
I189
sg7
I68
sa(dp17
g6
I349
sg7
I31
sa(dp18
g6
I360
sg7
I39
sa(dp19
g6
I485
sg7
I41
sa(dp20
g6
I486
sg7
I28
sa(dp21
g6
I510
sg7
I34
sa(dp22
g6
I551
sg7
I37
sa(dp23
g6
I634
sg7
I75
sass."
EndChar

StartChar: logicalnot
Encoding: 172 172 64
GlifName: logicalnot
Width: 586
VWidth: 0
GlyphClass: 2
Flags: W
HStem: -66 61<239.441 272.172> 8 56<314.038 345.031> 111 20G<144 151 284.278 290.995 388 394.5 563.5 568>
VStem: 276 35<-199.998 -66.0065 64.0073 200.029>
LayerCount: 2
Fore
SplineSet
21 -52 m 256
 15 -52 4 -35 4 -28 c 256
 4 -23 7 -18 14 -11 c 258
 119 107 l 258
 133 123 141 131 147 131 c 256
 155 131 161 120 175 98 c 258
 224 20 l 258
 235 3 243 -5 251 -5 c 256
 270 -5 277 24 277 55 c 256
 277 100 276 128 276 183 c 256
 276 198.696 278.73 200.06 289.826 200.06 c 256
 292.163 200.06 294.87 200 298 200 c 256
 309 200 311 199 311 181 c 258
 311 89 l 258
 311 74 313 64 318 64 c 256
 323 64 330 69 338 78 c 258
 363 106 l 258
 377 123 385 132 391 132 c 256
 398 132 404 123 417 103 c 258
 471 17 l 258
 482 1 488 -8 496 -8 c 256
 504 -8 514 2 533 22 c 258
 553 44 l 258
 558 50 562 53 565 53 c 256
 571 53 581 36 581 28 c 256
 581 23 578 17 571 9 c 258
 475 -98 l 258
 457 -118 448 -130 440 -130 c 256
 432 -130 425 -119 410 -96 c 258
 362 -21 l 258
 350 -2 343 8 335 8 c 256
 317 8 310 -18 310 -47 c 256
 310 -97 311 -140 311 -182 c 256
 311 -197 308 -200 295 -200 c 256
 279 -200 276 -200 276 -183 c 258
 276 -94 l 258
 276.102 -92.2646 276.152 -90.5917 276.152 -88.9866 c 256
 276.152 -74.8688 272.285 -66 266 -66 c 256
 261 -66 255 -70 248 -78 c 258
 225 -104 l 258
 209 -122 202 -131 195 -131 c 256
 187 -131 181 -121 168 -100 c 258
 115 -18 l 258
 104 -1 98 8 90 8 c 256
 82 8 73 0 58 -17 c 258
 36 -42 l 258
 29 -49 25 -52 21 -52 c 256
EndSplineSet
Validated: 1
PickledDataWithLists: "(dp0
Vcom.fontlab.hintData
p1
(dp2
Vhhints
p3
(lp4
(dp5
Vposition
p6
I-66
sVwidth
p7
I61
sa(dp8
g6
I8
sg7
I56
sa(dp9
g6
I111
sg7
I20
sasVvhints
p10
(lp11
(dp12
g6
I276
sg7
I35
sass."
EndChar

StartChar: exclam
Encoding: 33 33 66
GlifName: exclam
Width: 0
VWidth: 0
GlyphClass: 2
Flags: W
HStem: -107 214
LayerCount: 2
Fore
SplineSet
-170 7 m 257
 170 107 l 257
 170 -7 l 257
 -170 -107 l 257
 -170 7 l 257
EndSplineSet
Validated: 1
PickledDataWithLists: "(dp0
Vcom.fontlab.hintData
p1
(dp2
Vhhints
p3
(lp4
(dp5
Vposition
p6
I-107
sVwidth
p7
I214
sass."
EndChar

StartChar: less
Encoding: 60 60 67
GlifName: less
Width: 300
VWidth: 0
GlyphClass: 2
Flags: W
HStem: -176 66<0 300> -48 96<110.332 189.668>
VStem: 102 96<-39.668 39.668>
LayerCount: 2
Fore
SplineSet
300 -176 m 257
 0 -176 l 257
 0 -110 l 257
 300 -110 l 257
 300 -176 l 257
198 0 m 256
 198 -26 176 -48 150 -48 c 256
 124 -48 102 -26 102 0 c 256
 102 26 124 48 150 48 c 256
 176 48 198 26 198 0 c 256
EndSplineSet
Validated: 1
PickledDataWithLists: "(dp0
Vcom.fontlab.hintData
p1
(dp2
Vhhints
p3
(lp4
(dp5
Vposition
p6
I-33
sVwidth
p7
I66
sass."
EndChar

StartChar: equal
Encoding: 61 61 68
GlifName: equal
Width: 997
VWidth: 0
GlyphClass: 2
Flags: W
HStem: -12 19<0 998> 241 19<0 998> 494 19<0 998> 747 21<0 998> 1002 19<0 998>
LayerCount: 2
Fore
SplineSet
998 1002 m 257
 0 1002 l 257
 0 1021 l 257
 998 1021 l 257
 998 1002 l 257
998 747 m 257
 0 747 l 257
 0 768 l 257
 998 768 l 257
 998 747 l 257
998 494 m 257
 0 494 l 257
 0 513 l 257
 998 513 l 257
 998 494 l 257
998 241 m 257
 0 241 l 257
 0 260 l 257
 998 260 l 257
 998 241 l 257
998 -12 m 257
 0 -12 l 257
 0 7 l 257
 998 7 l 257
 998 -12 l 257
EndSplineSet
Validated: 1
PickledDataWithLists: "(dp0
Vcom.fontlab.hintData
p1
(dp2
Vhhints
p3
(lp4
(dp5
Vposition
p6
I38
sVwidth
p7
I19
sa(dp8
g6
I292
sg7
I19
sa(dp9
g6
I545
sg7
I19
sa(dp10
g6
I802
sg7
I19
sa(dp11
g6
I1052
sg7
I19
sass."
EndChar

StartChar: uni0080
Encoding: 128 128 69
GlifName: uni0080
Width: 533
VWidth: 0
GlyphClass: 2
Flags: W
HStem: -536 34<204.53 329.265> -445 143<185.566 253> -211 34<191.634 339.421> 843 115<302.387 349.219> 1026 29<285.605 343.286> 1119 21<279.217 349.539>
VStem: 0 48<-50.536 140.881> 118 67.518<-467.99 -367.5> 142 49<-40.375 76.3078> 178.793 38.303<485.27 716.482> 238 24<969.02 1016.3> 242 30<1068.16 1113.85> 290.982 59.082<894.911 944.773> 358 32<964.381 1012.92 1057.81 1113.18> 384 34<-444.025 -252.83> 482 51<-84.909 63.2897>
LayerCount: 2
Fore
SplineSet
482 -11 m 256xfe09
 482 67 423 122 347 122 c 256
 328.816 122 323.285 112.3 323.285 98.6507 c 256
 323.285 91.2828 324.897 82.7643 327 74 c 258
 371 -115 l 258
 375.502 -134.295 382.487 -144.076 393.549 -144.076 c 256
 399.687 -144.076 407.08 -141.066 416 -135 c 256
 457 -106 482 -64 482 -11 c 256xfe09
253 247 m 258
 249 266 l 258
 245.061 283.725 239.399 295.416 227.769 295.416 c 256
 221.683 295.416 213.962 292.214 204 285 c 256
 125 227 48 162 48 41 c 256
 48 -81 153 -177 275 -177 c 256
 286 -177 298 -177 309 -175 c 256
 333.923 -172.231 342.071 -163.71 342.071 -147.115 c 256
 342.071 -139.74 340.462 -130.769 338 -120 c 258
 296 63 l 258
 290 88 289 109 273 109 c 256
 232 109 191 67 191 19 c 256
 191 -23 214 -58 236 -76 c 256
 240.856 -80.2492 242.949 -85.1433 242.949 -89.5358 c 256
 242.949 -96.4245 237.802 -102.08 230.097 -102.08 c 256
 226.528 -102.08 222.41 -100.866 218 -98 c 256
 180 -75 142 -23 142 35 c 256xfe89
 142 95 174 145 220 175 c 256
 248.325 194.344 258.036 199.369 258.036 215.795 c 256
 258.036 223.146 256.091 232.779 253 247 c 258
278 462 m 256
 348 523 389 603 389 709 c 256
 389 767 365 843 343 843 c 256
 314 843 257 789 230 700 c 256
 221.058 671.069 217.096 639.924 217.096 607.875 c 256xfe49
 217.096 578.997 220.312 549.386 226 520 c 258
 230 500 l 258
 235.245 478.269 241.614 452.047 257.941 452.047 c 256
 263.402 452.047 269.979 454.981 278 462 c 256
335 -207 m 256
 318 -207 296 -211 277 -211 c 256
 133 -211 0 -101 0 43 c 256
 0 211 98 296 190 384 c 256
 203.978 396.763 208.722 410.264 208.722 425.401 c 256
 208.722 435.172 206.746 445.624 204 457 c 258
 193 507 l 258
 184.889 547.553 178.793 588.777 178.793 630.673 c 256
 178.793 748.00787603 239.022252791 859.207442608 284 911 c 256
 288.77 916.87 290.982 921.799 290.982 926.031 c 256
 290.982 933.335 284.396 938.568 273 943 c 256
 252 952 238 969 238 993 c 256xfe6b
 238 1020 260 1030 260 1042 c 256
 260 1054 242 1058 242 1086 c 256
 242 1120 276 1140 312 1140 c 256
 348 1140 384 1126 384 1084 c 256xfe1b
 384 1059 368 1055 368 1041 c 256
 368 1025 390 1022 390 993 c 256xfe0d
 390 976 380 961 364 950 c 256
 356.183 944.789 350.064 939.578 350.064 931.603 c 256
 350.064 927.335 351.817 922.275 356 916 c 256
 389 869 431 772 431 679 c 256
 431 549 368 448 296 366 c 256
 278.816 346.599 272.694 333.651 272.694 318.128 c 256
 272.694 305.647 276.652 291.502 282 271 c 258
 286 255 l 257
 298 212 291 209 334 206 c 256
 443 200 533 115 533 5 c 256
 533 -71 491 -136 428 -172 c 256
 406.699 -184.289 394.123 -190.537 394.123 -211.092 c 256
 394.123 -215.626 394.735 -220.856 396 -227 c 256
 406 -275 418 -340 418 -383 c 256
 418 -470 354 -536 272 -536 c 256
 180 -536 118 -470 118 -396 c 256
 118 -339 155 -302 203 -302 c 256
 243 -302 273 -333 273 -376 c 256
 273 -409 247 -441 212 -445 c 256
 197.03 -446.663 185.518 -449.018 185.518 -459.543 c 256
 185.518 -461.673 185.99 -464.138 187 -467 c 256
 195 -487 228 -502 269 -502 c 256
 339 -502 384 -445 384 -379 c 256xff1b
 384 -336 374 -283 365 -243 c 256
 361 -223 355 -207 335 -207 c 256
312 1119 m 256
 296 1119 272 1114 272 1092 c 256xfe19
 272 1066 312 1055 330 1055 c 256
 350 1055 362 1074 362 1086 c 256
 362 1107 340 1119 312 1119 c 256
298 1026 m 256
 278 1026 262 1008 262 992 c 256
 262 970 286 958 312 958 c 256
 338 958 358 968 358 988 c 256xfe2d
 358 1009 328 1026 298 1026 c 256
EndSplineSet
Validated: 1
PickledDataWithLists: "(dp0
Vcom.fontlab.hintData
p1
(dp2
Vhhints
p3
(lp4
(dp5
Vposition
p6
I-536
sVwidth
p7
I34
sa(dp8
g6
I-445
sg7
I143
sa(dp9
g6
I-211
sg7
I34
sa(dp10
g6
I843
sg7
I115
sa(dp11
g6
I1026
sg7
I29
sa(dp12
g6
I1119
sg7
I21
sasVvhints
p13
(lp14
(dp15
g6
I0
sg7
I48
sa(dp16
g6
I118
sg7
I155
sa(dp17
g6
I142
sg7
I49
sa(dp18
g6
I238
sg7
I24
sa(dp19
g6
I242
sg7
I30
sa(dp20
g6
I358
sg7
I32
sa(dp21
g6
I384
sg7
I34
sa(dp22
g6
I482
sg7
I51
sass."
EndChar

StartChar: degree
Encoding: 176 176 70
GlifName: degree
Width: 356
VWidth: 0
GlyphClass: 2
Flags: W
HStem: 80.7968 25.2032<232.39 283.29> 320 20G<0 28 188 231> 320 20G<0 28 75.8621 140 188 231>
VStem: 0 28<-71.1333 54.0781 117.623 271> 112 28<-271 -117.623 -54.0781 71.1333> 188 43<106.008 340> 188 26<-61.1817 70.0205> 293.114 62.886<-9.01699 77.8956>
LayerCount: 2
Fore
SplineSet
258.311 80.7968 m 256x9b
 241.407760543 80.7968 214 68.9033033848 214 48 c 258
 214 -53 l 258
 214 -61 226 -65 232 -61 c 256
 274.091 -30.3087 293.114 -4.23106 293.114 31.3929 c 256
 293.114 62.3533574263 280.036121146 80.7968 258.311 80.7968 c 256x9b
198 -123 m 258
 189 -130 188 -129 188 -116 c 258xdb
 188 340 l 257
 231 340 l 257
 231 123 l 258xdd
 231 117 240 106 246 106 c 256
 255 106 270 114 291 114 c 256
 326 114 356 91 356 47 c 256
 356 -17 282 -54 232 -95 c 258
 198 -123 l 258
140 -271 m 257
 112 -271 l 257
 112 -130 l 258
 112 -121 101 -116 93 -118 c 258
 0 -147 l 257
 0 271 l 257
 28 271 l 257
 28 130 l 258
 28 121 39 116 47 118 c 258
 140 147 l 257
 140 -271 l 257
25 -60 m 258
 25 -67 34 -74 43 -71 c 258
 105 -52 l 258
 111 -50 115 -47 115 -40 c 258
 115 60 l 258
 115 67 106 74 97 71 c 258
 35 52 l 258
 29 50 25 47 25 40 c 258
 25 -60 l 258
EndSplineSet
Validated: 1
PickledDataWithLists: "(dp0
Vcom.fontlab.hintData
p1
(dp2
Vhhints
p3
(lp4
(dp5
Vposition
p6
I94
sVwidth
p7
I20
sasVvhints
p8
(lp9
(dp10
g6
I0
sg7
I28
sa(dp11
g6
I112
sg7
I28
sa(dp12
g6
I188
sg7
I43
sa(dp13
g6
I188
sg7
I26
sass."
EndChar

StartChar: plusminus
Encoding: 177 177 71
GlifName: plusminus
Width: 383
VWidth: 0
GlyphClass: 2
Flags: W
HStem: -264 21G<229 257> 224 47G<0 28 75.8621 140 229 257 313 341 358 383> 244 27G<0 28 313 341>
VStem: 0 28<-71.1333 54.0781 117.623 271> 112 28<-271 -117.623 -54.0781 71.1333> 229 28<-264 -146.668 -68.0879 45.0872 122.912 244> 313 28<-244 -122.912 -45.0872 68.0879 146.668 264>
LayerCount: 2
Fore
SplineSet
256 -56 m 258x9e
 256 -64 266 -70 274 -68 c 258
 303 -60 l 258
 309 -58 314 -52 314 -44 c 258
 314 56 l 258
 314 64 304 70 296 68 c 258
 267 60 l 258
 261 58 256 52 256 44 c 258
 256 -56 l 258x9e
230 32 m 258
 230 40 222 47 215 45 c 258
 187 37 l 257
 187 98 l 257
 211 104 l 258
 224 108 229 116 229 128 c 258
 229 244 l 257
 257 244 l 257xbe
 257 135 l 258
 257 127 267 121 274 123 c 258
 300 130 l 258
 310 133 313 138 313 146 c 258
 313 264 l 257
 341 264 l 257
 341 160 l 258
 341 152 351 145 358 147 c 258
 383 154 l 257
 383 93 l 257
 352 84 l 258
 345 83 340 78 340 70 c 258
 340 -32 l 258
 340 -40 348 -47 355 -45 c 258
 383 -37 l 257
 383 -98 l 257
 359 -104 l 258
 346 -108 341 -116 341 -128 c 258
 341 -244 l 257
 313 -244 l 257
 313 -135 l 258
 313 -127 303 -121 296 -123 c 258
 270 -130 l 258
 260 -133 257 -138 257 -146 c 258
 257 -264 l 257
 229 -264 l 257
 229 -160 l 258
 229 -152 219 -145 212 -147 c 258
 187 -154 l 257
 187 -93 l 257
 218 -84 l 258
 225 -83 230 -78 230 -70 c 258
 230 32 l 258
140 -271 m 257
 112 -271 l 257
 112 -130 l 258
 112 -121 101 -116 93 -118 c 258
 0 -147 l 257
 0 271 l 257
 28 271 l 257xde
 28 130 l 258
 28 121 39 116 47 118 c 258
 140 147 l 257
 140 -271 l 257
25 -60 m 258
 25 -67 34 -74 43 -71 c 258
 105 -52 l 258
 111 -50 115 -47 115 -40 c 258
 115 60 l 258
 115 67 106 74 97 71 c 258
 35 52 l 258
 29 50 25 47 25 40 c 258
 25 -60 l 258
EndSplineSet
Validated: 1
PickledDataWithLists: "(dp0
Vcom.fontlab.hintData
p1
(dp2
Vhhints
p3
(lp4
(dp5
Vposition
p6
I134
sVwidth
p7
I13
sasVvhints
p8
(lp9
(dp10
g6
I0
sg7
I28
sa(dp11
g6
I112
sg7
I28
sa(dp12
g6
I229
sg7
I28
sa(dp13
g6
I313
sg7
I28
sass."
EndChar

StartChar: multiply
Encoding: 215 215 72
GlifName: multiply
Width: 304
VWidth: 0
GlyphClass: 2
Flags: W
HStem: -152 40<90.4229 213.111> 112 40<90.8888 213.577>
VStem: 0 40<-61.1112 61.5771> 264 40<-61.5771 61.1112>
LayerCount: 2
Fore
SplineSet
0 0 m 256
 0 86 72 152 152 152 c 256
 238 152 304 80 304 0 c 256
 304 -86 232 -152 152 -152 c 256
 66 -152 0 -80 0 0 c 256
40 0 m 256
 40 -59 89 -112 152 -112 c 256
 211 -112 264 -63 264 0 c 256
 264 59 215 112 152 112 c 256
 93 112 40 63 40 0 c 256
EndSplineSet
Validated: 1
PickledDataWithLists: "(dp0
Vcom.fontlab.hintData
p1
(dp2
Vhhints
p3
(lp4
(dp5
Vposition
p6
I-152
sVwidth
p7
I40
sa(dp8
g6
I112
sg7
I40
sasVvhints
p9
(lp10
(dp11
g6
I0
sg7
I40
sa(dp12
g6
I264
sg7
I40
sass."
EndChar

StartChar: quotedbl
Encoding: 34 34 73
GlifName: quotedbl
Width: 448
VWidth: 0
GlyphClass: 2
Flags: W
HStem: 492 20G<246.961 298 397.961 448>
LayerCount: 2
Fore
SplineSet
151 0 m 257
 408 512 l 257
 448 512 l 257
 192 0 l 257
 151 0 l 257
0 0 m 257
 257 512 l 257
 298 512 l 257
 40 0 l 257
 0 0 l 257
EndSplineSet
Validated: 1
PickledDataWithLists: "(dp0
Vcom.fontlab.hintData
p1
(dp2
Vhhints
p3
(lp4
(dp5
Vposition
p6
I492
sVwidth
p7
I20
sass."
EndChar

StartChar: dollar
Encoding: 36 36 74
GlifName: dollar
Width: 448
VWidth: 0
GlyphClass: 2
Flags: W
HStem: 112 28.205<281.129 350.26> 320 125G<0 38 228 280> 320 125G<0 38 112.667 181 228 280>
VStem: 0 38<150.869 340> 0 30<-90.1348 51> 143 38<-340 -161.215> 151 30<-61 80.134> 228 52<140.234 445> 228 30<-104.393 99.1657> 370 78<-7.75718 100.089>
LayerCount: 2
Fore
SplineSet
0 340 m 257x9040
 38 340 l 257
 38 168 l 258
 38 158 50 148 58 151 c 258
 181 187 l 257x9240
 181 -340 l 257
 143 -340 l 257
 143 -179 l 258
 143 -171.224 134.042 -161.208 123.865 -161.208 c 256
 122.263 -161.208 120.632 -161.456 119 -162 c 258
 0 -197 l 257x8c40
 0 340 l 257x9040
30 51 m 257x8a40
 30 -75 l 258
 30 -88 41 -93 50 -90 c 258
 151 -61 l 257
 151 66 l 258
 151 77 139 83 130 80 c 258
 30 51 l 257x8a40
228 445 m 257xc140
 280 445 l 257
 280 157 l 258xc140
 280 150.093 291.925 140.205 302.907 140.205 c 256
 304.645 140.205 306.36 140.453 308 141 c 256
 327 149 345 153 361 153 c 256
 408 153 448 117 448 62 c 256
 448 -25 355 -80 291 -132 c 258
 244 -170 l 258
 237.807 -174.866 233.962 -177.775 231.6 -177.775 c 256
 228.622 -177.775 228 -173.153 228 -162 c 258xc0c0
 228 445 l 257xc140
316 112 m 256
 294 112 274 103 258 88 c 257
 258 -90 l 258x80c0
 258 -103 275.115 -107.168 281 -103 c 256
 332.801 -66.3076 370 -29 370 31 c 256
 370 89 348 112 316 112 c 256
EndSplineSet
Validated: 1
PickledDataWithLists: "(dp0
Vcom.fontlab.hintData
p1
(dp2
Vhhints
p3
(lp4
(dp5
Vposition
p6
I112
sVwidth
p7
I41
sa(dp8
g6
I167
sg7
I20
sa(dp9
g6
I425
sg7
I20
sasVvhints
p10
(lp11
(dp12
g6
I0
sg7
I38
sa(dp13
g6
I0
sg7
I30
sa(dp14
g6
I143
sg7
I38
sa(dp15
g6
I151
sg7
I30
sa(dp16
g6
I228
sg7
I52
sa(dp17
g6
I228
sg7
I30
sa(dp18
g6
I370
sg7
I78
sass."
EndChar

StartChar: quotesingle
Encoding: 39 39 75
GlifName: quotesingle
Width: 110
VWidth: 0
GlyphClass: 2
Flags: W
HStem: -239 273<-65.4346 -44.0923>
VStem: -110 110<-226.743 -64.2712>
LayerCount: 2
Fore
SplineSet
-55 -239 m 256
 -79 -239 -110 -225 -110 -171 c 256
 -110 -148 -96 -85 -68 5 c 256
 -61 26 -58 34 -55 34 c 256
 -52 34 -49 27 -41 4 c 256
 -11 -85 0 -146 0 -171 c 256
 0 -224 -33 -239 -55 -239 c 256
EndSplineSet
Validated: 1
PickledDataWithLists: "(dp0
Vcom.fontlab.hintData
p1
(dp2
Vvhints
p3
(lp4
(dp5
Vposition
p6
I-110
sVwidth
p7
I110
sass."
EndChar

StartChar: asterisk
Encoding: 42 42 76
GlifName: asterisk
Width: 440
VWidth: 0
GlyphClass: 2
Flags: W
HStem: 31 97<75.811 128> 129.376 24.624<197 203.001 238.084 244> 158 80<4.20706 89.1531 350.812 435.793> 182 32<66.0749 151.013 290.768 373.456> 242 21.805<197 201.253 240.105 244> 266 99<319.376 360.603> 297 68<58.0878 119.039> 398 20G<209 231.5> 398 20G<209 231.5>
VStem: 53 98<54.2211 105.726> 53 68<299.012 359.91> 152.16 23.84<175 179.087 216.762 221> 180 80<-17.607 66.5542 331.106 413.607> 205 30<46.699 128.11 266.279 348.454> 264 26.078<167.375 179.762 216.126 228.625>
LayerCount: 2
Fore
SplineSet
220 242 m 256xc812
 197 242 176 221 176 198 c 256
 176 175 197 154 220 154 c 256
 244 154 264 175 264 198 c 256
 264 221 244 242 220 242 c 256xc812
387 71 m 256
 387 50.208392163 367.800213999 31 347 31 c 256
 337 31 327 35 319 43 c 256
 298 64 311 85 288 108 c 258
 276 120 l 258
 269.495 126.505 262.638 129.376 256.433 129.376 c 256
 244.514 129.376 235 118.783 235 103 c 258
 235 83 l 258xd816
 235 54 260 46 260 18 c 256
 260 -4 243 -22 220 -22 c 256
 198 -22 180 -4 180 18 c 256xd81a
 180 46 205 54 205 83 c 258
 205 103 l 258
 205 122.638 196.855 131.298 186.466 131.298 c 256
 179.397 131.298 171.288 127.288 164 120 c 258
 151 107 l 258xd856
 132 88 142 64 121 43 c 256xd832
 113 35 103 31 93 31 c 256
 72.208392163 31 53 50.1997860013 53 71 c 256
 53 117.164627403 108.654950206 108.654950206 128 128 c 258
 141 141 l 258
 148.401 148.401 152.16 156.257 152.16 163.09 c 256
 152.16 173.801 142.925 182 124 182 c 258
 104 182 l 258xd852
 73 182 70 158 40 158 c 256
 17 158 0 175 0 198 c 256
 0 221 17 238 40 238 c 256xe852
 68 238 76 214 103 214 c 258
 125 214 l 258
 144.209 214 151.288 222.618 151.288 232.641 c 256
 151.288 240.359 147.091 248.909 141 255 c 258
 128 268 l 258
 107 289 84 278 65 297 c 256
 57 305 53 315 53 325 c 256
 53 345.791607837 72.1997860013 365 93 365 c 256
 103 365 113 361 121 353 c 256
 139 335 129 311 150 290 c 258
 164 276 l 258
 171.885 268.115 179.925 263.805 186.772 263.805 c 256
 197.294 263.805 205 273.981 205 297 c 258
 205 316 l 258xda36
 205 340 180 351 180 378 c 256
 180 400 198 418 220 418 c 256
 243 418 260 400 260 378 c 256xdb1a
 260 348 235 343 235 316 c 258
 235 297 l 258xdb16
 235 276.459 243.653 265.395 255.14 265.395 c 256
 261.548 265.395 268.838 268.838 276 276 c 258
 289 289 l 258
 309 309 300 334 319 353 c 256
 327 361 337 365 347 365 c 256
 367.791607837 365 387 345.800213999 387 325 c 256
 387 279.050511837 329.904918874 285.904918874 310 266 c 258
 299 255 l 258
 293.188 249.188 290.078 241.724 290.078 234.762 c 256
 290.078 223.755 297.849 214 315 214 c 258
 337 214 l 258xdc16
 365 214 372 238 400 238 c 256
 423 238 440 221 440 198 c 256
 440 175 423 158 400 158 c 256xe816
 370 158 366 182 336 182 c 258
 316 182 l 258xd816
 299.256 182 289.147 172.876 289.147 161.304 c 256
 289.147 154.908 292.236 147.764 299 141 c 258
 312 128 l 258
 333 107 355 119 375 99 c 256
 383 91 387 81 387 71 c 256
EndSplineSet
Validated: 1
PickledDataWithLists: "(dp0
Vcom.fontlab.hintData
p1
(dp2
Vhhints
p3
(lp4
(dp5
Vposition
p6
I158
sVwidth
p7
I80
sa(dp8
g6
I182
sg7
I32
sa(dp9
g6
I398
sg7
I20
sasVvhints
p10
(lp11
(dp12
g6
I180
sg7
I80
sa(dp13
g6
I205
sg7
I30
sass."
EndChar

StartChar: hyphen
Encoding: 45 45 77
GlifName: hyphen
Width: 300
VWidth: 0
GlyphClass: 2
Flags: W
HStem: -33 66<0 300>
VStem: 0 300<-33 33>
LayerCount: 2
Fore
SplineSet
0 33 m 257
 300 33 l 257
 300 -33 l 257
 0 -33 l 257
 0 33 l 257
EndSplineSet
Validated: 1
PickledDataWithLists: "(dp0
Vcom.fontlab.hintData
p1
(dp2
Vhhints
p3
(lp4
(dp5
Vposition
p6
I-33
sVwidth
p7
I66
sass."
EndChar

StartChar: at
Encoding: 64 64 78
GlifName: at
Width: 0
VWidth: 0
GlyphClass: 2
Flags: W
HStem: 185 20G<102 170>
LayerCount: 2
Fore
SplineSet
-170 105 m 257
 170 205 l 257
 170 91 l 257
 -170 -9 l 257
 -170 105 l 257
-170 -91 m 257
 170 9 l 257
 170 -105 l 257
 -170 -205 l 257
 -170 -91 l 257
EndSplineSet
Validated: 1
PickledDataWithLists: "(dp0
Vcom.fontlab.hintData
p1
(dp2
Vhhints
p3
(lp4
(dp5
Vposition
p6
I185
sVwidth
p7
I20
sass."
EndChar

StartChar: A
Encoding: 65 65 79
GlifName: A_
Width: 533
VWidth: 0
GlyphClass: 2
Flags: W
HStem: 111.515 27.485<236.058 300.032> 433 57G<92.1628 132 179 236 401 441> 433 57G<92.1628 132 179 236 401 441>
VStem: -0.0105968 34.9967<-11.6136 260.496> 179 57<139.004 490> 179 30<-103.182 95.664> 322.528 86.472<-5.93602 97.4355> 498.014 34.997<-10.496 261.614>
LayerCount: 2
Fore
SplineSet
401 437 m 257x93
 418 453 l 257
 464 398 533 288 533 125 c 256
 533.007 123.847 533.011 122.696 533.011 121.548 c 256
 533.011 -39.5539 463.675 -148.389 418 -203 c 257
 401 -187 l 257
 445.581 -119.633 498.014 -20.859 498.014 120.99 c 256
 498.014 267.183 446.765 367.843 401 437 c 257x93
132 -187 m 257
 115 -203 l 257
 69 -148 0 -38 0 125 c 256
 -0.00707575 126.153 -0.0105968 127.304 -0.0105968 128.452 c 256
 -0.0105968 289.554 69.3255 398.389 115 453 c 257
 132 437 l 257
 87.4189 369.633 34.9861 270.859 34.9861 129.01 c 256
 34.9861 -17.1828 86.2345 -117.843 132 -187 c 257
215 88 m 256
 211 84 209 79 209 73 c 258
 209 -96 l 258x97
 209 -104 222 -107 228 -103 c 256
 280.655 -66.1412 322.528 -33.9035 322.528 28.1835 c 256
 322.528 36.8438 321.714 46.0847 320 56 c 256
 313.65 95.2545 290.971 111.515 266.391 111.515 c 256
 248.392 111.515 229.373 102.795 215 88 c 256
179 490 m 257xdb
 236 490 l 257
 236 152 l 258xdb
 236 144 247 139 254 139 c 256
 260 139 290 153 319 153 c 256
 369 153 409 119 409 60 c 256
 409 -27 313 -77 242 -135 c 258
 189 -178 l 258
 180 -185 179 -184 179 -171 c 258xd7
 179 490 l 257xdb
EndSplineSet
Validated: 1
PickledDataWithLists: "(dp0
Vcom.fontlab.hintData
p1
(dp2
Vhhints
p3
(lp4
(dp5
Vposition
p6
I133
sVwidth
p7
I20
sa(dp8
g6
I433
sg7
I57
sasVvhints
p9
(lp10
(dp11
g6
I0
sg7
I35
sa(dp12
g6
I179
sg7
I57
sa(dp13
g6
I179
sg7
I30
sa(dp14
g6
I498
sg7
I35
sass."
EndChar

StartChar: B
Encoding: 66 66 80
GlifName: B_
Width: 703
VWidth: 0
GlyphClass: 2
Flags: W
HStem: -507 28<406.954 517.153> -194 21G<325.5 362> -85 32<413.407 528.94> 53 32<413.334 530.445> 291 21G<342 388> 291 21G<342 388> 479 28<406.954 516.717> 480 20G<10 124 187 220 325.5 362>
VStem: 10 114<-500 500> 187 33<-500 -29.7751 29.7275 500> 281 123<-466.5 -352 352 466.5> 330 24<-194 -160.584 160.67 194> 586 117<-379.538 -175.829 175.829 379.538>
LayerCount: 2
Fore
SplineSet
469 -85 m 256xfae8
 403 -85 370 -133 354 -194 c 257
 330 -194 l 257
 321 -136 288 -68 237 -30 c 256
 231 -25 220 -33 220 -40 c 258
 220 -500 l 257
 187 -500 l 257
 187 500 l 257
 220 500 l 257
 220 38 l 258
 220 30 230 24 238 30 c 256
 289 69 321 136 330 194 c 257
 354 194 l 257xf1d8
 370 133 403 85 469 85 c 256
 569 85 586 161 586 292 c 256
 585 429 543 479 451 479 c 256
 430 479 404 475 404 458 c 256
 404 434 449 422 449 370 c 256
 449 324 411 291 365 291 c 256
 319 291 281 329 281 375 c 256
 281 449 359 507 464 507 c 256
 611 507 703 410 703 279 c 256
 703 139 604 53 485 53 c 256
 453 53 425 61 401 75 c 256
 393 80 381 75 377 69 c 256
 364 51 347 31 335 15 c 256
 326 5 330 -7 335 -12 c 256
 350 -27 366 -48 377 -67 c 256
 380 -72 396 -78 405 -73 c 256
 428 -60 455 -53 485 -53 c 256
 604 -53 703 -139 703 -279 c 256
 703 -410 611 -507 464 -507 c 256
 359 -507 281 -449 281 -375 c 256
 281 -329 319 -291 365 -291 c 256
 411 -291 449 -324 449 -370 c 256
 449 -422 404 -434 404 -458 c 256
 404 -475 430 -479 451 -479 c 256
 545 -479 585 -429 586 -292 c 256
 586 -161 562 -85 469 -85 c 256xfae8
10 -500 m 257
 10 500 l 257
 124 500 l 257
 124 -500 l 257
 10 -500 l 257
EndSplineSet
Validated: 1
PickledDataWithLists: "(dp0
Vcom.fontlab.hintData
p1
(dp2
Vhhints
p3
(lp4
(dp5
Vposition
p6
I-507
sVwidth
p7
I28
sa(dp8
g6
I-194
sg7
I21
sa(dp9
g6
I-85
sg7
I32
sa(dp10
g6
I53
sg7
I32
sa(dp11
g6
I174
sg7
I20
sa(dp12
g6
I479
sg7
I28
sa(dp13
g6
I480
sg7
I20
sasVvhints
p14
(lp15
(dp16
g6
I10
sg7
I114
sa(dp17
g6
I187
sg7
I33
sa(dp18
g6
I281
sg7
I123
sa(dp19
g6
I330
sg7
I24
sa(dp20
g6
I586
sg7
I117
sass."
EndChar

StartChar: C
Encoding: 67 67 81
GlifName: C_
Width: 416
VWidth: 0
GlyphClass: 2
Flags: W
HStem: -255 37<228 302.944> -253 57.988<147.433 196> 222 33<228 312.2> 380 20G<196 228> 380 20G<196 228>
VStem: 0 118<-108.66 112.412> 196 32<-400 -255 -192.975 200.272 255 400> 322.211 93.789<94 194.538> 383 30<-121.24 -69.5333>
LayerCount: 2
Fore
SplineSet
313 207 m 256x77
 296 216 275 222 251 222 c 256
 243 222 235 222 228 221 c 257
 228 -217 l 257
 233 -218 238 -218 243 -218 c 256
 310 -218 372 -155 383 -68 c 257
 413 -70 l 257
 403 -157 343 -251 228 -255 c 257xb680
 228 -400 l 257
 196 -400 l 257
 196 -253 l 257
 89 -240 -0 -135 0 0 c 256
 0 132 78 234 196 252 c 257
 196 400 l 257
 228 400 l 257
 228 255 l 257
 235 255 l 258
 342 255 415 180 416 113 c 256
 416 75 386 44 348 44 c 256
 310 44 280 75 280 113 c 256
 280 137 291 158 311 171 c 256
 318.095 175.366 322.211 183.604 322.211 191.325 c 256
 322.211 197.752 319.359 203.82 313 207 c 256x77
174 200 m 256
 139 173 118 118 118 18 c 258
 118 -22 l 258
 118 -113 133 -165 162 -192 c 256
 164.346 -194.111 167.461 -195.012 170.857 -195.012 c 256x66
 181.938 -195.012 196 -185.42 196 -177 c 258
 196 192 l 258
 196 200 182 206 174 200 c 256
EndSplineSet
Validated: 1
PickledDataWithLists: "(dp0
Vcom.fontlab.hintData
p1
(dp2
Vhhints
p3
(lp4
(dp5
Vposition
p6
I-255
sVwidth
p7
I37
sa(dp8
g6
I44
sg7
I137
sa(dp9
g6
I222
sg7
I33
sasVvhints
p10
(lp11
(dp12
g6
I0
sg7
I118
sa(dp13
g6
I280
sg7
I136
sa(dp14
g6
I383
sg7
I30
sass."
EndChar

StartChar: E
Encoding: 69 69 82
GlifName: E_
Width: 326
VWidth: 0
GlyphClass: 2
Flags: W
HStem: 121 20G<199.5 239.5>
VStem: 0 26<-850 -790.368 -594.688 -123.911> 241 34<-431.585 -197.373>
LayerCount: 2
Fore
SplineSet
42 -595 m 256
 69 -595 95 -588 125 -569 c 256
 198 -521 241 -437 241 -321 c 256
 241 -241 220 -172 197 -120 c 257
 168 -133 135 -141 105 -141 c 256
 80 -141 57 -136 39 -124 c 256
 35 -122 26 -126 26 -129 c 258
 26 -582 l 258
 26 -588 33 -595 42 -595 c 256
326 50 m 256
 326 -9 276 -71 225 -105 c 257
 246 -147 275 -228 275 -320 c 256
 275 -535 145 -637 73 -728 c 256
 40 -769 27 -818 27 -850 c 257
 0 -850 l 257
 0 -49 l 257
 1 7 46 68 95 101 c 256
 130 125 178 141 221 141 c 256
 258 141 292 130 311 100 c 256
 322 85 326 68 326 50 c 256
EndSplineSet
Validated: 1
PickledDataWithLists: "(dp0
Vcom.fontlab.hintData
p1
(dp2
Vhhints
p3
(lp4
(dp5
Vposition
p6
I121
sVwidth
p7
I20
sasVvhints
p8
(lp9
(dp10
g6
I0
sg7
I26
sa(dp11
g6
I241
sg7
I34
sass."
EndChar

StartChar: F
Encoding: 70 70 83
GlifName: F_
Width: 831
VWidth: 0
GlyphClass: 2
Flags: W
HStem: -161 28<430.308 487.727> 0 35<420.898 473.969> 69 20G<503 508.5> 181 160G<9 14 846 875.5> 229 33<530.73 611.477 723.329 803.611> 235 35<44.5759 99.3856 194.14 249.075 339.872 395.469> 320 21G<846 875.5> 418 28<784.044 844.692>
VStem: 360 60<35.3687 123.008> 364 66<-132.484 -66.1934> 397 63<137.07 234.278> 845 66<351.193 417.484>
LayerCount: 2
Fore
SplineSet
449 -133 m 256xeb50
 514 -133 544.019 -46.5312 596 151 c 258
 606 189 l 258
 609.418 201.913 611.538 210.787 611.538 216.828 c 256
 611.538 226.692 605.885 229 591 229 c 258
 539 229 l 258
 527 229 524 230 530 248 c 256
 534 262 536 262 551 262 c 258
 602 262 l 258
 625 262 629 266 637 286 c 256
 681 391 744 446 824 446 c 256
 868 446 911 414 911 373 c 256
 911 345 891 320 860 320 c 256
 832 320 818 341 818 360 c 256
 818 394 845 397 845 408 c 256
 845 415 834 418 825 418 c 256
 778 418 755 382 726 287 c 256
 724.028 280.802 723.008 276.111 723.008 272.572 c 256
 723.008 263.548 729.635 262 744 262 c 258
 794 262 l 258
 804 262 809 260 804 246 c 256
 798 229 794 229 784 229 c 258
 732 229 l 258
 711 229 707 224 701 199 c 258
 678 113 l 258
 633.731 -52.527 553 -161 451 -161 c 256
 407 -161 364 -129 364 -88 c 256
 364 -60 384 -35 415 -35 c 256
 443 -35 457 -56 457 -75 c 256
 457 -109 430 -112 430 -123 c 256
 430 -130 440 -133 449 -133 c 256xeb50
505 89 m 256
 512 89 527 81 527 76 c 256
 527 74 525 71 523 67 c 256
 504 37 472 0 426 0 c 256
 380 0 360 34 360 73 c 256xe590
 360 90 363 107 370 124 c 258
 391 177 l 258
 394.147 184.943 397 198 397 209 c 256
 397 223 392 235 376 235 c 256
 356 235 335 217 319 193 c 256
 312 182 309 165 303 146 c 258
 263 12 l 258
 260 3 259.092 0 253 0 c 256
 241.365 0 239 7 224 7 c 256
 208 7 205.395 0 193 0 c 256
 190 0 189 2 189 5 c 256
 189 7 190 11 191 15 c 258
 243 177 l 258
 246 186 250 199 250 211 c 256
 250 224 245 235 230 235 c 256
 195 235 164 186 153 146 c 258
 113 12 l 258
 110 3 109.092 0 103 0 c 256
 91.3652 0 89 7 74 7 c 256
 58 7 55.3945 0 43 0 c 256
 40 0 39 2 39 5 c 256
 39 7 40 11 41 15 c 258
 93 177 l 258
 96 186 100 199 100 211 c 256
 100 224 95 235 80 235 c 256xe530
 59 235 40 217 23 190 c 256
 19 184 16 181 12 181 c 256xf130
 6 181 -8 188 -8 194 c 256
 -8 197 -7 200 -5 204 c 256
 14 234 46 270 92 270 c 256
 115 270 132 262 143 249 c 256
 151 240 155 234 162 234 c 256
 165 234 169 236 175 241 c 256
 194 258 216 270 242 270 c 256
 263 270 279 263 290 252 c 256
 298 243 303 236 310 236 c 256
 313 236 317 238 323 243 c 256
 341 259 363 270 388 270 c 256
 437 270 460 234 460 192 c 256xe530
 460 177 456.951 161.019 451 146 c 258
 430 93 l 258xe550
 426 83 420 67 420 54 c 256xe590
 420 43 425 35 438 35 c 256
 460 35 481 54 497 83 c 256
 499 87 501 89 505 89 c 256
EndSplineSet
Validated: 1
PickledDataWithLists: "(dp0
Vcom.fontlab.hintData
p1
(dp2
Vhhints
p3
(lp4
(dp5
Vposition
p6
I-161
sVwidth
p7
I28
sa(dp8
g6
I0
sg7
I35
sa(dp9
g6
I181
sg7
I21
sa(dp10
g6
I229
sg7
I33
sa(dp11
g6
I235
sg7
I35
sa(dp12
g6
I418
sg7
I28
sasVvhints
p13
(lp14
(dp15
g6
I360
sg7
I60
sa(dp16
g6
I364
sg7
I66
sa(dp17
g6
I397
sg7
I63
sa(dp18
g6
I845
sg7
I66
sass."
EndChar

StartChar: H
Encoding: 72 72 84
GlifName: H_
Width: 354
VWidth: 0
GlyphClass: 2
Flags: W
HStem: -133 26<-325.897 -247.751> 107 39<-122.27 -35.0989>
VStem: -354 26<-850 -133.829 -102.834 -45.052> -23 23<50.348 100.079>
LayerCount: 2
Fore
SplineSet
-331 -78 m 256
 -331 -97 -315 -107 -297 -107 c 256
 -264 -107 -211 -80 -151 -42 c 256
 -77 3 -23 46 -23 78 c 256
 -23 97 -39 107 -57 107 c 256
 -90 107 -143 80 -203 42 c 256
 -277 -3 -331 -46 -331 -78 c 256
-328 -850 m 257
 -354 -850 l 257
 -354 -62 l 258
 -354 -1 -302 79 -247 113 c 256
 -214 134 -164 146 -118 146 c 256
 -56 146 0 125 0 62 c 256
 0 1 -52 -79 -107 -113 c 256
 -140 -134 -190 -146 -236 -146 c 256
 -263 -146 -288 -142 -308 -133 c 256
 -316 -129 -328 -135 -328 -143 c 258
 -328 -850 l 257
EndSplineSet
Validated: 1
PickledDataWithLists: "(dp0
Vcom.fontlab.hintData
p1
(dp2
Vhhints
p3
(lp4
(dp5
Vposition
p6
I-133
sVwidth
p7
I26
sa(dp8
g6
I107
sg7
I39
sasVvhints
p9
(lp10
(dp11
g6
I-354
sg7
I26
sa(dp12
g6
I-23
sg7
I23
sass."
EndChar

StartChar: I
Encoding: 73 73 85
GlifName: I_
Width: 196
VWidth: 0
GlyphClass: 2
Flags: W
HStem: -264 21G<42 70> 224 20G<42 70 126 154 171 196> 244 20G<126 154>
VStem: 42 28<-264 -146.668 -68.0879 45.0872 122.912 244> 126 28<-244 -122.912 -45.0872 68.0879 146.668 264>
LayerCount: 2
Fore
SplineSet
69 -56 m 258x98
 69 -64 79 -70 87 -68 c 258
 116 -60 l 258
 122 -58 127 -52 127 -44 c 258
 127 56 l 258
 127 64 117 70 109 68 c 258
 80 60 l 258
 74 58 69 52 69 44 c 258
 69 -56 l 258x98
43 32 m 258
 43 40 35 47 28 45 c 258
 0 37 l 257
 0 98 l 257
 24 104 l 258
 37 108 42 116 42 128 c 258
 42 244 l 257
 70 244 l 257xd8
 70 135 l 258
 70 127 80 121 87 123 c 258
 113 130 l 258
 123 133 126 138 126 146 c 258
 126 264 l 257
 154 264 l 257xb8
 154 160 l 258
 154 152 164 145 171 147 c 258
 196 154 l 257
 196 93 l 257
 165 84 l 258
 158 83 153 78 153 70 c 258
 153 -32 l 258
 153 -40 161 -47 168 -45 c 258
 196 -37 l 257
 196 -98 l 257
 172 -104 l 258
 159 -108 154 -116 154 -128 c 258
 154 -244 l 257
 126 -244 l 257
 126 -135 l 258
 126 -127 116 -121 109 -123 c 258
 83 -130 l 258
 73 -133 70 -138 70 -146 c 258
 70 -264 l 257
 42 -264 l 257
 42 -160 l 258
 42 -152 32 -145 25 -147 c 258
 0 -154 l 257
 0 -93 l 257
 31 -84 l 258
 38 -83 43 -78 43 -70 c 258
 43 32 l 258
EndSplineSet
Validated: 1
PickledDataWithLists: "(dp0
Vcom.fontlab.hintData
p1
(dp2
Vhhints
p3
(lp4
(dp5
Vposition
p6
I134
sVwidth
p7
I20
sasVvhints
p8
(lp9
(dp10
g6
I42
sg7
I28
sa(dp11
g6
I126
sg7
I28
sass."
EndChar

StartChar: J
Encoding: 74 74 86
GlifName: J_
Width: 275
VWidth: 0
GlyphClass: 2
Flags: W
HStem: 206 474G<0 25 189 226.5>
VStem: 0 26<-62 -0.354767 193.124 206> 241 34<356.415 590.534>
LayerCount: 2
Fore
SplineSet
41 193 m 256
 68 193 95 200 125 219 c 256
 198 267 241 351 241 467 c 256
 241 556 215 633 189 686 c 257
 217 700 l 257
 236 665 275 574 275 468 c 256
 275 253 145 151 73 60 c 256
 40 19 26 -30 26 -62 c 257
 0 -62 l 257
 0 206 l 257
 25 206 l 257
 25 200 32 193 41 193 c 256
EndSplineSet
Validated: 1
PickledDataWithLists: "(dp0
Vcom.fontlab.hintData
p1
(dp2
Vhhints
p3
(lp4
(dp5
Vposition
p6
I680
sVwidth
p7
I20
sasVvhints
p8
(lp9
(dp10
g6
I0
sg7
I26
sa(dp11
g6
I241
sg7
I34
sass."
EndChar

StartChar: K
Encoding: 75 75 87
GlifName: K_
Width: 275
VWidth: 0
GlyphClass: 2
Flags: W
HStem: 68 20G<0 26>
VStem: 0 26<-120 -108.27 40.8781 88> 242 33<-398.246 -233.803>
LayerCount: 2
Fore
SplineSet
0 88 m 257
 26 88 l 257
 26 40 63 1 126 -49 c 256
 205 -112 275 -198 275 -316 c 256
 275 -371 258 -412 245 -435 c 257
 221 -410 l 257
 231 -386 242 -354 242 -315 c 256
 242 -242 207 -168 121 -127 c 256
 98 -116 67 -108 42 -108 c 256
 33 -108 26 -114 26 -120 c 257
 26 -120 11 -120 0 -120 c 257
 0 88 l 257
EndSplineSet
Validated: 1
PickledDataWithLists: "(dp0
Vcom.fontlab.hintData
p1
(dp2
Vhhints
p3
(lp4
(dp5
Vposition
p6
I-120
sVwidth
p7
I21
sasVvhints
p8
(lp9
(dp10
g6
I0
sg7
I27
sa(dp11
g6
I242
sg7
I33
sass."
EndChar

StartChar: L
Encoding: 76 76 88
GlifName: L_
Width: 304
VWidth: 0
GlyphClass: 2
Flags: W
HStem: -152 40<90.4229 213.111> 112 40<90.8888 213.577>
VStem: 0 40<-61.1112 61.5771> 264 40<-61.5771 61.1112>
LayerCount: 2
Fore
SplineSet
0 0 m 256
 0 86 72 152 152 152 c 256
 238 152 304 80 304 0 c 256
 304 -86 232 -152 152 -152 c 256
 66 -152 0 -80 0 0 c 256
40 0 m 256
 40 -59 89 -112 152 -112 c 256
 211 -112 264 -63 264 0 c 256
 264 59 215 112 152 112 c 256
 93 112 40 63 40 0 c 256
EndSplineSet
Validated: 1
PickledDataWithLists: "(dp0
Vcom.fontlab.hintData
p1
(dp2
Vhhints
p3
(lp4
(dp5
Vposition
p6
I-152
sVwidth
p7
I40
sa(dp8
g6
I112
sg7
I40
sasVvhints
p9
(lp10
(dp11
g6
I0
sg7
I40
sa(dp12
g6
I264
sg7
I40
sass."
EndChar

StartChar: M
Encoding: 77 77 89
GlifName: M_
Width: 586
VWidth: 0
GlyphClass: 2
Flags: W
HStem: -66 61<239.441 272.172> 8 56<314.038 345.031> 111 20G<144 151 284.278 290.995 388 394.5 563.5 568>
VStem: 276 35<-199.998 -66.0065 64.0073 200.029>
LayerCount: 2
Fore
SplineSet
21 -52 m 256
 15 -52 4 -35 4 -28 c 256
 4 -23 7 -18 14 -11 c 258
 119 107 l 258
 133 123 141 131 147 131 c 256
 155 131 161 120 175 98 c 258
 224 20 l 258
 235 3 243 -5 251 -5 c 256
 270 -5 277 24 277 55 c 256
 277 100 276 128 276 183 c 256
 276 198.696 278.73 200.06 289.826 200.06 c 256
 292.163 200.06 294.87 200 298 200 c 256
 309 200 311 199 311 181 c 258
 311 89 l 258
 311 74 313 64 318 64 c 256
 323 64 330 69 338 78 c 258
 363 106 l 258
 377 123 385 132 391 132 c 256
 398 132 404 123 417 103 c 258
 471 17 l 258
 482 1 488 -8 496 -8 c 256
 504 -8 514 2 533 22 c 258
 553 44 l 258
 558 50 562 53 565 53 c 256
 571 53 581 36 581 28 c 256
 581 23 578 17 571 9 c 258
 475 -98 l 258
 457 -118 448 -130 440 -130 c 256
 432 -130 425 -119 410 -96 c 258
 362 -21 l 258
 350 -2 343 8 335 8 c 256
 317 8 310 -18 310 -47 c 256
 310 -97 311 -140 311 -182 c 256
 311 -197 308 -200 295 -200 c 256
 279 -200 276 -200 276 -183 c 258
 276 -94 l 258
 276.102 -92.2646 276.152 -90.5917 276.152 -88.9866 c 256
 276.152 -74.8688 272.285 -66 266 -66 c 256
 261 -66 255 -70 248 -78 c 258
 225 -104 l 258
 209 -122 202 -131 195 -131 c 256
 187 -131 181 -121 168 -100 c 258
 115 -18 l 258
 104 -1 98 8 90 8 c 256
 82 8 73 0 58 -17 c 258
 36 -42 l 258
 29 -49 25 -52 21 -52 c 256
EndSplineSet
Validated: 1
PickledDataWithLists: "(dp0
Vcom.fontlab.hintData
p1
(dp2
Vhhints
p3
(lp4
(dp5
Vposition
p6
I-66
sVwidth
p7
I61
sa(dp8
g6
I8
sg7
I56
sa(dp9
g6
I111
sg7
I20
sasVvhints
p10
(lp11
(dp12
g6
I276
sg7
I35
sass."
EndChar

StartChar: N
Encoding: 78 78 90
GlifName: N_
Width: 582
VWidth: 0
GlyphClass: 2
Flags: W
HStem: 371 9G<100.684 146 196 238 436 481.909> 371 9G<100.684 146 196 238 321.5 386 436 481.909>
VStem: -0.010028 36.9966<-153.051 161.718> 196 42<-93.1319 71.6562 158.912 380> 344 42<-380 -158.914 -71.9062 94.1333> 545.013 36.997<-160.936 153.798>
LayerCount: 2
Fore
SplineSet
582.01 -7.76978 m 256x3c
 582.01 -193.911 508.632 -335.442 454 -401 c 257
 436 -383 l 257
 490.507 -295.789 545.013 -191.882 545.013 -8.98508 c 256
 545.013 -7.32987 545.009 -5.6682 545 -4 c 256
 545 180 491 285 436 373 c 257
 454 391 l 257
 509.817 324.02 582.01 180.082 582.01 -7.76978 c 256x3c
-0.010028 8.76965 m 256
 -0.010028 194.898 73.3682 335.442 128 401 c 257
 146 383 l 257
 91.4933 295.789 36.9866 192.864 36.9866 9.98484 c 256
 36.9866 8.32979 36.991 6.6682 37 5 c 256
 37 -179 91 -285 146 -373 c 257
 128 -391 l 257
 72.1833 -324.02 -0.010028 -179.079 -0.010028 8.76965 c 256
196 380 m 257xbc
 238 380 l 257
 238 172 l 258
 238 163 249 157 257 159 c 258
 386 199 l 257
 386 -380 l 257
 344 -380 l 257
 344 -172 l 258
 344 -165 334 -157 326 -159 c 258
 196 -199 l 257
 196 380 l 257xbc
350 83 m 258
 350 90 339 97 331 94 c 258
 246 68 l 258
 240 66 232 59 232 52 c 258
 232 -80 l 258
 232 -87 242 -96 253 -93 c 258
 336 -68 l 258
 345 -65 350 -59 350 -49 c 258
 350 83 l 258
EndSplineSet
Validated: 1
PickledDataWithLists: "(dp0
Vcom.fontlab.hintData
p1
(dp2
Vvhints
p3
(lp4
(dp5
Vposition
p6
I0
sVwidth
p7
I37
sa(dp8
g6
I196
sg7
I42
sa(dp9
g6
I344
sg7
I42
sa(dp10
g6
I545
sg7
I37
sass."
EndChar

StartChar: O
Encoding: 79 79 91
GlifName: O_
Width: 280
VWidth: 0
GlyphClass: 2
Flags: W
HStem: -120 55<124.146 171.771> 62 55<106.412 157.226>
VStem: 0 66<-12.2533 27.2151> 212 68<-27.7492 11.7624>
LayerCount: 2
Fore
SplineSet
171 97 m 256
 198 68 230 44 261 20 c 256
 275 9 280 2 280 -4 c 256
 280 -10 275 -15 266 -22 c 258
 162 -106 l 258
 151 -115 145 -120 138 -120 c 256
 132 -120 124 -115 112 -102 c 256
 85 -73 53 -48 21 -23 c 256
 7 -12 0 -4 0 2 c 256
 0 9 6 15 16 23 c 258
 116 103 l 258
 127 112 135 117 142 117 c 256
 150 117 158 111 171 97 c 256
78 -4 m 258
 134 -52 l 258
 144 -61 151 -65 157 -65 c 256
 163 -65 168 -62 174 -57 c 258
 197 -38 l 258
 207 -29 212 -23 212 -16 c 256
 212 -10 208 -3 197 6 c 258
 146 50 l 258
 137 58 130 62 124 62 c 256
 118 62 112 58 104 53 c 257
 81 34 l 258
 72 26 66 20 66 14 c 256
 66 9 70 3 78 -4 c 258
EndSplineSet
Validated: 1
PickledDataWithLists: "(dp0
Vcom.fontlab.hintData
p1
(dp2
Vhhints
p3
(lp4
(dp5
Vposition
p6
I-120
sVwidth
p7
I55
sa(dp8
g6
I62
sg7
I55
sasVvhints
p9
(lp10
(dp11
g6
I0
sg7
I66
sa(dp12
g6
I212
sg7
I68
sass."
EndChar

StartChar: P
Encoding: 80 80 92
GlifName: P_
Width: 921
VWidth: 0
GlyphClass: 2
Flags: W
HStem: -194 21G<521 528 595 603> -26 33<704.369 770.232> -6 35<418.898 469.964> 181 21G<9 14> 235 35<44.5759 99.3856 194.14 249.075 339.872 395.469 587.159 641.045 767.758 828.13>
VStem: 358 60<29.3687 117.312> 397 63<136.609 234.278> 642 51<68 211> 837 84<96.3483 228.268>
LayerCount: 2
Fore
SplineSet
634 270 m 256xbd80
 663 270 684 259 698 242 c 256
 706 232 713 225 722 225 c 256
 727 225 732 228 738 233 c 256
 763 254 791 266 819 266 c 256
 877 266 921 224 921 161 c 256
 921 59 832 -26 754 -26 c 256xdd80
 734 -26 715 -22 700 -13 c 256
 693 -9 685 -6 679 -6 c 256
 670 -6 663 -10 660 -21 c 258
 612 -182 l 258
 609 -192 606 -194 600 -194 c 256
 590 -194 582 -181 561 -181 c 256
 541 -181 533 -194 523 -194 c 256
 519 -194 517 -192 517 -189 c 256
 517 -187 518 -184 519 -181 c 258
 635 177 l 258
 638 186 642 199 642 211 c 256
 642 224 637 235 622 235 c 256
 581 235 556 176 534 108 c 256
 517 54 488 -6 424 -6 c 256
 378 -6 358 28 358 67 c 256xbd80
 358 84 361 101 368 118 c 258
 391 177 l 258
 394 185 397 198 397 209 c 256
 397 223 392 235 376 235 c 256
 356 235 335 217 319 193 c 256
 312 182 309 165 303 146 c 258
 263 12 l 258
 260 3 259 0 253 0 c 256
 241 0 239 7 224 7 c 256
 208 7 205 0 193 0 c 256
 190 0 189 2 189 5 c 256
 189 7 190 11 191 15 c 258
 243 177 l 258
 246 186 250 199 250 211 c 256
 250 224 245 235 230 235 c 256
 195 235 164 186 153 146 c 258
 113 12 l 258
 110 3 109 0 103 0 c 256
 91 0 89 7 74 7 c 256
 58 7 55 0 43 0 c 256
 40 0 39 2 39 5 c 256
 39 7 40 11 41 15 c 258
 93 177 l 258
 96 186 100 199 100 211 c 256
 100 224 95 235 80 235 c 256
 59 235 40 217 23 190 c 256
 19 184 16 181 12 181 c 256
 6 181 -8 188 -8 194 c 256
 -8 197 -7 200 -5 204 c 256
 14 234 46 270 92 270 c 256
 115 270 132 262 143 249 c 256
 151 240 155 234 162 234 c 256
 165 234 169 236 175 241 c 256
 194 258 216 270 242 270 c 256
 263 270 279 263 290 252 c 256
 298 243 303 236 310 236 c 256
 313 236 317 238 323 243 c 256
 341 259 363 270 388 270 c 256
 437 270 460 234 460 192 c 256xdb80
 460 177 457 161 451 146 c 258
 428 87 l 258
 424 77 418 61 418 48 c 256
 418 37 423 29 436 29 c 256
 473 29 493 79 505 119 c 256
 528 193 565 270 634 270 c 256xbd80
693 68 m 256
 693 32 708 7 734 7 c 256
 778 7 810 66 830 143 c 256
 835 160 837 175 837 187 c 256
 837 220 820 232 803 232 c 256
 750 232 693 139 693 68 c 256
EndSplineSet
Validated: 1
PickledDataWithLists: "(dp0
Vcom.fontlab.hintData
p1
(dp2
Vhhints
p3
(lp4
(dp5
Vposition
p6
I-194
sVwidth
p7
I21
sa(dp8
g6
I-26
sg7
I33
sa(dp9
g6
I-6
sg7
I35
sa(dp10
g6
I181
sg7
I21
sa(dp11
g6
I235
sg7
I35
sasVvhints
p12
(lp13
(dp14
g6
I358
sg7
I60
sa(dp15
g6
I397
sg7
I63
sa(dp16
g6
I642
sg7
I51
sa(dp17
g6
I837
sg7
I84
sass."
EndChar

StartChar: Q
Encoding: 81 81 93
GlifName: Q_
Width: 326
VWidth: 0
GlyphClass: 2
Flags: W
HStem: 121 20G<-126.5 -86.5>
VStem: -326 26<-850 -123.911>
LayerCount: 2
Fore
SplineSet
-95 -101 m 256
 -130 -125 -178 -141 -221 -141 c 256
 -246 -141 -269 -136 -287 -124 c 256
 -291 -122 -300 -126 -300 -129 c 258
 -300 -850 l 257
 -326 -850 l 257
 -326 -583 -326 -316 -326 -49 c 256
 -325 7 -280 68 -231 101 c 256
 -196 125 -148 141 -105 141 c 256
 -68 141 -34 130 -15 100 c 256
 -4 85 0 68 0 50 c 256
 0 -6 -46 -68 -95 -101 c 256
EndSplineSet
Validated: 1
PickledDataWithLists: "(dp0
Vcom.fontlab.hintData
p1
(dp2
Vhhints
p3
(lp4
(dp5
Vposition
p6
I121
sVwidth
p7
I20
sasVvhints
p8
(lp9
(dp10
g6
I-326
sg7
I26
sass."
EndChar

StartChar: R
Encoding: 82 82 94
GlifName: R_
Width: 275
VWidth: 0
GlyphClass: 2
Flags: W
HStem: 315 20G<0 25> 335 423G<0 25 198 235.5>
VStem: 0 26<-88 -40.8781 108.27 165.306 322.124 335> 242 33<233.803 379.268 473.272 688.565>
LayerCount: 2
Fore
SplineSet
242 571 m 256xb0
 242 658 214 730 198 767 c 257
 227 778 l 257
 244 748 275 659 275 572 c 256
 275 515 267 466 251 423 c 257
 263 399 275 362 275 316 c 256
 275 198 205 112 126 49 c 256
 63 -1 26 -40 26 -88 c 257
 0 -88 l 257
 0 335 l 257
 25 335 l 257
 25 329 32 322 41 322 c 256
 171 322 242 448 242 571 c 256xb0
26 120 m 256
 26 114 33 108 42 108 c 256
 67 108 98 116 121 127 c 256
 207 168 242 242 242 315 c 256
 242 339 238 361 232 380 c 257
 207 334 172 294 126 259 c 256
 68 214 26 165 26 120 c 256
EndSplineSet
Validated: 1
PickledDataWithLists: "(dp0
Vcom.fontlab.hintData
p1
(dp2
Vhhints
p3
(lp4
(dp5
Vposition
p6
I99
sVwidth
p7
I21
sasVvhints
p8
(lp9
(dp10
g6
I0
sg7
I27
sa(dp11
g6
I242
sg7
I33
sass."
EndChar

StartChar: S
Encoding: 83 83 95
GlifName: S_
Width: 574
VWidth: 0
GlyphClass: 2
Flags: W
HStem: -161 28<173.308 230.731> -9 28<64.1593 146.811> 81 20G<26.5 47.5> 170 21G<188.5 209 589 618.5> 229 33<273.73 354.477 466.329 546.611> 246 26<96.3774 173.588> 320 21G<589 618.5> 418 28<527.044 587.692>
VStem: 0 63.3931<20.519 82.0522> 41 47<183.888 240.078> 107 66<-132.484 -66.1934> 158 52<25.5635 86.7802> 174.034 60.966<188.023 244.948> 588 66<351.193 417.484>
LayerCount: 2
Fore
SplineSet
135 246 m 256xf74c
 108 246 88 234 88 216 c 256xf74c
 88 168 210 158 210 79 c 256
 210 26 164 -9 104 -9 c 256
 44 -9 0 24 0 59 c 256
 0 84 16 101 37 101 c 256
 58 101 72 87 72 67 c 256
 72 57 70 51 66 43 c 256
 64.2228 39.801 63.3931 36.981 63.3931 34.5064 c 256
 63.3931 23.0569 81.1539 19 105 19 c 256
 140 19 158 36 158 57 c 256xf794
 158 106 41 101 41 188 c 256
 41 234 86 272 139 272 c 256
 195 272 235 241 235 206 c 256
 235 185 218 170 200 170 c 256
 177 170 165 187 165 203 c 256
 165 211 167 219 171 224 c 256
 173.097 227.146 174.034 229.864 174.034 232.208 c 256
 174.034 243.276 153.155 246 135 246 c 256xf74c
192 -133 m 256
 257 -133 287 -47 339 151 c 258
 349 189 l 258
 352.418 201.913 354.538 210.787 354.538 216.828 c 256
 354.538 226.692 348.885 229 334 229 c 258
 282 229 l 258
 270 229 267 230 273 248 c 256
 277 262 279 262 294 262 c 258
 345 262 l 258
 368 262 372 266 380 286 c 256
 424 391 487 446 567 446 c 256
 611 446 654 414 654 373 c 256
 654 345 634 320 603 320 c 256
 575 320 561 341 561 360 c 256
 561 394 588 397 588 408 c 256
 588 415 577 418 568 418 c 256
 521 418 498 382 469 287 c 256
 467.028 280.802 466.008 276.111 466.008 272.572 c 256
 466.008 263.548 472.635 262 487 262 c 258
 537 262 l 258xfb24
 547 262 552 260 547 246 c 256xf724
 541 229 537 229 527 229 c 258
 475 229 l 258
 454 229 450 224 444 199 c 258
 421 113 l 258
 377 -53 296 -161 194 -161 c 256
 150 -161 107 -129 107 -88 c 256xfb24
 107 -60 127 -35 158 -35 c 256xfb14
 186 -35 200 -56 200 -75 c 256
 200 -109 173 -112 173 -123 c 256xfb24
 173 -130 183 -133 192 -133 c 256
EndSplineSet
Validated: 1
PickledDataWithLists: "(dp0
Vcom.fontlab.hintData
p1
(dp2
Vhhints
p3
(lp4
(dp5
Vposition
p6
I-161
sVwidth
p7
I28
sa(dp8
g6
I-9
sg7
I28
sa(dp9
g6
I81
sg7
I20
sa(dp10
g6
I170
sg7
I21
sa(dp11
g6
I229
sg7
I33
sa(dp12
g6
I246
sg7
I26
sa(dp13
g6
I418
sg7
I28
sasVvhints
p14
(lp15
(dp16
g6
I0
sg7
I72
sa(dp17
g6
I41
sg7
I47
sa(dp18
g6
I107
sg7
I66
sa(dp19
g6
I158
sg7
I52
sa(dp20
g6
I165
sg7
I70
sa(dp21
g6
I588
sg7
I66
sass."
EndChar

StartChar: T
Encoding: 84 84 96
GlifName: T_
Width: 560
VWidth: 0
GlyphClass: 2
Flags: W
HStem: -134 58<49.9959 133.5 396.709 499.778> 80 54<60.222 158.54 426.5 510.004>
VStem: 0 32<-59.4597 45.9837> 528 32<-45.9837 59.4597>
LayerCount: 2
Fore
SplineSet
0 -3 m 256
 0 67 54 134 128 134 c 256
 168 134 198 119 235 85 c 257
 377 -39 l 257
 397 -55 424 -80 452 -80 c 256
 489 -80 528 -48 528 4 c 256
 528 33 516 76 481 76 c 256
 457 76 455 44 423 44 c 256
 398 44 383 60 383 84 c 256
 383 112 407 134 446 134 c 256
 514 134 560 74 560 3 c 256
 560 -67 506 -134 432 -134 c 256
 392 -134 362 -119 325 -85 c 257
 183 39 l 257
 163 55 136 80 108 80 c 256
 71 80 32 48 32 -4 c 256
 32 -33 44 -76 79 -76 c 256
 103 -76 105 -44 137 -44 c 256
 162 -44 177 -60 177 -84 c 256
 177 -112 153 -134 114 -134 c 256
 46 -134 0 -74 0 -3 c 256
EndSplineSet
Validated: 1
PickledDataWithLists: "(dp0
Vcom.fontlab.hintData
p1
(dp2
Vhhints
p3
(lp4
(dp5
Vposition
p6
I-134
sVwidth
p7
I58
sa(dp8
g6
I80
sg7
I54
sasVvhints
p9
(lp10
(dp11
g6
I0
sg7
I32
sa(dp12
g6
I528
sg7
I32
sass."
EndChar

StartChar: U
Encoding: 85 85 97
GlifName: U_
Width: 706
VWidth: 0
GlyphClass: 2
Flags: W
HStem: -50 138<303.092 402.908> 241 142<240.808 465.192>
VStem: 0 29<-51 47.1094> 284 138<-30.9079 68.9079> 677 29<-51 47.1094>
CounterMasks: 1 38
LayerCount: 2
Fore
SplineSet
677 -51 m 257
 677 89 603 241 353 241 c 256
 103 241 29 89 29 -51 c 257
 0 -51 l 257
 0 189 143 383 353 383 c 256
 563 383 706 189 706 -51 c 257
 677 -51 l 257
284 19 m 256
 284 57 315 88 353 88 c 256
 391 88 422 57 422 19 c 256
 422 -19 391 -50 353 -50 c 256
 315 -50 284 -19 284 19 c 256
EndSplineSet
Validated: 1
PickledDataWithLists: "(dp0
Vcom.fontlab.hintData
p1
(dp2
Vhhints
p3
(lp4
(dp5
Vposition
p6
I-50
sVwidth
p7
I138
sa(dp8
g6
I241
sg7
I142
sasVvhints
p9
(lp10
(dp11
g6
I0
sg7
I29
sa(dp12
g6
I284
sg7
I138
sa(dp13
g6
I677
sg7
I29
sass."
EndChar

StartChar: V
Encoding: 86 86 98
GlifName: V_
Width: 709
VWidth: 0
GlyphClass: 2
Flags: W
HStem: -943 16<318.664 377.591> -703 47<313.245 392.756> -270 31<262.31 459.765> 149 130<425 536.453>
VStem: 0 69<-44.5643 155.107> 113 141<-629.5 -476.5> 189 68<-41.2767 83.8953> 261 31<-910.531 -840.7> 272 39<-768.006 -710.072> 397 41<-914.886 -851.047> 398 28<-779.288 -714.046> 510 34<-554.299 -349.033> 551 37<884.057 1050.29> 634 75<-91.8816 66.8908>
LayerCount: 2
Fore
SplineSet
634 -26 m 256xf81c
 634 78 572 149 458 149 c 258
 448 149 l 258
 435 149 425 146 425 135 c 258
 425 131 l 257
 497 -203 l 258
 498 -209 503 -213 508 -213 c 256
 509 -213 511 -213 512 -212 c 256
 585 -175 634 -131 634 -26 c 256xf81c
367 -239 m 256
 395 -239 464 -239 464 -216 c 258
 464 -213 l 257
 392 127 l 258
 391 132 383 139 375 139 c 258
 373 139 l 257
 289 121 257 70 257 13 c 256
 257 -39 281 -78 310 -121 c 256
 312 -124 313 -126 313 -127 c 256
 313 -129 312 -130 310 -130 c 256
 308 -130 306 -129 303 -128 c 256
 237 -102 189 -32 189 51 c 256xfa1c
 189 152 261 237 350 266 c 256
 357 268 360 271 360 277 c 256
 360 278 359 280 359 282 c 258
 330 415 l 258
 329 422 322 425 316 425 c 256
 311 425 307 423 303 420 c 256
 195 323 69 214 69 36 c 256
 69 -138 200 -239 367 -239 c 256
347 636 m 256
 433 714 551 838 551 978 c 256
 551 1024 539 1061 520 1100 c 256
 517 1108 508 1112 499 1112 c 256
 496 1112 494 1112 491 1111 c 256
 408 1079 296 960 296 791 c 256
 296 746 302 707 314 656 c 258
 318 640 l 258
 319 632 325 630 330 630 c 256
 336 630 343 632 347 636 c 256
231 -385 m 256
 296 -385 350 -436 350 -503 c 256
 350 -558 312 -607 259 -619 c 256
 256 -620 254 -623 254 -627 c 256
 254 -632 257 -639 261 -641 c 256
 280 -650 294 -656 328 -656 c 256
 434 -656 510 -588 510 -469 c 256
 510 -412 493 -350 476 -271 c 256
 475 -263 469 -261 460 -261 c 256
 429 -267 402 -270 369 -270 c 256
 170 -270 0 -132 0 75 c 256
 0 289 149 449 286 577 c 256
 291 582 292 586 292 592 c 258
 292 597 l 257
 287 622 l 258
 280 654 249 776 249 857 c 256
 249 1065 391 1231 441 1264 c 256
 444 1266 446 1267 447 1267 c 256
 449 1267 450 1266 453 1264 c 256
 484 1236 588 1096 588 929 c 256
 588 741 493 585 365 470 c 256
 359 465 357 459 357 452 c 256
 357 450 357 449 358 447 c 258
 391 290 l 258
 394 280 400 279 409 279 c 256
 414.666666667 279 420.333333333 279 426 279 c 256
 583 279 709 164 709 10 c 256
 709 -113 628 -199 521 -242 c 256
 516 -244 509 -252 509 -260 c 258
 509 -261 l 257
 526 -343 544 -412 544 -471 c 256
 544 -575 488 -652 408 -679 c 256
 403 -681 398 -697 403 -700 c 256
 418 -711 426 -726 426 -744 c 256xfd3c
 426 -765 415 -781 400 -793 c 256
 392 -799 396 -807 399 -810 c 256
 421 -825 438 -843 438 -870 c 256
 438 -910 394 -943 348 -943 c 256
 296 -943 261 -913 261 -880 c 256xf95c
 261 -854 276 -835 302 -821 c 256
 309 -817 306 -807 301 -803 c 256
 284 -790 272 -774 272 -751 c 256xf89c
 272 -733 282 -717 297 -705 c 256
 302 -702 297 -687 292 -686 c 256
 198 -669 113 -604 113 -509 c 256xfd1c
 113 -444 163 -385 231 -385 c 256
397 -889 m 256xf95c
 397 -857 364 -841 332 -823 c 257
 307 -834 292 -850 292 -876 c 256
 292 -900 314 -927 348 -927 c 256
 376 -927 397 -909 397 -889 c 256xf95c
311 -735 m 256xf8bc
 311 -761 339 -776 369 -792 c 257
 387 -781 398 -764 398 -746 c 256
 398 -722 381 -703 354 -703 c 256
 327 -703 311 -719 311 -735 c 256xf8bc
EndSplineSet
Validated: 1
PickledDataWithLists: "(dp0
Vcom.fontlab.hintData
p1
(dp2
Vhhints
p3
(lp4
(dp5
Vposition
p6
I-943
sVwidth
p7
I16
sa(dp8
g6
I-703
sg7
I47
sa(dp9
g6
I-270
sg7
I31
sa(dp10
g6
I149
sg7
I130
sasVvhints
p11
(lp12
(dp13
g6
I0
sg7
I69
sa(dp14
g6
I113
sg7
I141
sa(dp15
g6
I189
sg7
I68
sa(dp16
g6
I261
sg7
I31
sa(dp17
g6
I272
sg7
I39
sa(dp18
g6
I397
sg7
I41
sa(dp19
g6
I398
sg7
I28
sa(dp20
g6
I510
sg7
I34
sa(dp21
g6
I551
sg7
I37
sa(dp22
g6
I634
sg7
I75
sass."
EndChar

StartChar: W
Encoding: 87 87 99
GlifName: W_
Width: 649
VWidth: 0
GlyphClass: 2
Flags: W
HStem: -140 23.703<287.077 397.927> 116.437 23.563<252.489 364.741> 230 20G<1 27 81 107 543 569 623 649>
VStem: 1 26<-250 250> 81 136<-48.4844 74.6411> 81 26<-250 -74.851 74.9831 250> 432.336 136.664<-68.8867 50.5> 543 26<-250 -71.726 76.7693 250> 623 26<-250 250>
LayerCount: 2
Fore
SplineSet
623 250 m 257xf080
 649 250 l 257
 649 -250 l 257
 623 -250 l 257
 623 250 l 257xf080
1 250 m 257
 27 250 l 257
 27 -250 l 257
 1 -250 l 257
 1 250 l 257
410 52 m 258
 399.45 91.5609 361.078 116.437 310.509 116.437 c 256
 303.556 116.437 296.373 115.967 289 115 c 256
 233 108.333 217 78.5556 217 44.6296 c 256
 217 27.6667 221 9.66667 226 -7 c 258
 240 -52 l 258
 250.686 -88.5095 289.125 -116.297 341.194 -116.297 c 256
 347.599 -116.297 354.209 -115.876 361 -115 c 256
 416.731 -108.285 432.336 -78.1266 432.336 -44.8061 c 256xfa80
 432.336 -28.5023 428.6 -11.4416 424 4 c 258
 410 52 l 258
81 250 m 257xf580
 107 250 l 257
 107 86 l 258
 107 78.9265 111.864 74.9802 118.111 74.9802 c 256
 122.462 74.9802 127.484 76.8945 132 81 c 256
 181 126 267 140 330 140 c 256
 393 140 482 126 526 77 c 256
 531 72 543 72 543 82 c 258
 543 250 l 257
 569 250 l 257
 569 -250 l 257
 543 -250 l 257
 543 -77 l 258
 543 -70 531 -66 526 -72 c 256
 480 -124 386 -140 320 -140 c 256
 259 -140 176 -127 130 -83 c 256
 126.335 -79.3353 120.204 -74.8483 115.193 -74.8483 c 256
 110.632 -74.8483 107 -78.5648 107 -90 c 258
 107 -250 l 257
 81 -250 l 257
 81 250 l 257xf580
EndSplineSet
Validated: 1
PickledDataWithLists: "(dp0
Vcom.fontlab.hintData
p1
(dp2
Vhhints
p3
(lp4
(dp5
Vposition
p6
I-140
sVwidth
p7
I280
sasVvhints
p8
(lp9
(dp10
g6
I1
sg7
I26
sa(dp11
g6
I81
sg7
I26
sa(dp12
g6
I543
sg7
I26
sa(dp13
g6
I623
sg7
I26
sass."
EndChar

StartChar: X
Encoding: 88 88 100
GlifName: X_
Width: 326
VWidth: 0
GlyphClass: 2
Flags: W
HStem: 121 20G<199.5 239.5>
VStem: 0 27<-850 -802.878 -653.793 -600.177 -444.92 -123.911> 242 33<-528.197 -385.735 -293.641 -102.041>
LayerCount: 2
Fore
SplineSet
231 -101 m 257
 196 -125 148 -141 105 -141 c 256
 80 -141 57 -136 39 -124 c 256
 35 -122 26 -126 26 -129 c 258
 26 -432 l 258
 26 -438 33 -445 42 -445 c 256
 171 -445 242 -318 242 -196 c 256
 242 -161 238 -129 231 -101 c 257
27 -642 m 256
 27 -648 34 -654 43 -654 c 256
 68 -654 98 -646 121 -635 c 256
 207 -594 242 -520 242 -447 c 256
 242 -424 238 -403 233 -385 c 257
 208 -432 172 -472 126 -508 c 256
 68 -553 27 -602 27 -642 c 256
0 -850 m 257
 0 -49 l 257
 1 7 46 68 95 101 c 256
 130 125 178 141 221 141 c 256
 258 141 292 130 311 100 c 256
 322 85 326 68 326 50 c 256
 326 5 296 -44 259 -78 c 257
 268 -113 275 -154 275 -195 c 256
 275 -251 267 -299 252 -341 c 257
 264 -365 275 -401 275 -446 c 256
 275 -564 205 -650 126 -713 c 256
 63 -763 27 -802 27 -850 c 257
 0 -850 l 257
EndSplineSet
Validated: 1
PickledDataWithLists: "(dp0
Vcom.fontlab.hintData
p1
(dp2
Vhhints
p3
(lp4
(dp5
Vposition
p6
I121
sVwidth
p7
I20
sasVvhints
p8
(lp9
(dp10
g6
I0
sg7
I27
sa(dp11
g6
I242
sg7
I33
sass."
EndChar

StartChar: Y
Encoding: 89 89 101
GlifName: Y_
Width: 396
VWidth: 0
GlyphClass: 2
Flags: W
HStem: -140 34<117.26 276.994> 101 34<34.279 361.704>
VStem: 0 34<-32.8833 100.653> 362 34<-30.1929 100.407>
LayerCount: 2
Fore
SplineSet
34 25 m 258
 34 -44 102 -106 198 -106 c 256
 290 -106 362 -47 362 25 c 258
 362 76 l 258
 362 96 359 101 333 101 c 258
 61 101 l 258
 38 101 34 98 34 76 c 258
 34 25 l 258
396 25 m 258
 396 -72 302 -140 198 -140 c 256
 90 -140 0 -69 0 25 c 258
 0 111 l 258
 0 134 0 135 23 135 c 258
 365 135 l 258
 393 135 396 134 396 104 c 258
 396 25 l 258
EndSplineSet
Validated: 1
PickledDataWithLists: "(dp0
Vcom.fontlab.hintData
p1
(dp2
Vhhints
p3
(lp4
(dp5
Vposition
p6
I-140
sVwidth
p7
I34
sa(dp8
g6
I101
sg7
I34
sasVvhints
p9
(lp10
(dp11
g6
I0
sg7
I34
sa(dp12
g6
I362
sg7
I34
sass."
EndChar

StartChar: Z
Encoding: 90 90 102
GlifName: Z_
Width: 593
VWidth: 0
GlyphClass: 2
Flags: W
HStem: -144 28<-13.6921 45.2598> -17 47<464.328 547.68> 106 20G<533.5 556> 149 192G<363.5 372 393 422.5> 200 68<390.526 480> 229 33<77.7302 158.477 270.329 350.611> 320 21G<393 422.5> 418 28<331.044 391.692>
VStem: -80 66<-115.484 -49.1934> 353 27<149.03 156> 392 66<351.193 417.484> 548 45<30.7179 87>
LayerCount: 2
Fore
SplineSet
5 -116 m 256xe7f0
 70 -116 91 -47 143 151 c 258
 153 189 l 258
 156.418 201.913 158.538 210.787 158.538 216.828 c 256
 158.538 226.692 152.885 229 138 229 c 258
 86 229 l 258
 74 229 71 230 77 248 c 256
 81 262 83 262 98 262 c 258
 149 262 l 258
 172 262 176 266 184 286 c 256
 228 391 291 446 371 446 c 256
 415 446 458 414 458 373 c 256
 458 345 438 320 407 320 c 256
 379 320 365 341 365 360 c 256
 365 394 392 397 392 408 c 256
 392 415 381 418 372 418 c 256
 325 418 302 382 273 287 c 256
 271.028 280.802 270.008 276.111 270.008 272.572 c 256
 270.008 263.548 276.635 262 291 262 c 258
 341 262 l 258
 351 262 356 260 351 246 c 256
 345 229 341 229 331 229 c 258
 279 229 l 258
 258 229 254 224 248 199 c 258
 225 113 l 258
 181 -53 109 -144 7 -144 c 256
 -37 -144 -80 -112 -80 -71 c 256
 -80 -43 -60 -18 -29 -18 c 256
 -1 -18 13 -39 13 -58 c 256
 13 -92 -14 -95 -14 -106 c 256
 -14 -113 -4 -116 5 -116 c 256xe7f0
529 30 m 256
 542 30 548 36 548 43 c 256
 548 48 545 54 537 59 c 256
 526 66 513 82 513 96 c 256
 513 110 524 126 543 126 c 256
 569 126 593 104 593 70 c 256
 593 20 549 -17 507 -17 c 256
 462 -17 444 16 413 29 c 256
 409 31 405 31 401 31 c 256
 393 31 387 28 381 22 c 258
 360 2 l 258
 357 0 355 -2 348 -2 c 256
 336 -2 327 -1 327 4 c 256
 327 6 329 10 333 14 c 258
 485 179 l 258
 488 182 490 187 490 190 c 256
 490 194 488 196 480 197 c 258
 422 200 l 257
 417 200 l 258xe9f0
 399 200 395 188 387 171 c 258
 380 156 l 258
 377 149 375 149 369 149 c 256xf1f0
 358 149 353 150 353 156 c 256
 353 157 353 158 354 160 c 258
 385 256 l 258
 388 265 389 268 397 268 c 256xe9f0
 409 268 485 262 536 262 c 256
 555 262 574 263 583 263 c 256
 588 263 591 261 591 257 c 256
 591 254 588 248 582 241 c 258
 447 94 l 258
 439 86 435 81 435 76 c 256
 435 72 441 67 454 58 c 256
 472 46 504 30 529 30 c 256
EndSplineSet
Validated: 1
PickledDataWithLists: "(dp0
Vcom.fontlab.hintData
p1
(dp2
Vhhints
p3
(lp4
(dp5
Vposition
p6
I-144
sVwidth
p7
I28
sa(dp8
g6
I-17
sg7
I47
sa(dp9
g6
I106
sg7
I20
sa(dp10
g6
I149
sg7
I21
sa(dp11
g6
I200
sg7
I68
sa(dp12
g6
I229
sg7
I33
sa(dp13
g6
I418
sg7
I28
sasVvhints
p14
(lp15
(dp16
g6
I-80
sg7
I66
sa(dp17
g6
I353
sg7
I27
sa(dp18
g6
I392
sg7
I66
sa(dp19
g6
I548
sg7
I45
sass."
EndChar

StartChar: backslash
Encoding: 92 92 103
GlifName: backslash
Width: 42
VWidth: 0
GlyphClass: 2
Flags: W
VStem: 0 19<0 1014>
LayerCount: 2
Fore
SplineSet
19 1014 m 257
 19 0 l 257
 0 0 l 257
 0 1014 l 257
 19 1014 l 257
EndSplineSet
Validated: 1
PickledDataWithLists: "(dp0
Vcom.fontlab.hintData
p1
(dp2
Vhhints
p3
(lp4
(dp5
Vposition
p6
I0
sVwidth
p7
I20
sasVvhints
p8
(lp9
(dp10
g6
I0
sg7
I19
sass."
EndChar

StartChar: asciicircum
Encoding: 94 94 104
GlifName: asciicircum
Width: 348
VWidth: 0
GlyphClass: 2
Flags: W
HStem: 348 20G<172.5 173.5> 348 20G<172.5 173.5>
LayerCount: 2
Fore
SplineSet
348 0 m 257x80
 243 0 l 257
 152 194 l 258
 150 198 145 200 141 200 c 256
 137 200 131 198 129 194 c 258
 39 0 l 257
 0 0 l 257
 169 364 l 258
 170 367 172 368 173 368 c 256
 174 368 176 367 177 364 c 258
 348 0 l 257x80
EndSplineSet
Validated: 1
PickledDataWithLists: "(dp0
Vcom.fontlab.hintData
p1
(dp2
Vhhints
p3
(lp4
(dp5
Vposition
p6
I348
sVwidth
p7
I20
sa(dp8
g6
I348
sg7
I20
sass."
EndChar

StartChar: grave
Encoding: 96 96 105
GlifName: grave
Width: 548
VWidth: 0
GlyphClass: 2
Flags: W
HStem: -309 32<5.58261 74.2723 148.66 206.275 316.643 401.953> -82 32<352.771 429.603> 25 60<372.655 508.738> 27 71<358.146 434.451>
VStem: 241.967 74<-277.982 -198.449> 446.967 69<-230.26 -93.6427>
LayerCount: 2
Fore
SplineSet
515.967 -162 m 256xdc
 515.967 -262 437.967 -313 357.967 -313 c 256
 291.967 -313 241.967 -276 241.967 -227 c 256
 241.967 -195 262.967 -170 293.967 -170 c 256
 321.967 -170 335.967 -192 335.967 -216 c 256
 335.967 -244 315.967 -255 315.967 -266 c 256
 315.967 -276 332.967 -281 357.967 -281 c 256
 409.967 -281 446.967 -208 446.967 -146 c 256
 446.967 -107 427.967 -82 387.967 -82 c 256
 366.967 -82 337.967 -87 317.967 -94 c 256
 310.967 -96 298.967 -92 301.967 -85 c 256
 323.967 -22 334.967 18 347.967 89 c 256
 348.967 96 352.967 98 356.967 98 c 256xdc
 365.967 98 395.967 85 448.967 85 c 256xec
 487.967 85 533.967 98 542.967 98 c 256xdc
 549.967 98 551.967 92 540.967 76 c 256
 518.967 43 471.967 25 422.967 25 c 256xec
 410.967 25 394.967 27 381.967 27 c 256
 371.967 27 368.967 25 364.967 11 c 256
 359.967 -6 354.967 -20 348.967 -41 c 256
 346.967 -47 346.967 -54 357.967 -54 c 256
 372.967 -54 383.967 -50 412.967 -50 c 256
 473.967 -50 515.967 -99 515.967 -162 c 256xdc
189.967 -309 m 258
 10.9668 -309 l 258
 0.966797 -309 -4.0332 -306 3.9668 -291 c 256
 9.9668 -277 12.9668 -277 21.9668 -277 c 258
 39.9668 -277 l 258
 80.9668 -277 83.9668 -241 95.9668 -206 c 258
 151.967 -36 l 258
 153.669 -30.1634 154.485 -25.5688 154.485 -22.2306 c 256
 154.485 -17.8288 153.067 -15.6115 150.397 -15.6115 c 256
 146.766 -15.6115 140.818 -19.7133 132.967 -28 c 258
 56.9668 -105 l 258
 48.9668 -113 44.9668 -113 35.9668 -104 c 256
 25.9668 -95 29.9668 -91 36.9668 -82 c 258
 182.967 89 l 258
 191.967 99 193.967 101 197.967 101 c 256
 203.967 101 213.967 93 224.967 93 c 256
 237.967 93 244.967 101 252.967 101 c 256
 256.967 101 258.967 99 254.967 87 c 258
 150.967 -244 l 258
 149.324 -248.928 148.431 -253.631 148.431 -257.863 c 256
 148.431 -269.089 154.716 -277 169.967 -277 c 258
 197.967 -277 l 258
 209.967 -277 212.967 -277 206.967 -292 c 256
 199.967 -306 198.967 -309 189.967 -309 c 258
EndSplineSet
Validated: 1
PickledDataWithLists: "(dp0
Vcom.fontlab.hintData
p1
(dp2
Vhhints
p3
(lp4
(dp5
Vposition
p6
I-309
sVwidth
p7
I32
sa(dp8
g6
I-82
sg7
I32
sa(dp9
g6
I25
sg7
I60
sa(dp10
g6
I27
sg7
I71
sasVvhints
p11
(lp12
(dp13
g6
I242
sg7
I74
sa(dp14
g6
I447
sg7
I69
sass."
EndChar

StartChar: a
Encoding: 97 97 106
GlifName: a
Width: 565
VWidth: 0
GlyphClass: 2
Flags: W
HStem: 343 43G<100.684 146 203 242 323 362 419 464.909> 343 43G<100.684 146 203 242 323 362 379 409 419 464.909>
VStem: -0.010028 36.9966<-168.051 146.718> 203 39<-368 -191.913 -83.0879 50.0872 157.912 343> 323 39<-343 -157.912 -50.0872 83.0879 191.913 368> 528.013 36.997<-145.936 168.798>
LayerCount: 2
Fore
SplineSet
565.01 7.23022 m 256x3c
 565.01 -178.911 491.632 -320.442 437 -386 c 257
 419 -368 l 257
 473.507 -280.789 528.013 -176.882 528.013 6.01492 c 256
 528.013 7.67013 528.009 9.3318 528 11 c 256
 528 195 474 300 419 388 c 257
 437 406 l 257
 492.817 339.02 565.01 195.082 565.01 7.23022 c 256x3c
-0.010028 -6.23035 m 256
 -0.010028 179.898 73.3682 320.442 128 386 c 257xbc
 146 368 l 257
 91.4933 280.789 36.9866 177.864 36.9866 -5.01516 c 256
 36.9866 -6.67021 36.991 -8.3318 37 -10 c 256
 37 -194 91 -300 146 -388 c 257
 128 -406 l 257
 72.1833 -339.02 -0.010028 -194.079 -0.010028 -6.23035 c 256
358 -37 m 258
 358 -45 367 -52 374 -50 c 258
 409 -39 l 257
 409 -127 l 257
 380 -136 l 258
 367 -140 362 -146 362 -158 c 258
 362 -343 l 257
 323 -343 l 257
 323 -170 l 258
 323 -162 312 -156 305 -158 c 258
 256 -172 l 258
 246 -175 242 -181 242 -189 c 258
 242 -368 l 257
 203 -368 l 257
 203 -205 l 258
 203 -197 193 -190 186 -192 c 258
 156 -201 l 257
 156 -113 l 257
 196 -101 l 258
 203 -99 207 -94 207 -86 c 258
 207 37 l 258
 207 45 198 52 191 50 c 258
 156 39 l 257
 156 127 l 257
 185 136 l 258
 198 140 203 146 203 158 c 258
 203 343 l 257
 242 343 l 257
 242 170 l 258
 242 162 253 156 260 158 c 258
 309 172 l 258
 319 175 323 181 323 189 c 258
 323 368 l 257
 362 368 l 257
 362 205 l 258
 362 197 372 190 379 192 c 258
 409 201 l 257
 409 113 l 257
 369 101 l 258
 362 99 358 94 358 86 c 258
 358 -37 l 258
326 71 m 258
 326 79 314 85 306 83 c 258
 249 67 l 258
 243 65 239 59 239 51 c 258
 239 -71 l 258
 239 -79 252 -85 258 -83 c 258
 316 -67 l 258
 322 -65 326 -59 326 -51 c 258
 326 71 l 258
EndSplineSet
Validated: 1
PickledDataWithLists: "(dp0
Vcom.fontlab.hintData
p1
(dp2
Vvhints
p3
(lp4
(dp5
Vposition
p6
I0
sVwidth
p7
I37
sa(dp8
g6
I203
sg7
I39
sa(dp9
g6
I323
sg7
I39
sa(dp10
g6
I528
sg7
I37
sass."
EndChar

StartChar: b
Encoding: 98 98 107
GlifName: b
Width: 220
VWidth: 0
GlyphClass: 2
Flags: W
HStem: 112 28.205<53.1294 122.26> 425 20G<0 52> 425 20G<0 52>
VStem: 0 52<140.234 445> 0 30<-104.393 99.1657> 142 78<-7.75718 100.089>
LayerCount: 2
Fore
SplineSet
0 445 m 257xd4
 52 445 l 257
 52 157 l 258xd4
 52 150.093 63.9253 140.205 74.9066 140.205 c 256
 76.6451 140.205 78.3599 140.453 80 141 c 256
 99 149 117 153 133 153 c 256
 180 153 220 117 220 62 c 256
 220 -25 127 -80 63 -132 c 258
 16 -170 l 258
 9.80682 -174.866 5.96194 -177.775 3.59967 -177.775 c 256
 0.621903 -177.775 4.44089e-16 -173.153 0 -162 c 258xcc
 0 445 l 257xd4
88 112 m 256
 66 112 46 103 30 88 c 257
 30 -90 l 258x8c
 30 -103 47.1156 -107.168 53 -103 c 256
 104.801 -66.3075 142 -29 142 31 c 256
 142 89 120 112 88 112 c 256
EndSplineSet
Validated: 1
PickledDataWithLists: "(dp0
Vcom.fontlab.hintData
p1
(dp2
Vhhints
p3
(lp4
(dp5
Vposition
p6
I100
sVwidth
p7
I53
sasVvhints
p8
(lp9
(dp10
g6
I0
sg7
I50
sa(dp11
g6
I157
sg7
I69
sass."
EndChar

StartChar: c
Encoding: 99 99 108
GlifName: c
Width: 416
VWidth: 0
GlyphClass: 2
Flags: W
HStem: -255 37<174.769 303.289> 222 33<184.705 312.755>
VStem: 0 118<-106.733 112.311> 323.264 92.736<94 193.669> 383 30<-120.122 -69.5333>
LayerCount: 2
Fore
SplineSet
314 207 m 256xf0
 296 216 275 222 251 222 c 256
 171 222 118 178 118 18 c 258
 118 -22 l 258
 118 -177 162 -218 243 -218 c 256
 310 -218 372 -155 383 -68 c 257
 413 -70 l 257xe8
 403 -159 340 -255 220 -255 c 256
 102 -255 0 -145 0 0 c 256
 0 146 95 255 235 255 c 256
 342 255 415 180 416 113 c 256
 416 75 386 44 348 44 c 256
 310 44 280 75 280 113 c 256
 280 137 292 160 313 172 c 256
 319.75 175.634 323.264 183.043 323.264 190.306 c 256
 323.264 197.033 320.25 203.634 314 207 c 256xf0
EndSplineSet
Validated: 1
PickledDataWithLists: "(dp0
Vcom.fontlab.hintData
p1
(dp2
Vhhints
p3
(lp4
(dp5
Vposition
p6
I-255
sVwidth
p7
I37
sa(dp8
g6
I44
sg7
I137
sa(dp9
g6
I222
sg7
I33
sasVvhints
p10
(lp11
(dp12
g6
I0
sg7
I118
sa(dp13
g6
I280
sg7
I136
sa(dp14
g6
I383
sg7
I30
sass."
EndChar

StartChar: e
Encoding: 101 101 109
GlifName: e
Width: 326
VWidth: 0
GlyphClass: 2
Flags: W
HStem: 88 21G<489 526.5> 121 729G<199.5 233.5 300 327>
VStem: 300 26<123.911 594.688 790.368 850> 541 34<197.466 431.585>
LayerCount: 2
Fore
SplineSet
95 101 m 256
 130 125 178 141 221 141 c 256
 246 141 269 136 287 124 c 256
 291 122 300 126 300 129 c 258
 300 850 l 257
 327 850 l 257
 327 818 340 769 373 728 c 256
 445 637 575 535 575 320 c 256
 575 214 536 123 517 88 c 257
 489 102 l 257
 515 155 541 232 541 321 c 256
 541 437 498 521 425 569 c 256
 395 588 369 595 342 595 c 256
 333 595 326 588 326 582 c 258
 326 49 l 257
 325 -7 280 -68 231 -101 c 256
 196 -125 148 -141 105 -141 c 256
 68 -141 34 -130 15 -100 c 256
 4 -85 0 -68 0 -50 c 256
 0 6 46 68 95 101 c 256
EndSplineSet
Validated: 1
PickledDataWithLists: "(dp0
Vcom.fontlab.hintData
p1
(dp2
Vhhints
p3
(lp4
(dp5
Vposition
p6
I121
sVwidth
p7
I20
sa(dp8
g6
I830
sg7
I20
sasVvhints
p9
(lp10
(dp11
g6
I300
sg7
I26
sa(dp12
g6
I541
sg7
I34
sass."
EndChar

StartChar: f
Encoding: 102 102 110
GlifName: f
Width: 378
VWidth: 0
GlyphClass: 2
Flags: W
HStem: -144 28<-13.6921 45.2555> 229 33<77.7302 158.477 270.329 350.611> 320 21G<393 422.5> 320 21G<393 422.5> 418 28<331.044 391.692>
VStem: -80 66<-115.484 -49.1934> 392 66<351.193 417.484>
LayerCount: 2
Fore
SplineSet
5 -116 m 256xee
 70 -116 91.0181 -46.5311 143 151 c 258
 153 189 l 258
 156.418 201.913 158.538 210.787 158.538 216.828 c 256
 158.538 226.692 152.885 229 138 229 c 258
 86 229 l 258
 74 229 71 230 77 248 c 256
 81 262 83 262 98 262 c 258
 149 262 l 258
 172 262 176 266 184 286 c 256
 228 391 291 446 371 446 c 256
 415 446 458 414 458 373 c 256
 458 345 438 320 407 320 c 256
 379 320 365 341 365 360 c 256
 365 394 392 397 392 408 c 256
 392 415 381 418 372 418 c 256
 325 418 302 382 273 287 c 256
 271.028 280.802 270.008 276.111 270.008 272.572 c 256
 270.008 263.548 276.635 262 291 262 c 258
 341 262 l 258
 351 262 356 260 351 246 c 256
 345 229 341 229 331 229 c 258
 279 229 l 258
 258 229 254 224 248 199 c 258
 225 113 l 258
 180.731 -52.527 109 -144 7 -144 c 256
 -37 -144 -80 -112 -80 -71 c 256
 -80 -43 -60 -18 -29 -18 c 256
 -1 -18 13 -39 13 -58 c 256
 13 -92 -14 -95 -14 -106 c 256
 -14 -113 -4 -116 5 -116 c 256xee
EndSplineSet
Validated: 1
PickledDataWithLists: "(dp0
Vcom.fontlab.hintData
p1
(dp2
Vhhints
p3
(lp4
(dp5
Vposition
p6
I-144
sVwidth
p7
I28
sa(dp8
g6
I229
sg7
I33
sa(dp9
g6
I418
sg7
I28
sasVvhints
p10
(lp11
(dp12
g6
I-80
sg7
I66
sa(dp13
g6
I392
sg7
I66
sass."
EndChar

StartChar: h
Encoding: 104 104 111
GlifName: h
Width: 354
VWidth: 0
GlyphClass: 2
Flags: W
HStem: -146 39<35.0989 122.27> 107 26<247.751 325.897> 830 20G<328 354>
VStem: 0 23<-100.079 -50.348> 328 26<45.052 102.834 133.829 850>
LayerCount: 2
Fore
SplineSet
331 78 m 256
 331 97 315 107 297 107 c 256
 264 107 211 80 151 42 c 256
 77 -3 23 -46 23 -78 c 256
 23 -97 39 -107 57 -107 c 256
 90 -107 143 -80 203 -42 c 256
 277 3 331 46 331 78 c 256
328 850 m 257
 354 850 l 257
 354 62 l 258
 354 1 302 -79 247 -113 c 256
 214 -134 164 -146 118 -146 c 256
 56 -146 0 -125 0 -62 c 256
 0 -1 52 79 107 113 c 256
 140 134 190 146 236 146 c 256
 263 146 288 142 308 133 c 256
 316 129 328 135 328 143 c 258
 328 850 l 257
EndSplineSet
Validated: 1
PickledDataWithLists: "(dp0
Vcom.fontlab.hintData
p1
(dp2
Vhhints
p3
(lp4
(dp5
Vposition
p6
I-146
sVwidth
p7
I39
sa(dp8
g6
I107
sg7
I26
sa(dp9
g6
I830
sg7
I20
sasVvhints
p10
(lp11
(dp12
g6
I0
sg7
I23
sa(dp13
g6
I328
sg7
I26
sass."
EndChar

StartChar: i
Encoding: 105 105 112
GlifName: i
Width: 168
VWidth: 0
GlyphClass: 2
Flags: W
HStem: 85.3405 21.6595<44.4336 92.027> 320 20G<0 43> 320 20G<0 43>
VStem: 0 43<107.006 340> 0 26<-65.1817 75.1597> 105.245 62.755<-9.30889 81.0238>
LayerCount: 2
Fore
SplineSet
68.6122 85.3405 m 256x8c
 52.1256897848 85.3405 26 73.3092351616 26 53 c 258
 26 -57 l 258
 26 -65 38 -69 44 -65 c 256
 88.0523 -33.0405 105.245 -5.55756 105.245 29.6935 c 256
 105.245 63.963250886 90.7307704965 85.3405 68.6122 85.3405 c 256x8c
10 -123 m 258
 1 -130 0 -129 0 -116 c 258xcc
 0 340 l 257
 43 340 l 257
 43 121 l 258xd4
 43 115 54 107 60 107 c 256
 69 107 82 114 103 114 c 256
 138 114 168 91 168 47 c 256
 168 -17 94 -54 44 -95 c 258
 10 -123 l 258
EndSplineSet
Validated: 1
PickledDataWithLists: "(dp0
Vcom.fontlab.hintData
p1
(dp2
Vhhints
p3
(lp4
(dp5
Vposition
p6
I94
sVwidth
p7
I20
sasVvhints
p8
(lp9
(dp10
g6
I0
sg7
I43
sa(dp11
g6
I0
sg7
I26
sass."
EndChar

StartChar: j
Encoding: 106 106 113
GlifName: j
Width: 275
VWidth: 0
GlyphClass: 2
Flags: W
HStem: 42 20G<0 26>
VStem: 0 25<-206 -193.393 4.375 62> 241 34<-590.534 -356.415>
LayerCount: 2
Fore
SplineSet
41 -193 m 256
 32 -193 25 -200 25 -206 c 257
 0 -206 l 257
 0 62 l 257
 26 62 l 257
 26 30 40 -19 73 -60 c 256
 145 -151 275 -253 275 -468 c 256
 275 -574 236 -665 217 -700 c 257
 189 -686 l 257
 215 -633 241 -556 241 -467 c 256
 241 -351 198 -267 125 -219 c 256
 95 -200 68 -193 41 -193 c 256
EndSplineSet
Validated: 1
PickledDataWithLists: "(dp0
Vcom.fontlab.hintData
p1
(dp2
Vvhints
p3
(lp4
(dp5
Vposition
p6
I0
sVwidth
p7
I25
sa(dp8
g6
I241
sg7
I34
sass."
EndChar

StartChar: k
Encoding: 107 107 114
GlifName: k
Width: 96
VWidth: 0
GlyphClass: 2
Flags: W
HStem: -48 96<8.33203 87.668>
VStem: 0 96<-39.668 39.668>
LayerCount: 2
Fore
SplineSet
0 0 m 256
 0 26 22 48 48 48 c 256
 74 48 96 26 96 0 c 256
 96 -26 74 -48 48 -48 c 256
 22 -48 0 -26 0 0 c 256
EndSplineSet
Validated: 1
PickledDataWithLists: "(dp0
Vcom.fontlab.hintData
p1
(dp2
Vhhints
p3
(lp4
(dp5
Vposition
p6
I-48
sVwidth
p7
I96
sasVvhints
p8
(lp9
(dp10
g6
I0
sg7
I96
sass."
EndChar

StartChar: l
Encoding: 108 108 115
GlifName: l
Width: 295
VWidth: 0
GlyphClass: 2
Flags: W
HStem: -130 32<99.8183 262.789>
VStem: 263 32<-97.8967 46.1802>
LayerCount: 2
Fore
SplineSet
263 36 m 258
 263 44 252 50 247 46 c 258
 100 -81 l 258
 96 -84 100 -98 109 -98 c 258
 246 -98 l 258
 251 -98 263 -89 263 -80 c 258
 263 36 l 258
8 -130 m 258
 -2 -130 -2 -128 5 -121 c 258
 288 124 l 258
 294 129 295 128 295 121 c 258
 295 -130 l 257
 8 -130 l 258
EndSplineSet
Validated: 1
PickledDataWithLists: "(dp0
Vcom.fontlab.hintData
p1
(dp2
Vhhints
p3
(lp4
(dp5
Vposition
p6
I-130
sVwidth
p7
I32
sasVvhints
p8
(lp9
(dp10
g6
I263
sg7
I32
sass."
EndChar

StartChar: m
Encoding: 109 109 116
GlifName: m
Width: 586
VWidth: 0
GlyphClass: 2
Flags: W
HStem: -130 261 33 20G<563.5 568>
LayerCount: 2
Fore
SplineSet
21 -52 m 256x80
 15 -52 4 -35 4 -28 c 256
 4 -23 7 -18 14 -11 c 258
 119 107 l 258
 133 123 141 131 147 131 c 256x80
 155 131 161 120 175 98 c 258
 224 20 l 258
 235 3 243 -5 251 -5 c 256
 261 -5 271 4 288 23 c 258
 363 106 l 257
 377 123 385 132 391 132 c 256
 398 132 404 123 417 103 c 258
 471 17 l 258
 482 1 488 -8 496 -8 c 256
 504 -8 514 2 533 22 c 258
 553 44 l 258
 558 50 562 53 565 53 c 256x40
 571 53 581 36 581 28 c 256
 581 23 578 17 571 9 c 258
 475 -98 l 258
 457 -118 448 -130 440 -130 c 256
 432 -130 425 -119 410 -96 c 258
 362 -21 l 258
 350 -2 343 8 335 8 c 256
 327 8 318 0 302 -18 c 258
 225 -104 l 258
 209 -122 202 -131 195 -131 c 256
 187 -131 181 -121 168 -100 c 258
 115 -18 l 258
 104 -1 98 8 90 8 c 256
 82 8 73 0 58 -17 c 258
 36 -42 l 258
 29 -49 25 -52 21 -52 c 256x80
EndSplineSet
Validated: 1
PickledDataWithLists: "(dp0
Vcom.fontlab.hintData
p1
(dp2
Vhhints
p3
(lp4
(dp5
Vposition
p6
I111
sVwidth
p7
I20
sass."
EndChar

StartChar: n
Encoding: 110 110 117
GlifName: n
Width: 181
VWidth: 0
GlyphClass: 2
Flags: W
HStem: 320 20G<0 38> 320 20G<0 38 112.667 181>
VStem: 0 38<150.869 340> 0 30<-90.1348 51> 143 38<-340 -161.215> 151 30<-61 80.134>
LayerCount: 2
Fore
SplineSet
0 340 m 257xa0
 38 340 l 257
 38 168 l 258
 38 158 50 148 58 151 c 258
 181 187 l 257xa4
 181 -340 l 257
 143 -340 l 257
 143 -179 l 258
 143 -171.224 134.042 -161.208 123.865 -161.208 c 256
 122.263 -161.208 120.632 -161.456 119 -162 c 258
 0 -197 l 257x98
 0 340 l 257xa0
30 51 m 257x14
 30 -75 l 258
 30 -88 41 -93 50 -90 c 258
 151 -61 l 257
 151 66 l 258
 151 77 139 83 130 80 c 258
 30 51 l 257x14
EndSplineSet
Validated: 1
PickledDataWithLists: "(dp0
Vcom.fontlab.hintData
p1
(dp2
Vhhints
p3
(lp4
(dp5
Vposition
p6
I167
sVwidth
p7
I20
sasVvhints
p8
(lp9
(dp10
g6
I0
sg7
I38
sa(dp11
g6
I0
sg7
I30
sa(dp12
g6
I143
sg7
I38
sa(dp13
g6
I151
sg7
I30
sass."
EndChar

StartChar: o
Encoding: 111 111 118
GlifName: o
Width: 184
VWidth: 0
GlyphClass: 2
Flags: W
HStem: -92 32<51.0388 132.801> 60 32<51.1985 132.961>
VStem: 0 32<-40.8015 40.9612> 152 32<-40.9612 40.8015>
LayerCount: 2
Fore
SplineSet
32 0 m 256
 32 -32 57 -60 92 -60 c 256
 124 -60 152 -35 152 0 c 256
 152 32 127 60 92 60 c 256
 60 60 32 35 32 0 c 256
0 0 m 256
 0 53 44 92 92 92 c 256
 145 92 184 48 184 0 c 256
 184 -53 140 -92 92 -92 c 256
 39 -92 0 -48 0 0 c 256
EndSplineSet
Validated: 1
PickledDataWithLists: "(dp0
Vcom.fontlab.hintData
p1
(dp2
Vhhints
p3
(lp4
(dp5
Vposition
p6
I-92
sVwidth
p7
I32
sa(dp8
g6
I60
sg7
I32
sasVvhints
p9
(lp10
(dp11
g6
I0
sg7
I32
sa(dp12
g6
I152
sg7
I32
sass."
EndChar

StartChar: p
Encoding: 112 112 119
GlifName: p
Width: 443
VWidth: 0
GlyphClass: 2
Flags: W
HStem: -194 21G<-5 2 69 77> -26 33<178.369 244.232> 182 21G<25.5 31> 235 35<60.7104 115.045 241.758 302.13>
VStem: 116 51<68 211> 311 84<96.3483 228.268>
LayerCount: 2
Fore
SplineSet
29 182 m 256
 22 182 7 189 7 194 c 256
 7 196 9 199 12 204 c 256
 30 234 62 270 108 270 c 256
 137 270 158 259 172 242 c 256
 180 232 187 225 196 225 c 256
 201 225 206 228 212 233 c 256
 237 254 265 266 293 266 c 256
 351 266 395 224 395 161 c 256
 395 59 306 -26 228 -26 c 256
 208 -26 189 -22 174 -13 c 256
 167 -9 159 -6 153 -6 c 256
 144 -6 137 -10 134 -21 c 258
 86 -182 l 258
 83 -192 80 -194 74 -194 c 256
 64 -194 56 -181 35 -181 c 256
 15 -181 7 -194 -3 -194 c 256
 -7 -194 -9 -192 -9 -189 c 256
 -9 -187 -8 -184 -7 -181 c 258
 109 177 l 258
 112 186 116 199 116 211 c 256
 116 224 111 235 96 235 c 256
 75 235 56 217 40 192 c 256
 36 185 33 182 29 182 c 256
167 68 m 256
 167 32 182 7 208 7 c 256
 252 7 284 66 304 143 c 256
 309 160 311 175 311 187 c 256
 311 220 294 232 277 232 c 256
 224 232 167 139 167 68 c 256
EndSplineSet
Validated: 1
PickledDataWithLists: "(dp0
Vcom.fontlab.hintData
p1
(dp2
Vhhints
p3
(lp4
(dp5
Vposition
p6
I-194
sVwidth
p7
I21
sa(dp8
g6
I-26
sg7
I33
sa(dp9
g6
I182
sg7
I21
sa(dp10
g6
I235
sg7
I35
sasVvhints
p11
(lp12
(dp13
g6
I116
sg7
I51
sa(dp14
g6
I311
sg7
I84
sass."
EndChar

StartChar: q
Encoding: 113 113 120
GlifName: q
Width: 326
VWidth: 0
GlyphClass: 2
Flags: W
HStem: 121 729G<199.5 233.5 300 326>
VStem: 300 26<123.911 850>
LayerCount: 2
Fore
SplineSet
95 101 m 256
 130 125 178 141 221 141 c 256
 246 141 269 136 287 124 c 256
 291 122 300 126 300 129 c 258
 300 850 l 257
 326 850 l 257
 326 583 326 316 326 49 c 256
 325 -7 280 -68 231 -101 c 256
 196 -125 148 -141 105 -141 c 256
 68 -141 34 -130 15 -100 c 256
 4 -85 0 -68 0 -50 c 256
 0 6 46 68 95 101 c 256
EndSplineSet
Validated: 1
PickledDataWithLists: "(dp0
Vcom.fontlab.hintData
p1
(dp2
Vhhints
p3
(lp4
(dp5
Vposition
p6
I121
sVwidth
p7
I20
sa(dp8
g6
I830
sg7
I20
sasVvhints
p9
(lp10
(dp11
g6
I300
sg7
I26
sass."
EndChar

StartChar: r
Encoding: 114 114 121
GlifName: r
Width: 275
VWidth: 0
GlyphClass: 2
Flags: W
HStem: 68 20G<0 26>
VStem: 0 26<-335 -322.124 -165.306 -108.27 40.8781 88> 242 33<-688.565 -473.272 -379.268 -233.803>
LayerCount: 2
Fore
SplineSet
242 -571 m 256
 242 -448 171 -322 41 -322 c 256
 32 -322 25 -329 25 -335 c 257
 0 -335 l 257
 0 88 l 257
 26 88 l 257
 26 40 63 1 126 -49 c 256
 205 -112 275 -198 275 -316 c 256
 275 -362 263 -399 251 -423 c 257
 267 -466 275 -515 275 -572 c 256
 275 -659 244 -748 227 -778 c 257
 198 -767 l 257
 214 -730 242 -658 242 -571 c 256
26 -120 m 256
 26 -165 68 -214 126 -259 c 256
 172 -294 207 -334 232 -380 c 257
 238 -361 242 -339 242 -315 c 256
 242 -242 207 -168 121 -127 c 256
 98 -116 67 -108 42 -108 c 256
 33 -108 26 -114 26 -120 c 256
EndSplineSet
Validated: 1
PickledDataWithLists: "(dp0
Vcom.fontlab.hintData
p1
(dp2
Vhhints
p3
(lp4
(dp5
Vposition
p6
I-120
sVwidth
p7
I21
sasVvhints
p8
(lp9
(dp10
g6
I0
sg7
I27
sa(dp11
g6
I242
sg7
I33
sass."
EndChar

StartChar: s
Encoding: 115 115 122
GlifName: s
Width: 241
VWidth: 0
GlyphClass: 2
Flags: W
HStem: -8 25<52.8296 138.284> 82 20G<30 51> 157 21G<182.5 198.5> 235 24<97.5729 175.336>
VStem: 0 51<18.8619 83.2128> 43 37<170.459 223.391> 156 42<28.1294 97.8661> 177 48<172.793 233.831>
LayerCount: 2
Fore
SplineSet
142 235 m 256xf5
 107 235 80 219 80 195 c 256xf5
 80 176 109 163 130 153 c 256
 166 136 198 114 198 74 c 256
 198 18 148 -8 90 -8 c 256
 41 -8 0 11 0 54 c 256
 0 81 18 102 42 102 c 256
 60 102 71 88 71 71 c 256
 71 52 51 48 51 35 c 256
 51 19 76 17 94 17 c 256
 129 17 156 35 156 61 c 256xfa
 156 89 135 101 101 116 c 256
 69 130 43 149 43 183 c 256
 43 233 93 259 145 259 c 256
 190 259 225 236 225 196 c 256
 225 170 207 157 190 157 c 256
 175 157 159 168 159 185 c 256
 159 203 177 207 177 218 c 256
 177 230 163 235 142 235 c 256xf5
EndSplineSet
Validated: 1
PickledDataWithLists: "(dp0
Vcom.fontlab.hintData
p1
(dp2
Vhhints
p3
(lp4
(dp5
Vposition
p6
I-8
sVwidth
p7
I25
sa(dp8
g6
I235
sg7
I24
sasVvhints
p9
(lp10
(dp11
g6
I0
sg7
I51
sa(dp12
g6
I43
sg7
I37
sa(dp13
g6
I156
sg7
I42
sa(dp14
g6
I177
sg7
I48
sass."
EndChar

StartChar: t
Encoding: 116 116 123
GlifName: t
Width: 789
VWidth: 0
GlyphClass: 2
Flags: W
HStem: -887 16<285.664 344.591> -650 36<-7.16667 43.8171> -647 16<292.809 346.882> -174 108<691.676 777.736> 74 108<691.676 777.736> 235 35<188.65 354>
VStem: 14 65.5509<-12 125.429> 228 31<-854.531 -784.7> 239 39<-712.006 -653.934> 364 41<-858.886 -795.047> 365 28<-723.288 -658.148> 477 123<-180.423 75.9453> 681 108<-162.537 -77.4629 85.4629 170.537>
LayerCount: 2
Fore
SplineSet
278 -679 m 256xbeb8
 278 -705 306 -720 336 -736 c 257
 354 -725 365 -708 365 -690 c 256
 365 -666 348 -647 321 -647 c 256
 294 -647 278 -663 278 -679 c 256xbeb8
364 -833 m 256x9f58
 364 -801 331 -785 299 -767 c 257
 274 -778 259 -794 259 -820 c 256
 259 -844 281 -871 315 -871 c 256
 343 -871 364 -853 364 -833 c 256x9f58
269 -765 m 256
 276 -761 273 -751 268 -747 c 256
 251 -734 239 -718 239 -695 c 256
 239 -659 277 -631 321 -631 c 256
 366 -631 393 -656 393 -688 c 256xbeb8
 393 -709 382 -725 367 -737 c 256
 359 -743 363 -751 366 -754 c 256
 388 -769 405 -787 405 -814 c 256
 405 -854 361 -887 315 -887 c 256
 263 -887 228 -857 228 -824 c 256
 228 -798 243 -779 269 -765 c 256
136 114 m 256
 199 114 249 64 249 1 c 256
 249 -62 199 -112 136 -112 c 256
 71 -112 14 -59 14 35 c 256
 14 154 126 270 292 270 c 256
 488 270 600 134 600 -52 c 256
 600 -357 255 -618 -6 -650 c 257
 -12 -614 l 257xde18
 279 -550 477 -344 477 -32 c 256
 477 123 417 235 271 235 c 256
 180 235 112 188 81 131 c 256
 79.9947 129.157 79.5509 127.146 79.5509 125.093 c 256
 79.5509 116.142 87.9893 106.403 95.119 106.403 c 256
 96.1136 106.403 97.0828 106.592 98 107 c 256
 106 110 121 114 136 114 c 256
681 -120 m 256
 681 -90 705 -66 735 -66 c 256
 763 -66 789 -90 789 -120 c 256
 789 -150 763 -174 735 -174 c 256
 705 -174 681 -150 681 -120 c 256
681 128 m 256
 681 158 705 182 735 182 c 256
 763 182 789 158 789 128 c 256
 789 98 763 74 735 74 c 256
 705 74 681 98 681 128 c 256
EndSplineSet
Validated: 1
PickledDataWithLists: "(dp0
Vcom.fontlab.hintData
p1
(dp2
Vhhints
p3
(lp4
(dp5
Vposition
p6
I-887
sVwidth
p7
I16
sa(dp8
g6
I-650
sg7
I36
sa(dp9
g6
I-647
sg7
I16
sa(dp10
g6
I-174
sg7
I108
sa(dp11
g6
I-112
sg7
I226
sa(dp12
g6
I74
sg7
I108
sa(dp13
g6
I235
sg7
I35
sasVvhints
p14
(lp15
(dp16
g6
I14
sg7
I235
sa(dp17
g6
I228
sg7
I31
sa(dp18
g6
I239
sg7
I39
sa(dp19
g6
I364
sg7
I41
sa(dp20
g6
I365
sg7
I28
sa(dp21
g6
I477
sg7
I123
sa(dp22
g6
I681
sg7
I108
sass."
EndChar

StartChar: u
Encoding: 117 117 124
GlifName: u
Width: 706
VWidth: 0
GlyphClass: 2
Flags: W
HStem: -383 142<240.808 465.192> -88 138<303.092 402.908>
VStem: 0 29<-47.1094 51> 284 138<-68.9079 30.9079> 677 29<-47.1094 51>
CounterMasks: 1 38
LayerCount: 2
Fore
SplineSet
29 51 m 257
 29 -89 103 -241 353 -241 c 256
 603 -241 677 -89 677 51 c 257
 706 51 l 257
 706 -189 563 -383 353 -383 c 256
 143 -383 0 -189 0 51 c 257
 29 51 l 257
422 -19 m 256
 422 -57 391 -88 353 -88 c 256
 315 -88 284 -57 284 -19 c 256
 284 19 315 50 353 50 c 256
 391 50 422 19 422 -19 c 256
EndSplineSet
Validated: 1
PickledDataWithLists: "(dp0
Vcom.fontlab.hintData
p1
(dp2
Vhhints
p3
(lp4
(dp5
Vposition
p6
I-383
sVwidth
p7
I142
sa(dp8
g6
I-88
sg7
I138
sasVvhints
p9
(lp10
(dp11
g6
I0
sg7
I29
sa(dp12
g6
I284
sg7
I138
sa(dp13
g6
I677
sg7
I29
sass."
EndChar

StartChar: v
Encoding: 118 118 125
GlifName: v
Width: 348
VWidth: 0
GlyphClass: 2
Flags: W
LayerCount: 2
Fore
SplineSet
0 0 m 257
 105 0 l 257
 196 -194 l 258
 198 -198 203 -200 207 -200 c 256
 211 -200 217 -198 219 -194 c 258
 309 0 l 257
 348 0 l 257
 179 -364 l 258
 178 -367 176 -368 175 -368 c 256
 174 -368 172 -367 171 -364 c 258
 0 0 l 257
EndSplineSet
Validated: 1
EndChar

StartChar: w
Encoding: 119 119 126
GlifName: w
Width: 458
VWidth: 0
GlyphClass: 2
Flags: W
HStem: -140 23.703<192.45 300.095> 116.437 23.563<157.79 268.972>
VStem: 0 121<-48.2904 64.4746> 336.336 121.664<-64.2278 49.2982>
LayerCount: 2
Fore
SplineSet
0 -2 m 256
 1 111 143 140 234 140 c 256
 322 140 458 113 458 2 c 256
 457 -110 315 -140 224 -140 c 256
 136 -140 0 -113 0 -2 c 256
314 52 m 258
 303.45 91.5609 265.078 116.437 214.509 116.437 c 256
 207.556 116.437 200.373 115.967 193 115 c 256
 137 108.333 121 78.5556 121 44.6296 c 256
 121 27.6667 125 9.66667 130 -7 c 258
 144 -52 l 258
 154.686 -88.5095 193.125 -116.297 245.194 -116.297 c 256
 251.599 -116.297 258.209 -115.876 265 -115 c 256
 320.731 -108.285 336.336 -78.1266 336.336 -44.8061 c 256
 336.336 -28.5023 332.6 -11.4416 328 4 c 258
 314 52 l 258
EndSplineSet
Validated: 1
PickledDataWithLists: "(dp0
Vcom.fontlab.hintData
p1
(dp2
Vhhints
p3
(lp4
(dp5
Vposition
p6
I-140
sVwidth
p7
I280
sasVvhints
p8
(lp9
(dp10
g6
I0
sg7
I458
sass."
EndChar

StartChar: x
Encoding: 120 120 127
GlifName: x
Width: 326
VWidth: 0
GlyphClass: 2
Flags: W
HStem: 121 729G<199.5 233.5 300 327>
VStem: 300 26<123.911 444.688 602.26 653.583 804.95 850> 542 33<78.4353 293.641 385.735 528.197>
LayerCount: 2
Fore
SplineSet
95 101 m 256
 130 125 178 141 221 141 c 256
 246 141 269 136 287 124 c 256
 291 122 300 126 300 129 c 258
 300 850 l 257
 327 850 l 257
 327 802 363 763 426 713 c 256
 505 650 575 564 575 446 c 256
 575 401 564 365 552 341 c 257
 567 299 575 251 575 195 c 256
 575 108 544 19 527 -11 c 257
 498 0 l 257
 514 37 542 109 542 196 c 256
 542 318 471 445 342 445 c 256
 333 445 326 438 326 432 c 258
 326 49 l 257
 325 -7 280 -68 231 -101 c 256
 196 -125 148 -141 105 -141 c 256
 68 -141 34 -130 15 -100 c 256
 4 -85 0 -68 0 -50 c 256
 0 6 46 68 95 101 c 256
327 642 m 256
 327 602 368 553 426 508 c 256
 472 472 508 432 533 385 c 257
 538 403 542 424 542 447 c 256
 542 520 507 594 421 635 c 256
 398 646 368 654 343 654 c 256
 334 654 327 648 327 642 c 256
EndSplineSet
Validated: 1
PickledDataWithLists: "(dp0
Vcom.fontlab.hintData
p1
(dp2
Vhhints
p3
(lp4
(dp5
Vposition
p6
I121
sVwidth
p7
I20
sa(dp8
g6
I830
sg7
I20
sasVvhints
p9
(lp10
(dp11
g6
I300
sg7
I26
sa(dp12
g6
I542
sg7
I33
sass."
EndChar

StartChar: y
Encoding: 121 121 128
GlifName: y
Width: 310
VWidth: 0
GlyphClass: 2
Flags: W
HStem: -130 32<65.8205 243.091> 118 20G<143.433 166.567>
VStem: 0 310
LayerCount: 2
Fore
SplineSet
0 -130 m 257
 155 138 l 257
 310 -130 l 257
 0 -130 l 257
144 55 m 258
 66 -80 l 258
 62 -88 69 -98 74 -98 c 258
 234 -98 l 258
 243 -98 245 -83 243 -79 c 258
 165 56 l 258
 163 61 149 63 144 55 c 258
EndSplineSet
Validated: 1
PickledDataWithLists: "(dp0
Vcom.fontlab.hintData
p1
(dp2
Vhhints
p3
(lp4
(dp5
Vposition
p6
I-130
sVwidth
p7
I32
sa(dp8
g6
I118
sg7
I20
sass."
EndChar

StartChar: z
Encoding: 122 122 129
GlifName: z
Width: 280
VWidth: 0
GlyphClass: 2
Flags: W
HStem: -15 34<162.401 228.173> 100 20G<197.5 222> 211.5 46.5<90.4709 188.568>
VStem: 229 29<21.1769 61.3218>
LayerCount: 2
Fore
SplineSet
204 19 m 256
 216 19 229 27 229 41 c 256
 229 52 219 62 202 68 c 256
 191 72 179 82 179 94 c 256
 179 106 185 120 210 120 c 256
 234 120 258 93 258 59 c 256
 258 9 221 -15 191 -15 c 256
 148 -15 126 35 86 35 c 256
 66 35 39 9 21 -1 c 256
 16 -4 12 -5 9 -5 c 256
 3 -5 0 -1 0 5 c 256
 0 10 3 17 9 22 c 258
 43 55 l 257
 82 89 141.5 148.5 183.5 191.5 c 256
 186.5 194.5 188.5 197.5 188.5 200.5 c 256
 188.5 211.5 133.5 211.5 120.5 211.5 c 256
 110.5 211.5 102.076 208.151 93.5 194.5 c 258
 77.4795 169 l 258
 70.7959 158.403 63.4902 156.5 59.4902 156.5 c 256
 55.4902 156.5 52.4902 159.5 52.4902 165.5 c 256
 52.4902 168.5 53.4902 172.5 54.4902 176.5 c 258
 76 235 l 258
 82.5479 252.809 84 258 99 258 c 256
 117 258 141 251 191 251 c 256
 225 251 260 258 269 258 c 256
 278 258 280 255 280 251 c 256
 280 242 279 241 257 219 c 256
 232 194 182 148 162 128 c 258
 127 92 l 258
 120 85 116 79 116 74 c 256
 116 67 121 63 129 58 c 256
 143 50 160 36 177 27 c 256
 185 22 195 19 204 19 c 256
EndSplineSet
Validated: 1
PickledDataWithLists: "(dp0
Vcom.fontlab.hintData
p1
(dp2
Vhhints
p3
(lp4
(dp5
Vposition
p6
I-15
sVwidth
p7
I34
sa(dp8
g6
I212
sg7
I46
sasVvhints
p9
(lp10
(dp11
g6
I229
sg7
I29
sass."
EndChar

StartChar: asciitilde
Encoding: 126 126 130
GlifName: asciitilde
Width: 809
VWidth: 0
GlyphClass: 2
Flags: W
HStem: -195 21G<80 84.5 724.5 729> -119 57.0151<147 179.148 291 323.148> -95 190<546.623 630.334> 79.2864 28.7136<180.597 234.35 324.597 378.35> 320 20G<145.5 177.5 289.5 321.5> 320 20G<80 84.5 145.5 177.5 289.5 321.5 724.5 729>
VStem: 0 30<-92.2826 92.2826> 140 40<108.005 340> 140 27<-61.9808 66.6931> 244.805 66.195<-25.4804 74.3032> 284 40<112.245 340> 284 27<-61.9808 -31.5112> 388.805 63.195<-9.477 74.5108> 487 202<-37.2618 37.5247> 779 30<-92.2826 92.2826>
LayerCount: 2
Fore
SplineSet
183 330 m 256xcb0e
 183 285 180 202 180 123 c 256
 180 115 184 108 194 108 c 256
 205 108 224 114 243 114 c 256
 250 114 262 112 268 112 c 256
 280 112 284 117 284 137 c 258
 284 330 l 258
 284 338 285 340 294 340 c 258
 317 340 l 258
 326 340 327 338 327 330 c 256
 327 285 324 202 324 123 c 256
 324 115 328 108 338 108 c 256xdb2e
 349 108 368 114 387 114 c 256
 422 114 452 91 452 42 c 256
 452 -15 378 -54 328 -95 c 258xa32e
 306 -113 l 258
 302 -116 297 -119 293 -119 c 256xc32e
 289 -119 284 -116 284 -107 c 258
 284 -60 l 258
 284 -41.8232 281.643 -31.5037 273.481 -31.5037 c 256
 268.621 -31.5037 261.704 -35.1625 252 -43 c 256
 230 -61 205 -78 184 -95 c 258xa21e
 162 -113 l 258
 158 -116 153 -119 149 -119 c 256
 145 -119 140 -116 140 -107 c 258xc29e
 140 330 l 258
 140 338 141 340 150 340 c 258
 173 340 l 258
 182 340 183 338 183 330 c 256xcb0e
207.878 79.2864 m 256
 176.989100318 79.2864 167 50.8824132602 167 16 c 258
 167 -47 l 258
 167 -56.3846 170.44 -61.9849 176.917 -61.9849 c 256
 181.483 -61.9849 187.558 -59.202 195 -53 c 256
 221.767 -29.6872 244.805 -7.86551 244.805 27.2705 c 256xd2ce
 244.805 58.6238985656 229.234598305 79.2864 207.878 79.2864 c 256
351.878 79.2864 m 256
 320.989100318 79.2864 311 50.8824132602 311 16 c 258xd24e
 311 -47 l 258xd21e
 311 -56.3846 314.44 -61.9849 320.917 -61.9849 c 256
 325.483 -61.9849 331.558 -59.202 339 -53 c 256
 365.767 -29.6872 388.805 -7.86551 388.805 27.2705 c 256
 388.805 58.6238985656 373.234598305 79.2864 351.878 79.2864 c 256
487 -26 m 256
 487 37 549 95 616 95 c 256
 655 95 689 69 689 27 c 256
 689 -37 628 -95 561 -95 c 256xa20e
 522 -95 487 -68 487 -26 c 256
30 0 m 256
 30 -83 59 -127 85 -168 c 256
 89 -174 91 -180 91 -184 c 256
 91 -191 87 -195 82 -195 c 256
 78 -195 72 -192 66 -185 c 256
 32 -145 0 -87 0 0 c 256
 0 87 32 145 66 185 c 256
 72 192 78 195 82 195 c 256
 87 195 91 191 91 184 c 256
 91 180 89 174 85 168 c 256
 59 127 30 83 30 0 c 256
779 0 m 256
 779 83 750 127 724 168 c 256
 720 174 718 180 718 184 c 256
 718 191 722 195 727 195 c 256
 731 195 737 192 743 185 c 256
 777 145 809 87 809 0 c 256
 809 -87 777 -145 743 -185 c 256
 737 -192 731 -195 727 -195 c 256
 722 -195 718 -191 718 -184 c 256
 718 -180 720 -174 724 -168 c 256
 750 -127 779 -83 779 0 c 256
EndSplineSet
Validated: 1
PickledDataWithLists: "(dp0
Vcom.fontlab.hintData
p1
(dp2
Vhhints
p3
(lp4
(dp5
Vposition
p6
I-195
sVwidth
p7
I21
sa(dp8
g6
I-95
sg7
I190
sa(dp9
g6
I94
sg7
I101
sasVvhints
p10
(lp11
(dp12
g6
I0
sg7
I30
sa(dp13
g6
I140
sg7
I40
sa(dp14
g6
I140
sg7
I27
sa(dp15
g6
I284
sg7
I40
sa(dp16
g6
I284
sg7
I27
sa(dp17
g6
I487
sg7
I202
sa(dp18
g6
I779
sg7
I30
sass."
EndChar

StartChar: exclamdown
Encoding: 161 161 131
GlifName: exclamdown
Width: 202
VWidth: 0
GlyphClass: 2
Flags: W
HStem: -54.5403 149.54<94.5 182.391>
VStem: 0 32<-847.744 -756.093 -655.995 -590.601 -491.992 -428.6 -303.299 -93.136> 191.412 28.588<-547.561 -463.545 -383.041 -296.661> 196 31<-196.297 -56.811>
LayerCount: 2
Fore
SplineSet
196 -119 m 256xd0
 196 -96.2918213459 191.168861611 -54.5403 175.521 -54.5403 c 256
 167.862 -54.5403 158.638 -62.5531 148 -70 c 256
 126 -86 100 -95 73 -95 c 256
 62 -95 57 -93 51 -93 c 256
 40 -93 30 -98 30 -113 c 258
 30 -260 l 258
 30 -289 31 -304 56 -304 c 256
 79 -304 99 -290 116 -276 c 256
 157 -240 196 -201 196 -119 c 256xd0
217 -59 m 256
 223 -76 227 -96 227 -118 c 256xd0
 227 -196 206 -212 206 -237 c 256
 206 -257 220 -274 220 -324 c 256
 220 -341 218 -357 215 -372 c 256
 211.4 -387 208.52 -395.88 208.52 -406.632 c 256
 208.52 -413.8 209.8 -421.8 213 -433 c 256
 216 -446 220 -463 220 -488 c 256xe0
 220 -574 174 -632 85 -712 c 256
 48 -745 32 -776 32 -810 c 256
 32 -839 29 -848 19 -848 c 256
 4 -848 0 -834 0 -806 c 258
 0 -27 l 258
 0 37 61 95 128 95 c 256
 167 95 202 68 202 26 c 256
 202 -17 204 -21 217 -59 c 256
177 -296 m 256
 162 -296 145 -325 95 -374 c 256
 64 -404 32 -441 32 -470 c 256
 32 -481 35 -492 47 -492 c 256
 107 -492 191 -407 191 -324 c 256
 191 -306 187 -296 177 -296 c 256
47 -656 m 256
 104.770219879 -656 191.412 -573.913227737 191.412 -488.716 c 256xe0
 191.412 -469.815 186.445 -463.124 179.541 -463.124 c 256
 171.397 -463.124 160.558 -472.435 152 -482 c 256
 134 -503 111 -525 85 -548 c 256
 45 -584 32 -616 32 -633 c 256
 32 -649 37 -656 47 -656 c 256
EndSplineSet
Validated: 1
PickledDataWithLists: "(dp0
Vcom.fontlab.hintData
p1
(dp2
Vhhints
p3
(lp4
(dp5
Vposition
p6
I-95
sVwidth
p7
I190
sasVvhints
p8
(lp9
(dp10
g6
I0
sg7
I32
sa(dp11
g6
I191
sg7
I29
sa(dp12
g6
I196
sg7
I31
sass."
EndChar

StartChar: cent
Encoding: 162 162 132
GlifName: cent
Width: 205
VWidth: 0
GlyphClass: 2
Flags: W
HStem: -73 168<65.9736 164.217>
VStem: 0 27<-581.985 -500.882 -373.76 -311.391 -248.685 -94.1211>
LayerCount: 2
Fore
SplineSet
190 -22 m 256
 185 -33 182 -39 182 -45 c 256
 182 -52 185 -59 189 -73 c 256
 194 -88 198 -108 201 -130 c 256
 203.008 -146.732 204.568 -156.297 213.774 -156.297 c 256
 218.323 -156.297 224.74 -153.961 234 -149 c 258
 278 -126 l 258
 289.418735647 -119.656257974 299 -126.067704892 299 -138 c 256
 299 -143 296 -147 290 -150 c 258
 236 -178 l 258
 209 -193 207 -204 202 -231 c 256
 179 -355 49 -436 31 -526 c 256
 24 -562 31 -582 13 -582 c 256
 7 -582 0 -583 0 -564 c 258
 0 -335 l 258
 0 -319.18 -1.41928 -310.457 -9.78967 -310.457 c 256
 -13.5888 -310.457 -18.8198 -312.254 -26 -316 c 258
 -83 -346 l 258
 -95 -352 -99 -351 -103 -342 c 256
 -105 -339 -106 -336 -106 -334 c 256
 -106 -330 -102 -326 -95 -322 c 258
 -33 -289 l 258
 -7 -276 0 -266 0 -236 c 258
 0 -27 l 258
 0 37 61 95 128 95 c 256
 167 95 202 65.459 202 26 c 256
 202 6.7041 198 -7 190 -22 c 256
172.482 -154.014 m 256
 172.482 -131.913953754 168.606262286 -113.728180289 164 -93 c 256
 161 -78 157 -73 150 -73 c 256
 144 -73 137 -78 128 -82 c 256
 111 -90 92 -95 73 -95 c 256
 60 -95 51 -94 44 -94 c 256
 30 -94 27 -98 27 -125 c 258
 27 -219 l 258
 27 -238.688 27.9218 -249.158 37.2756 -249.158 c 256
 41.6995 -249.158 48.0094 -246.816 57 -242 c 258
 139 -199 l 258
 161.321 -187.393 172.482 -177.38 172.482 -154.014 c 256
143 -227 m 258
 61 -271 l 258
 37 -283 27 -289 27 -321 c 258
 27 -356 l 258
 27 -369 34 -374 44 -374 c 256
 56 -374 72 -366 82 -360 c 256
 126 -329 154 -290 167 -241 c 256
 168.705 -234.422 169.58 -229.506 169.58 -226.006 c 256
 169.58 -221.079 167.847 -218.958 164.261 -218.958 c 256
 159.938 -218.958 152.922 -222.039 143 -227 c 258
EndSplineSet
Validated: 1
PickledDataWithLists: "(dp0
Vcom.fontlab.hintData
p1
(dp2
Vhhints
p3
(lp4
(dp5
Vposition
p6
I-73
sVwidth
p7
I168
sasVvhints
p8
(lp9
(dp10
g6
I0
sg7
I182
sa(dp11
g6
I0
sg7
I27
sass."
EndChar

StartChar: sterling
Encoding: 163 163 133
GlifName: sterling
Width: 353
VWidth: 0
GlyphClass: 2
Flags: W
HStem: -4 32<87.3271 172.252> 125 20G<53 82> 194 31<126.587 197.535> 280 21G<128 153.5> 280 21G<128 153.5> 386 29<169.575 253.256>
VStem: 15 71<34.2502 110.381> 98 68.72<302.865 375.379> 211 72<62.725 172.369> 267 71<257.235 377.788>
LayerCount: 2
Fore
SplineSet
215 386 m 256xf740
 187.017463507 386 166.72 378.383692121 166.72 364.893 c 256
 166.72 353.64 185 344.436 185 320 c 256
 185 297 167 280 140 280 c 256
 116 280 98 296 98 325 c 256
 98 375 155 415 226 415 c 256
 277 415 338 386 338 319 c 256xf740
 338 276 314 236 263 216 c 256
 248.844 209.933 243.123 205.911 243.123 200.574 c 256
 243.123 195.355 248.595 188.877 257 178 c 256
 267 165 283 144 283 113 c 256
 283 38 214 -4 138 -4 c 256
 72 -4 15 33 15 87 c 256
 15 120 38 145 68 145 c 256
 96 145 112 124 112 100 c 256
 112 67 86 59 86 47 c 256
 86 36 103 28 131 28 c 256
 177 28 211 79 211 135 c 256xf780
 211 168 198 194 158 194 c 258
 133 194 l 258
 124 194 122 197 125 210 c 256
 128 223 131 225 142 225 c 258
 165 225 l 258
 219 225 253 243 264 305 c 256
 266 314 267 323 267 331 c 256
 267 364 251 386 215 386 c 256xf740
EndSplineSet
Validated: 1
PickledDataWithLists: "(dp0
Vcom.fontlab.hintData
p1
(dp2
Vhhints
p3
(lp4
(dp5
Vposition
p6
I-4
sVwidth
p7
I32
sa(dp8
g6
I125
sg7
I20
sa(dp9
g6
I194
sg7
I31
sa(dp10
g6
I386
sg7
I29
sasVvhints
p11
(lp12
(dp13
g6
I15
sg7
I71
sa(dp14
g6
I98
sg7
I87
sa(dp15
g6
I211
sg7
I72
sa(dp16
g6
I267
sg7
I71
sass."
EndChar

StartChar: currency
Encoding: 164 164 134
GlifName: currency
Width: 168
VWidth: 0
GlyphClass: 2
Flags: W
HStem: 85.3405 21.6595<44.4336 92.027> 320 20G<0 43> 320 20G<0 43>
VStem: 0 43<107.006 340> 0 26<-65.1817 75.1597> 105.245 62.755<-9.30889 81.0238>
LayerCount: 2
Fore
SplineSet
68.6122 85.3405 m 256x8c
 52.1256897848 85.3405 26 73.3092351616 26 53 c 258
 26 -57 l 258
 26 -65 38 -69 44 -65 c 256
 88.0523 -33.0405 105.245 -5.55756 105.245 29.6935 c 256
 105.245 63.963250886 90.7307704965 85.3405 68.6122 85.3405 c 256x8c
10 -123 m 258
 1 -130 0 -129 0 -116 c 258xcc
 0 340 l 257
 43 340 l 257
 43 121 l 258xd4
 43 115 54 107 60 107 c 256
 69 107 82 114 103 114 c 256
 138 114 168 91 168 47 c 256
 168 -17 94 -54 44 -95 c 258
 10 -123 l 258
EndSplineSet
Validated: 1
PickledDataWithLists: "(dp0
Vcom.fontlab.hintData
p1
(dp2
Vhhints
p3
(lp4
(dp5
Vposition
p6
I94
sVwidth
p7
I20
sasVvhints
p8
(lp9
(dp10
g6
I0
sg7
I43
sa(dp11
g6
I0
sg7
I26
sass."
EndChar

StartChar: yen
Encoding: 165 165 135
GlifName: yen
Width: 196
VWidth: 0
GlyphClass: 2
Flags: W
HStem: -264 21G<42 70> 224 20G<42 70 126 154 171 196> 244 20G<126 154>
VStem: 42 28<-264 -146.668 -68.0879 45.0872 122.912 244> 126 28<-244 -122.912 -45.0872 68.0879 146.668 264>
LayerCount: 2
Fore
SplineSet
69 -56 m 258x98
 69 -64 79 -70 87 -68 c 258
 116 -60 l 258
 122 -58 127 -52 127 -44 c 258
 127 56 l 258
 127 64 117 70 109 68 c 258
 80 60 l 258
 74 58 69 52 69 44 c 258
 69 -56 l 258x98
43 32 m 258
 43 40 35 47 28 45 c 258
 0 37 l 257
 0 98 l 257
 24 104 l 258
 37 108 42 116 42 128 c 258
 42 244 l 257
 70 244 l 257xd8
 70 135 l 258
 70 127 80 121 87 123 c 258
 113 130 l 258
 123 133 126 138 126 146 c 258
 126 264 l 257
 154 264 l 257xb8
 154 160 l 258
 154 152 164 145 171 147 c 258
 196 154 l 257
 196 93 l 257
 165 84 l 258
 158 83 153 78 153 70 c 258
 153 -32 l 258
 153 -40 161 -47 168 -45 c 258
 196 -37 l 257
 196 -98 l 257
 172 -104 l 258
 159 -108 154 -116 154 -128 c 258
 154 -244 l 257
 126 -244 l 257
 126 -135 l 258
 126 -127 116 -121 109 -123 c 258
 83 -130 l 258
 73 -133 70 -138 70 -146 c 258
 70 -264 l 257
 42 -264 l 257
 42 -160 l 258
 42 -152 32 -145 25 -147 c 258
 0 -154 l 257
 0 -93 l 257
 31 -84 l 258
 38 -83 43 -78 43 -70 c 258
 43 32 l 258
EndSplineSet
Validated: 1
PickledDataWithLists: "(dp0
Vcom.fontlab.hintData
p1
(dp2
Vhhints
p3
(lp4
(dp5
Vposition
p6
I134
sVwidth
p7
I20
sasVvhints
p8
(lp9
(dp10
g6
I42
sg7
I28
sa(dp11
g6
I126
sg7
I28
sass."
EndChar

StartChar: brokenbar
Encoding: 166 166 136
GlifName: brokenbar
Width: 322
VWidth: 0
GlyphClass: 2
Flags: W
HStem: 85.3405 20.6595<46.1447 90.9458 200.145 244.946> 320 20G<0 43 154 197> 320 20G<0 43 154 197>
VStem: 0 43<106.008 340> 0 26<-65.1817 75.1597> 105.245 74.755<-20.3182 80.4563> 154 43<107.999 340> 154 26<-65.1817 -24.633> 259.245 62.755<-9.30889 81.0238>
LayerCount: 2
Fore
SplineSet
222.612 85.3405 m 256x8180
 206.126002128 85.3405 180 73.3091741573 180 53 c 258x8480
 180 -57 l 258
 180 -65 192 -69 198 -65 c 256
 242.052 -33.0405 259.245 -5.55756 259.245 29.6935 c 256
 259.245 63.9633134283 244.73061705 85.3405 222.612 85.3405 c 256x8180
68.6122 85.3405 m 256
 52.1256897848 85.3405 26 73.3092351616 26 53 c 258
 26 -57 l 258x8c80
 26 -65 38 -69 44 -65 c 256
 88.0523 -33.0405 105.245 -5.55756 105.245 29.6935 c 256
 105.245 63.963250886 90.7307704965 85.3405 68.6122 85.3405 c 256
10 -123 m 258
 1 -130 0 -129 0 -116 c 258xc980
 0 340 l 257
 43 340 l 257
 43 123 l 258
 43 117 52 106 58 106 c 256
 67 106 82 114 103 114 c 256
 113 114 123 112 132 108 c 256
 136 106 154 105 154 116 c 258
 154 340 l 257
 197 340 l 257
 197 123 l 258xd280
 197 117 206 106 212 106 c 256
 221 106 236 114 257 114 c 256
 292 114 322 91 322 47 c 256
 322 -17 248 -54 198 -95 c 258
 164 -123 l 258
 155 -130 154 -129 154 -116 c 258
 154 -32 l 258xc180
 154 -20 140 -17 132 -25 c 256
 107 -51 72 -72 44 -95 c 258
 10 -123 l 258
EndSplineSet
Validated: 1
PickledDataWithLists: "(dp0
Vcom.fontlab.hintData
p1
(dp2
Vhhints
p3
(lp4
(dp5
Vposition
p6
I94
sVwidth
p7
I20
sasVvhints
p8
(lp9
(dp10
g6
I0
sg7
I43
sa(dp11
g6
I0
sg7
I26
sa(dp12
g6
I154
sg7
I43
sa(dp13
g6
I154
sg7
I26
sa(dp14
g6
I180
sg7
I142
sass."
EndChar

StartChar: section
Encoding: 167 167 137
GlifName: section
Width: 204
VWidth: 0
GlyphClass: 2
Flags: W
HStem: -102 73<5 72.7812 131.219 199> -25 50<77.0435 126.957> 29 73<5 72.7812 131.219 199>
VStem: 0 73<-97 -29.2188 29.2188 97> 77 50<-24.9565 24.9565> 131 73<-97 -29.2188 29.2188 97>
CounterMasks: 1 fc
LayerCount: 2
Fore
SplineSet
127 0 m 256
 127 -24 149 -29 199 -29 c 257
 200 -59 202 -90 204 -102 c 257
 192 -100 161 -98 131 -97 c 257
 131 -47 126 -25 102 -25 c 256
 78 -25 73 -47 73 -97 c 257
 43 -98 12 -100 0 -102 c 257
 2 -90 4 -59 5 -29 c 257
 55 -29 77 -24 77 0 c 256
 77 24 55 29 5 29 c 257
 4 59 2 90 0 102 c 257
 12 100 43 98 73 97 c 257
 73 47 78 25 102 25 c 256
 126 25 131 47 131 97 c 257
 161 98 192 100 204 102 c 257
 202 90 200 59 199 29 c 257
 149 29 127 24 127 0 c 256
EndSplineSet
Validated: 1
PickledDataWithLists: "(dp0
Vcom.fontlab.hintData
p1
(dp2
Vhhints
p3
(lp4
(dp5
Vposition
p6
I-102
sVwidth
p7
I73
sa(dp8
g6
I-25
sg7
I50
sa(dp9
g6
I29
sg7
I73
sasVvhints
p10
(lp11
(dp12
g6
I0
sg7
I73
sa(dp13
g6
I77
sg7
I50
sa(dp14
g6
I131
sg7
I73
sass."
EndChar

StartChar: dieresis
Encoding: 168 168 138
GlifName: dieresis
Width: 333
VWidth: 0
GlyphClass: 2
Flags: W
HStem: -199 46<56 158.711> 51 46<85 187.538> 301 46<113 215.538> 415 20G<304.5 333> 415 20G<304.5 333>
VStem: 0 136<-152.499 -70.8628> 29 136<97.5012 179.137> 57 136<347.501 429.137> 170 56<-504 -457.745>
LayerCount: 2
Fore
SplineSet
221 -167 m 258xf080
 222 -160 210 -149 201 -154 c 256
 169 -175 117 -199 77 -199 c 256
 35 -199 0 -171 0 -125 c 256
 0 -84 30 -50 68 -50 c 256
 106 -50 136 -78 136 -119 c 256xf480
 136 -126 135 -133 135 -138 c 256
 135 -145 141 -153 152 -153 c 256
 155 -153 159 -152 161 -151 c 256
 212 -124 237 -101 246 -24 c 258
 259 90 l 258
 260 98 248 107 240 102 c 256
 196 73 146 51 106 51 c 256
 64 51 29 79 29 125 c 256
 29 166 59 200 97 200 c 256
 135 200 165 172 165 131 c 256xf2
 165 124 164 117 164 112 c 256
 164 105 170 97 181 97 c 256
 184 97 188 98 190 99 c 256
 251 131 267 162 277 252 c 258
 287 340 l 258
 288 348 276 357 268 352 c 256
 224 323 174 301 134 301 c 256
 92 301 57 329 57 375 c 256
 57 416 87 450 125 450 c 256
 163 450 193 422 193 381 c 256xf1
 193 374 192 367 192 362 c 256
 192 355 198 347 209 347 c 256
 212 347 216 348 218 349 c 256
 254 368 290 401 319 435 c 257
 333 432 l 257
 226 -504 l 257
 170 -504 l 257
 221 -167 l 258xf080
EndSplineSet
Validated: 1
PickledDataWithLists: "(dp0
Vcom.fontlab.hintData
p1
(dp2
Vhhints
p3
(lp4
(dp5
Vposition
p6
I-199
sVwidth
p7
I46
sa(dp8
g6
I51
sg7
I46
sa(dp9
g6
I301
sg7
I46
sa(dp10
g6
I415
sg7
I20
sasVvhints
p11
(lp12
(dp13
g6
I0
sg7
I136
sa(dp14
g6
I29
sg7
I136
sa(dp15
g6
I57
sg7
I136
sa(dp16
g6
I170
sg7
I56
sass."
EndChar

StartChar: ordfeminine
Encoding: 170 170 139
GlifName: ordfeminine
Width: 586
VWidth: 0
GlyphClass: 2
Flags: W
HStem: -130 261 33 20G<563.5 568>
LayerCount: 2
Fore
SplineSet
21 -52 m 256x80
 15 -52 4 -35 4 -28 c 256
 4 -23 7 -18 14 -11 c 258
 119 107 l 258
 133 123 141 131 147 131 c 256x80
 155 131 161 120 175 98 c 258
 224 20 l 258
 235 3 243 -5 251 -5 c 256
 261 -5 271 4 288 23 c 258
 363 106 l 257
 377 123 385 132 391 132 c 256
 398 132 404 123 417 103 c 258
 471 17 l 258
 482 1 488 -8 496 -8 c 256
 504 -8 514 2 533 22 c 258
 553 44 l 258
 558 50 562 53 565 53 c 256x40
 571 53 581 36 581 28 c 256
 581 23 578 17 571 9 c 258
 475 -98 l 258
 457 -118 448 -130 440 -130 c 256
 432 -130 425 -119 410 -96 c 258
 362 -21 l 258
 350 -2 343 8 335 8 c 256
 327 8 318 0 302 -18 c 258
 225 -104 l 258
 209 -122 202 -131 195 -131 c 256
 187 -131 181 -121 168 -100 c 258
 115 -18 l 258
 104 -1 98 8 90 8 c 256
 82 8 73 0 58 -17 c 258
 36 -42 l 258
 29 -49 25 -52 21 -52 c 256x80
EndSplineSet
Validated: 1
PickledDataWithLists: "(dp0
Vcom.fontlab.hintData
p1
(dp2
Vhhints
p3
(lp4
(dp5
Vposition
p6
I111
sVwidth
p7
I20
sass."
EndChar

StartChar: guillemotleft
Encoding: 171 171 140
GlifName: guillemotleft
Width: 826
VWidth: 0
GlyphClass: 2
Flags: W
HStem: -130 262 33 20G<808.5 813>
LayerCount: 2
Fore
SplineSet
534 23 m 258x80
 608 106 l 258
 622.655 122.438 630 132 636 132 c 256x80
 643 132 649 123 662 103 c 258
 716 17 l 258
 727 1 733 -8 741 -8 c 256
 749 -8 759 2 778 22 c 258
 798 44 l 258
 803 50 807 53 810 53 c 256x40
 816 53 826 36 826 28 c 256
 826 23 823 17 816 9 c 258
 720 -98 l 258
 702 -118 693 -130 685 -130 c 256
 677 -130 670 -119 655 -96 c 258
 607 -21 l 258
 595 -2 588 8 580 8 c 256
 572 8 563.106 -0.09473 546.992 -18 c 258
 475 -98 l 258
 457 -118.002 448 -130 440 -130 c 256
 432 -130 425 -119 410 -96 c 258
 362 -21 l 258
 350 -2 343 8 335 8 c 256
 327 8 318 0 302 -18 c 258
 225 -104 l 258
 209 -122 202 -131 195 -131 c 256
 187 -131 181 -121 168 -100 c 258
 115 -18 l 258
 104 -1 98 8 90 8 c 256
 82 8 73 0 58 -17 c 258
 36 -42 l 258
 29 -49 25 -52 21 -52 c 256
 15 -52 4 -35 4 -28 c 256
 4 -23 7 -18 14 -11 c 258
 119 107 l 258
 133 123 141 131 147 131 c 256
 155 131 161 120 175 98 c 258
 224 20 l 258
 235 3 243 -5 251 -5 c 256
 261 -5 271 4 288 23 c 258
 363 106 l 257
 377 123 385 132 391 132 c 256
 398 132 404 123 417 103 c 258
 471 17 l 258
 482 1 488 -8 496 -8 c 256
 504 -8 515.282 2.0059 534 23 c 258x80
EndSplineSet
Validated: 1
PickledDataWithLists: "(dp0
Vcom.fontlab.hintData
p1
(dp2
Vhhints
p3
(lp4
(dp5
Vposition
p6
I112
sVwidth
p7
I20
sass."
EndChar

StartChar: uni00AD
Encoding: 173 173 141
GlifName: uni00A_D_
Width: 560
VWidth: 0
GlyphClass: 2
Flags: W
HStem: -134 58<49.9959 133.5 396.709 499.778> 80 54<60.222 158.54 426.5 510.004>
VStem: 0 32<-59.4597 45.9837> 528 32<-45.9837 59.4597>
LayerCount: 2
Fore
SplineSet
0 -3 m 256
 0 67 54 134 128 134 c 256
 168 134 198 119 235 85 c 257
 377 -39 l 257
 397 -55 424 -80 452 -80 c 256
 489 -80 528 -48 528 4 c 256
 528 33 516 76 481 76 c 256
 457 76 455 44 423 44 c 256
 398 44 383 60 383 84 c 256
 383 112 407 134 446 134 c 256
 514 134 560 74 560 3 c 256
 560 -67 506 -134 432 -134 c 256
 392 -134 362 -119 325 -85 c 257
 183 39 l 257
 163 55 136 80 108 80 c 256
 71 80 32 48 32 -4 c 256
 32 -33 44 -76 79 -76 c 256
 103 -76 105 -44 137 -44 c 256
 162 -44 177 -60 177 -84 c 256
 177 -112 153 -134 114 -134 c 256
 46 -134 0 -74 0 -3 c 256
EndSplineSet
Validated: 1
PickledDataWithLists: "(dp0
Vcom.fontlab.hintData
p1
(dp2
Vhhints
p3
(lp4
(dp5
Vposition
p6
I-134
sVwidth
p7
I58
sa(dp8
g6
I80
sg7
I54
sasVvhints
p9
(lp10
(dp11
g6
I0
sg7
I32
sa(dp12
g6
I528
sg7
I32
sass."
EndChar

StartChar: macron
Encoding: 175 175 142
GlifName: macron
Width: 1464
VWidth: 0
GlyphClass: 2
Flags: W
HStem: -194 21G<0 7 69 77 360 367 429 437 720 727 789 797 1080 1087 1149 1157> -25 32<178.998 243.386 538.998 603.565 898.998 963.077 1259 1323.74> 182 21G<30.5 36> 235 35<65.7104 120.002 241.689 298.848 425.174 480.002 601.689 658.83 785.788 840.002 961.689 1019.07 1145.89 1200 1321.69 1378.52>
VStem: 121 46<68 211> 481 46<68 211> 841 46<68 211> 1201 46<68 211> 1386 78<96.4096 228.746>
LayerCount: 2
Fore
SplineSet
887 68 m 256
 887 32 902 7 928 7 c 256
 972 7 999 66 1019 143 c 256
 1024 160 1026 175 1026 187 c 256
 1026 220 1012 231 994 231 c 256
 941 231 887 139 887 68 c 256
167 68 m 256
 167 32 182 7 208 7 c 256
 252 7 279 66 299 143 c 256
 304 160 306 175 306 187 c 256
 306 220 292 231 274 231 c 256
 221 231 167 139 167 68 c 256
34 182 m 256
 27 182 12 189 12 194 c 256
 12 196 14 199 17 204 c 256
 35 234 67 270 113 270 c 256
 142 270 158 259 172 242 c 256
 180 232 187 225 196 225 c 256
 201 225 206 228 212 233 c 256
 237 254 266 266 290 266 c 256
 316 266 339 256 356 240 c 256
 364 231 372 226 381 226 c 256
 387 226 394 229 401 236 c 256
 421 257 446 270 473 270 c 256
 502 270 518 259 532 242 c 256
 540 232 547 225 556 225 c 256
 561 225 566 228 572 233 c 256
 597 254 626 266 650 266 c 256
 676 266 698 257 714 241 c 256
 723 233 732 227 742 227 c 256
 748 227 755 230 761 236 c 256
 781 257 806 270 833 270 c 256
 862 270 878 259 892 242 c 256
 900 232 907 225 916 225 c 256
 921 225 926 228 932 233 c 256
 957 254 986 266 1010 266 c 256
 1034 266 1055 258 1071 244 c 256
 1082 234 1092 228 1102 228 c 256
 1109 228 1116 231 1124 239 c 256
 1143 258 1167 270 1193 270 c 256
 1222 270 1238 259 1252 242 c 256
 1260 232 1267 225 1276 225 c 256
 1281 225 1286 228 1292 233 c 256
 1317 254 1346 266 1370 266 c 256
 1426 266 1464 224 1464 161 c 256
 1464 59 1379 -25 1303 -25 c 256
 1283 -25 1269 -22 1254 -13 c 256
 1247 -9 1239 -6 1233 -6 c 256
 1224 -6 1217 -10 1214 -21 c 258
 1166 -182 l 258
 1163 -192 1160 -194 1154 -194 c 256
 1144 -194 1140 -183 1119 -183 c 256
 1099 -183 1092 -194 1082 -194 c 256
 1078 -194 1076 -192 1076 -189 c 256
 1076 -187 1077 -184 1078 -181 c 258
 1194 177 l 258
 1197 186 1201 199 1201 211 c 256
 1201 224 1196 235 1181 235 c 256
 1160 235 1138 215 1120 184 c 256
 1107 161 1105 134 1095 105 c 256
 1072 30 1004 -25 943 -25 c 256
 923 -25 909 -22 894 -13 c 256
 887 -9 879 -6 873 -6 c 256
 864 -6 857 -10 854 -21 c 258
 806 -182 l 258
 803 -192 800 -194 794 -194 c 256
 784 -194 780 -183 759 -183 c 256
 739 -183 732 -194 722 -194 c 256
 718 -194 716 -192 716 -189 c 256
 716 -187 717 -184 718 -181 c 258
 834 177 l 258
 837 186 841 199 841 211 c 256
 841 224 836 235 821 235 c 256
 798 235 773 211 755 174 c 256
 746 157 744 138 738 116 c 256
 718 35 647 -25 583 -25 c 256
 563 -25 549 -22 534 -13 c 256
 527 -9 519 -6 513 -6 c 256
 504 -6 497 -10 494 -21 c 258
 446 -182 l 258
 443 -192 440 -194 434 -194 c 256
 424 -194 420 -183 399 -183 c 256
 379 -183 372 -194 362 -194 c 256
 358 -194 356 -192 356 -189 c 256
 356 -187 357 -184 358 -181 c 258
 474 177 l 258
 477 186 481 199 481 211 c 256
 481 224 476 235 461 235 c 256
 439 235 414 213 396 178 c 256
 386 158 384 136 377 111 c 256
 355 33 286 -25 223 -25 c 256
 203 -25 189 -22 174 -13 c 256
 167 -9 159 -6 153 -6 c 256
 144 -6 137 -10 134 -21 c 258
 86 -182 l 258
 83 -192 80 -194 74 -194 c 256
 64 -194 60 -183 39 -183 c 256
 19 -183 12 -194 2 -194 c 256
 -2 -194 -4 -192 -4 -189 c 256
 -4 -187 -3 -184 -2 -181 c 258
 114 177 l 258
 117 186 121 199 121 211 c 256
 121 224 116 235 101 235 c 256
 80 235 61 217 45 192 c 256
 41 185 38 182 34 182 c 256
527 68 m 256
 527 32 542 7 568 7 c 256
 612 7 639 66 659 143 c 256
 664 160 666 175 666 187 c 256
 666 220 652 231 634 231 c 256
 581 231 527 139 527 68 c 256
1247 68 m 256
 1247 32 1262 7 1288 7 c 256
 1332 7 1359 66 1379 143 c 256
 1384 160 1386 175 1386 187 c 256
 1386 220 1372 231 1354 231 c 256
 1301 231 1247 139 1247 68 c 256
EndSplineSet
Validated: 1
PickledDataWithLists: "(dp0
Vcom.fontlab.hintData
p1
(dp2
Vhhints
p3
(lp4
(dp5
Vposition
p6
I-194
sVwidth
p7
I21
sa(dp8
g6
I-25
sg7
I32
sa(dp9
g6
I182
sg7
I21
sa(dp10
g6
I235
sg7
I35
sasVvhints
p11
(lp12
(dp13
g6
I121
sg7
I46
sa(dp14
g6
I481
sg7
I46
sa(dp15
g6
I841
sg7
I46
sa(dp16
g6
I1201
sg7
I46
sa(dp17
g6
I1386
sg7
I78
sass."
EndChar

StartChar: uni00B2
Encoding: 178 178 143
GlifName: uni00B_2
Width: 215
VWidth: 0
GlyphClass: 2
Flags: W
HStem: 434 20G<0 39.2712 176.743 215> 434 20G<0 39.2712 176.743 215>
VStem: 0 215
LayerCount: 2
Fore
SplineSet
103 -38 m 258xa0
 0 447 l 257
 35 454 l 257
 98 159 l 258
 101 145 116 150 118 158 c 258
 181 454 l 257
 215 447 l 257
 112 -38 l 258
 109 -51 107 -56 103 -38 c 258xa0
EndSplineSet
Validated: 1
PickledDataWithLists: "(dp0
Vcom.fontlab.hintData
p1
(dp2
Vhhints
p3
(lp4
(dp5
Vposition
p6
I434
sVwidth
p7
I20
sasVvhints
p8
(lp9
(dp10
g6
I0
sg7
I215
sass."
EndChar

StartChar: uni00B3
Encoding: 179 179 144
GlifName: uni00B_3
Width: 348
VWidth: 0
GlyphClass: 2
Flags: W
HStem: 215 130<28 320>
VStem: 0 28<-5 215> 320 28<-5 214.682>
LayerCount: 2
Fore
SplineSet
28 -5 m 257
 0 -5 l 257
 0 345 l 257
 348 345 l 257
 348 -5 l 257
 320 -5 l 257
 320 199 l 258
 320 208 309 215 304 215 c 258
 40 215 l 258
 36 215 28 208 28 202 c 258
 28 -5 l 257
EndSplineSet
Validated: 1
PickledDataWithLists: "(dp0
Vcom.fontlab.hintData
p1
(dp2
Vhhints
p3
(lp4
(dp5
Vposition
p6
I-36
sVwidth
p7
I110
sa(dp8
g6
I211
sg7
I103
sasVvhints
p9
(lp10
(dp11
g6
I-36
sg7
I34
sa(dp12
g6
I154
sg7
I110
sa(dp13
g6
I422
sg7
I34
sass."
EndChar

StartChar: acute
Encoding: 180 180 145
GlifName: acute
Width: 274
VWidth: 0
GlyphClass: 2
Flags: W
HStem: -137 40<40 234> 97 40<40 234>
VStem: 0 40<-97 97> 234 40<-96.7879 97>
LayerCount: 2
Fore
SplineSet
40 82 m 258
 40 -79 l 258
 40 -88 52 -97 57 -97 c 258
 212 -97 l 258
 221 -97 234 -85 234 -77 c 258
 234 77 l 258
 234 85 223 97 215 97 c 258
 56 97 l 258
 50 97 40 86 40 82 c 258
0 137 m 257
 274 137 l 257
 274 -137 l 257
 0 -137 l 257
 0 137 l 257
EndSplineSet
Validated: 1
PickledDataWithLists: "(dp0
Vcom.fontlab.hintData
p1
(dp2
Vhhints
p3
(lp4
(dp5
Vposition
p6
I-137
sVwidth
p7
I40
sa(dp8
g6
I97
sg7
I40
sasVvhints
p9
(lp10
(dp11
g6
I0
sg7
I40
sa(dp12
g6
I234
sg7
I40
sass."
EndChar

StartChar: uni00B5
Encoding: 181 181 146
GlifName: uni00B_5
Width: 274
VWidth: 0
GlyphClass: 2
Flags: W
HStem: -137 274<0 274>
VStem: 0 274<-137 137>
LayerCount: 2
Fore
SplineSet
0 137 m 257
 274 137 l 257
 274 -137 l 257
 0 -137 l 257
 0 137 l 257
EndSplineSet
Validated: 1
PickledDataWithLists: "(dp0
Vcom.fontlab.hintData
p1
(dp2
Vhhints
p3
(lp4
(dp5
Vposition
p6
I-137
sVwidth
p7
I274
sasVvhints
p8
(lp9
(dp10
g6
I0
sg7
I274
sass."
EndChar

